<svg width="1440" height="1024" viewBox="0 0 1440 1024" fill="none" xmlns="http://www.w3.org/2000/svg">
<rect width="1440" height="1024" fill="#BEBEBE"/>
<rect width="55" height="55" fill="#656565"/>
<rect y="969" width="55" height="55" fill="#656565"/>
<rect x="1387" y="969" width="55" height="55" fill="#656565"/>
<rect x="1385" width="55" height="55" fill="#656565"/>
<rect x="21" y="19" width="1398" height="986" fill="white"/>
<path d="M1183 972C1183 966.477 1187.48 962 1193 962H1390C1395.52 962 1400 966.477 1400 972V1002C1400 1004.76 1397.76 1007 1395 1007H1188C1185.24 1007 1183 1004.76 1183 1002V972Z" fill="#3A3A3A"/>
<rect x="1183" y="1007" width="217" height="17" rx="5" fill="#5A5A5A"/>
<g filter="url(#filter0_i)">
<rect x="822" y="999" width="69" height="25" fill="#C83C34"/>
<rect x="891" y="995" width="19" height="29" fill="#C83C34"/>
<rect x="909" y="995" width="215" height="29" fill="white"/>
<rect x="1124" y="995" width="4" height="29" fill="#C83C34"/>
</g>
<defs>
<filter id="filter0_i" x="822" y="995" width="306" height="30" filterUnits="userSpaceOnUse" color-interpolation-filters="sRGB">
<feFlood flood-opacity="0" result="BackgroundImageFix"/>
<feBlend mode="normal" in="SourceGraphic" in2="BackgroundImageFix" result="shape"/>
<feColorMatrix in="SourceAlpha" type="matrix" values="0 0 0 0 0 0 0 0 0 0 0 0 0 0 0 0 0 0 127 0" result="hardAlpha"/>
<feOffset dy="1"/>
<feGaussianBlur stdDeviation="7.5"/>
<feComposite in2="hardAlpha" operator="arithmetic" k2="-1" k3="1"/>
<feColorMatrix type="matrix" values="0 0 0 0 0 0 0 0 0 0 0 0 0 0 0 0 0 0 0.25 0"/>
<feBlend mode="normal" in2="shape" result="effect1_innerShadow"/>
</filter>
</defs>
</svg>
