<svg width="562" height="142" viewBox="0 0 562 142" fill="none" xmlns="http://www.w3.org/2000/svg">
<g filter="url(#filter0_d)">
<rect x="2" y="1" width="558" height="138" fill="white"/>
</g>
<rect x="59" y="14" width="484" height="75" rx="10" fill="#F2F2F2"/>
<circle r="14.5" transform="matrix(-1 0 0 1 29.5 28.5)" fill="#C4C4C4"/>
<rect x="458" y="100" width="85" height="29" rx="14.5" fill="#8BC0FF"/>
<path d="M485.216 109.576H490.256C491.067 109.576 491.728 109.693 492.24 109.928C492.752 110.163 493.147 110.456 493.424 110.808C493.701 111.16 493.888 111.544 493.984 111.96C494.091 112.376 494.144 112.76 494.144 113.112C494.144 113.464 494.091 113.848 493.984 114.264C493.888 114.669 493.701 115.048 493.424 115.4C493.147 115.752 492.752 116.045 492.24 116.28C491.728 116.504 491.067 116.616 490.256 116.616H487.216V121H485.216V109.576ZM487.216 114.984H490.144C490.368 114.984 490.597 114.952 490.832 114.888C491.067 114.824 491.28 114.723 491.472 114.584C491.675 114.435 491.835 114.243 491.952 114.008C492.08 113.763 492.144 113.459 492.144 113.096C492.144 112.723 492.091 112.413 491.984 112.168C491.877 111.923 491.733 111.731 491.552 111.592C491.371 111.443 491.163 111.341 490.928 111.288C490.693 111.235 490.443 111.208 490.176 111.208H487.216V114.984ZM499.424 121.224C498.763 121.224 498.171 121.117 497.648 120.904C497.136 120.68 496.699 120.376 496.336 119.992C495.984 119.608 495.712 119.149 495.52 118.616C495.339 118.083 495.248 117.496 495.248 116.856C495.248 116.227 495.339 115.645 495.52 115.112C495.712 114.579 495.984 114.12 496.336 113.736C496.699 113.352 497.136 113.053 497.648 112.84C498.171 112.616 498.763 112.504 499.424 112.504C500.085 112.504 500.672 112.616 501.184 112.84C501.707 113.053 502.144 113.352 502.496 113.736C502.859 114.12 503.131 114.579 503.312 115.112C503.504 115.645 503.6 116.227 503.6 116.856C503.6 117.496 503.504 118.083 503.312 118.616C503.131 119.149 502.859 119.608 502.496 119.992C502.144 120.376 501.707 120.68 501.184 120.904C500.672 121.117 500.085 121.224 499.424 121.224ZM499.424 119.784C499.829 119.784 500.181 119.699 500.48 119.528C500.779 119.357 501.024 119.133 501.216 118.856C501.408 118.579 501.547 118.269 501.632 117.928C501.728 117.576 501.776 117.219 501.776 116.856C501.776 116.504 501.728 116.152 501.632 115.8C501.547 115.448 501.408 115.139 501.216 114.872C501.024 114.595 500.779 114.371 500.48 114.2C500.181 114.029 499.829 113.944 499.424 113.944C499.019 113.944 498.667 114.029 498.368 114.2C498.069 114.371 497.824 114.595 497.632 114.872C497.44 115.139 497.296 115.448 497.2 115.8C497.115 116.152 497.072 116.504 497.072 116.856C497.072 117.219 497.115 117.576 497.2 117.928C497.296 118.269 497.44 118.579 497.632 118.856C497.824 119.133 498.069 119.357 498.368 119.528C498.667 119.699 499.019 119.784 499.424 119.784ZM506.492 118.344C506.546 118.877 506.748 119.251 507.1 119.464C507.452 119.677 507.874 119.784 508.364 119.784C508.535 119.784 508.727 119.773 508.94 119.752C509.164 119.72 509.372 119.667 509.564 119.592C509.756 119.517 509.911 119.411 510.028 119.272C510.156 119.123 510.215 118.931 510.204 118.696C510.194 118.461 510.108 118.269 509.948 118.12C509.788 117.971 509.58 117.853 509.324 117.768C509.079 117.672 508.796 117.592 508.476 117.528C508.156 117.464 507.831 117.395 507.5 117.32C507.159 117.245 506.828 117.155 506.508 117.048C506.199 116.941 505.916 116.797 505.66 116.616C505.415 116.435 505.218 116.205 505.068 115.928C504.919 115.64 504.844 115.288 504.844 114.872C504.844 114.424 504.951 114.051 505.164 113.752C505.388 113.443 505.666 113.197 505.996 113.016C506.338 112.824 506.711 112.691 507.116 112.616C507.532 112.541 507.927 112.504 508.3 112.504C508.727 112.504 509.132 112.552 509.516 112.648C509.911 112.733 510.263 112.877 510.572 113.08C510.892 113.283 511.154 113.549 511.356 113.88C511.57 114.2 511.703 114.589 511.756 115.048H509.852C509.767 114.611 509.564 114.317 509.244 114.168C508.935 114.019 508.578 113.944 508.172 113.944C508.044 113.944 507.89 113.955 507.708 113.976C507.538 113.997 507.372 114.04 507.212 114.104C507.063 114.157 506.935 114.243 506.828 114.36C506.722 114.467 506.668 114.611 506.668 114.792C506.668 115.016 506.743 115.197 506.892 115.336C507.052 115.475 507.255 115.592 507.5 115.688C507.756 115.773 508.044 115.848 508.364 115.912C508.684 115.976 509.015 116.045 509.356 116.12C509.687 116.195 510.012 116.285 510.332 116.392C510.652 116.499 510.935 116.643 511.18 116.824C511.436 117.005 511.639 117.235 511.788 117.512C511.948 117.789 512.028 118.131 512.028 118.536C512.028 119.027 511.916 119.443 511.692 119.784C511.468 120.125 511.175 120.403 510.812 120.616C510.46 120.829 510.066 120.984 509.628 121.08C509.191 121.176 508.759 121.224 508.332 121.224C507.81 121.224 507.324 121.165 506.876 121.048C506.439 120.931 506.055 120.755 505.724 120.52C505.404 120.275 505.148 119.976 504.956 119.624C504.775 119.261 504.679 118.835 504.668 118.344H506.492ZM512.581 112.728H513.957V110.248H515.781V112.728H517.429V114.088H515.781V118.504C515.781 118.696 515.786 118.861 515.797 119C515.818 119.139 515.856 119.256 515.909 119.352C515.973 119.448 516.064 119.523 516.181 119.576C516.298 119.619 516.458 119.64 516.661 119.64C516.789 119.64 516.917 119.64 517.045 119.64C517.173 119.629 517.301 119.608 517.429 119.576V120.984C517.226 121.005 517.029 121.027 516.837 121.048C516.645 121.069 516.448 121.08 516.245 121.08C515.765 121.08 515.376 121.037 515.077 120.952C514.789 120.856 514.56 120.723 514.389 120.552C514.229 120.371 514.117 120.147 514.053 119.88C514 119.613 513.968 119.309 513.957 118.968V114.088H512.581V112.728Z" fill="white"/>
<defs>
<filter id="filter0_d" x="0" y="0" width="562" height="142" filterUnits="userSpaceOnUse" color-interpolation-filters="sRGB">
<feFlood flood-opacity="0" result="BackgroundImageFix"/>
<feColorMatrix in="SourceAlpha" type="matrix" values="0 0 0 0 0 0 0 0 0 0 0 0 0 0 0 0 0 0 127 0" result="hardAlpha"/>
<feOffset dy="1"/>
<feGaussianBlur stdDeviation="1"/>
<feComposite in2="hardAlpha" operator="out"/>
<feColorMatrix type="matrix" values="0 0 0 0 0 0 0 0 0 0 0 0 0 0 0 0 0 0 0.25 0"/>
<feBlend mode="normal" in2="BackgroundImageFix" result="effect1_dropShadow"/>
<feBlend mode="normal" in="SourceGraphic" in2="effect1_dropShadow" result="shape"/>
</filter>
</defs>
</svg>
