<?xml version="1.0" encoding="utf-8"?>
<!-- Generator: Adobe Illustrator 25.3.1, SVG Export Plug-In . SVG Version: 6.00 Build 0)  -->
<svg version="1.1" xmlns="http://www.w3.org/2000/svg" xmlns:xlink="http://www.w3.org/1999/xlink" x="0px" y="0px"
	 viewBox="0 0 395 264.8" style="enable-background:new 0 0 395 264.8;" xml:space="preserve">
<style type="text/css">
	.st0{display:none;}
	.st1{display:inline;fill:#FFFFFF;}
	.st2{display:inline;}
	.st3{display:inline;fill:none;stroke:#090000;stroke-miterlimit:10;}
	.st4{fill:#FFFFFF;}
	.st5{fill:none;stroke:#000000;stroke-miterlimit:10;}
	.st6{fill:none;stroke:#000000;stroke-width:0.5;stroke-miterlimit:10;}
</style>
<g id="Layer_3" class="st0">
	<polygon class="st1" points="28,42.8 35.7,25 43.5,21.2 52.3,13.1 55.6,16 58.5,16 61.8,21.4 69.2,16.2 76.1,16.6 86.9,22.2 
		96.9,16.6 101.6,22.2 109,18.3 114.6,24.4 121.5,23.1 130.6,25.2 137.5,21.4 144.9,21.4 149.2,23.5 149.2,18.8 162.1,22.2 
		167.9,17 175.4,17 176.1,13.1 180.8,14.5 192.8,9.2 200.8,0 206.8,6.7 211.3,4.5 220.5,6.5 222.3,11.7 227,8 236,6.7 238.5,10.2 
		244.2,10 247.5,11.7 253.5,9 256.5,6.2 261.2,10 265.2,6.2 270.7,8 278.2,9.2 284.1,3.7 287.6,0 292.6,1.5 297.9,1.5 301.6,3.5 
		304.1,6.7 308.9,5 313.6,11 319.3,8.5 324.1,9 330.1,6 336.8,5 341,3.5 342,0 348.5,2 353,1.2 356.8,3.5 360.5,5.5 366.3,4 
		371,5.5 378,4.2 381.7,6 387,5 389.5,5.2 395,7.2 395,251.5 386.1,258.8 379.3,254.1 375.5,256.4 371.7,252.9 366.3,256.7 
		360.2,258.8 347.6,252.9 344.1,256 336.9,253.3 328.8,255.2 325,258.8 320,251.4 312.8,251.4 308.6,254.1 304,252.1 296.7,256 
		293.3,258.8 289.8,255.2 284.5,255.6 278.3,252.1 272.2,261.7 262.7,257.1 253.1,253.7 248.1,256.7 242,259 237.8,254.1 
		232.4,251.4 228.6,253.3 221.7,250.2 215.6,247.2 211.5,247.6 208.7,252.1 200.3,254.1 195,249.5 188.5,251.4 180.8,254.4 
		178.1,259.8 170.1,261.7 165.5,257.9 159,260.2 151.4,264.8 143.3,264.8 135.7,261.7 124.2,261.3 112.7,256.7 108.9,257.5 
		104.3,257.1 99.3,259 95.5,258.3 88.2,256.4 79.8,257.9 74,257.5 67.3,260.6 60.9,256.6 58.2,253.5 57.1,252.1 55.6,252.1 
		54.1,250 46,247.7 42.9,252.6 35.3,255.5 31.3,252.8 28,255.5 26.7,258.4 24.5,257.7 21.3,256.8 17.8,258.6 14,255 9.8,251.7 
		4.4,247.4 0,229.4 0,221.4 2.2,218.1 1.6,214.1 0,210.1 0,206.3 1.1,195.2 2,187.9 3,171.6 5.6,163.2 5.4,156.9 8.8,150.8 
		8.8,133.3 5.6,120.8 8.4,103.2 9.4,95.4 10,89.8 11.4,82.1 14.6,76.3 16,68.9 20,67.5 23.1,62.1 27.1,58.7 24.6,48.1 26.3,45.6 	
		"/>
	<path class="st2" d="M33.8,42.8v-0.4c1-0.1,1.1-0.2,1.1-1.2v-3.1c0-0.9,0-1-1-1.2v-0.4c0.7-0.1,1.5-0.3,2.2-0.6v5.3
		c0,1,0.1,1.1,1.1,1.2v0.4L33.8,42.8z M35.4,34.5c-0.4,0-0.8-0.4-0.8-0.8c0-0.5,0.4-0.8,0.8-0.8c0,0,0,0,0,0c0.4,0,0.8,0.4,0.8,0.8
		c0,0,0,0,0,0C36.2,34.1,35.8,34.5,35.4,34.5z"/>
	<path class="st2" d="M42.3,42.8v-0.4c0.9-0.1,1-0.2,1-1.2v-2.5c0-1.1-0.4-1.8-1.4-1.8c-0.6,0-1.2,0.3-1.7,0.8v3.6
		c0,1.1,0.1,1.1,1,1.2v0.4h-3.3v-0.4c1-0.1,1.1-0.2,1.1-1.2v-3.1c0-1-0.1-1-0.9-1.2v-0.4c0.7-0.1,1.4-0.3,2.1-0.6v1.2l1-0.7
		c0.4-0.3,0.8-0.4,1.3-0.4c1.2,0,2,0.9,2,2.4v2.9c0,1,0.1,1.1,1,1.2v0.4H42.3z"/>
	<path class="st2" d="M29.7,71.5c-0.2,0.1-0.4,0.2-0.7,0.2c-1,0-1.5-0.6-1.5-1.8v-4.4h-1.1v-0.2l0.4-0.4h0.7v-1.3
		c0.3-0.3,0.7-0.7,1-1h0.2c0,0.6,0,1.5,0,2.2h1.7c0.1,0.2,0.1,0.5-0.1,0.6h-1.6v3.9c0,1.2,0.5,1.5,0.9,1.5c0.3,0,0.6-0.1,0.9-0.2
		l0.1,0.4L29.7,71.5z"/>
	<path class="st2" d="M35.5,71.5v-0.4c0.9-0.1,1-0.2,1-1.2v-2.5c0-1.3-0.5-1.9-1.5-1.9c-0.6,0-1.2,0.3-1.6,0.8v3.6
		c0,1,0.1,1.1,1,1.2v0.4h-3.2v-0.4C32,71,32.2,71,32.2,70v-7.3c0-0.8,0-1-1.1-1.1v-0.4c0.8-0.1,1.5-0.2,2.3-0.5v5.2
		c0.6-0.6,1.4-1,2.2-1.1c1.2,0,2.1,0.8,2.1,2.6V70c0,1,0.1,1.1,1,1.2v0.4H35.5z"/>
	<path class="st2" d="M45.1,70.2c-0.6,0.8-1.5,1.4-2.5,1.5c-1.7,0-3-1.3-3-3c0-0.1,0-0.2,0-0.3c0-1,0.3-1.9,1-2.7
		c0.6-0.7,1.4-1.1,2.3-1.1c1.3,0,2.3,1.1,2.3,2.4c0,0.3-0.1,0.4-0.3,0.5s-2.2,0.2-4.1,0.3c0,2,1.2,2.9,2.3,2.9
		c0.7,0,1.3-0.3,1.8-0.8L45.1,70.2z M42.5,65.2c-0.7,0-1.4,0.7-1.6,1.9c0.8,0,1.7,0,2.6,0c0.3,0,0.4-0.1,0.4-0.3
		C43.9,66,43.4,65.3,42.5,65.2C42.6,65.3,42.5,65.3,42.5,65.2L42.5,65.2z"/>
	<path class="st2" d="M19.1,79.6c-0.8,0.1-0.9,0.3-1.2,1.1c-0.4,1.2-1.2,3.3-1.8,5.3h-0.5c-0.6-1.6-1.2-3.2-1.8-4.8
		c-0.6,1.4-1.2,3.1-1.8,4.8h-0.4L11,84.5l0.4-2.5c0.2,0.7,0.4,1.4,0.7,2.1c0.6-1.6,1.2-3.1,1.8-4.8h0.4c0.6,1.6,1.2,3.2,1.8,4.9
		c0.3-0.9,0.8-2.4,1.1-3.5c0.2-0.8,0.1-0.9-1-1v-0.4h2.8L19.1,79.6z"/>
	<path class="st2" d="M24.5,86.1c-0.3,0-0.5-0.1-0.7-0.3c-0.2-0.2-0.3-0.4-0.4-0.7c-0.5,0.5-1.1,0.8-1.8,1c-1,0-1.9-0.8-1.9-1.9
		c0-0.7,0.5-1.4,1.2-1.5c0.8-0.2,1.6-0.6,2.4-1v-0.3c0-1.1-0.5-1.7-1.3-1.7c-0.3,0-0.5,0.1-0.7,0.3c-0.2,0.3-0.3,0.6-0.4,1
		c0,0.2-0.2,0.4-0.4,0.3c-0.4,0-0.6-0.3-0.7-0.7c0-0.2,0.2-0.4,0.5-0.6c0.6-0.5,1.4-0.9,2.2-1.1c1.1,0,2,0.9,2,2c0,0.1,0,0.1,0,0.2
		v2.9c0,0.7,0.3,0.9,0.5,0.9c0.2,0,0.4-0.1,0.5-0.2l0.2,0.4L24.5,86.1z M23.4,82.3c-0.3,0.2-1.1,0.5-1.4,0.6
		C21.4,83.2,21,83.5,21,84c0,0.6,0.4,1.1,1,1.2c0,0,0,0,0.1,0c0.5,0,0.9-0.2,1.2-0.5L23.4,82.3z"/>
	<path class="st2" d="M30.2,81c-0.3-0.9-0.7-1.5-1.6-1.5c-0.5,0-0.9,0.4-0.9,0.9c0,0,0,0.1,0,0.1c0,0.7,0.4,1,1.3,1.3
		c1.3,0.6,2,1.1,2,2.1c-0.1,1.3-1.1,2.2-2.4,2.2c0,0-0.1,0-0.1,0c-0.6,0-1.3-0.1-1.8-0.4c-0.1-0.4-0.2-1.3-0.3-1.8l0.4-0.1
		c0.3,1,0.8,1.8,1.9,1.8c0.6,0,1-0.4,1.1-0.9c0,0,0,0,0-0.1c0-0.7-0.4-1-1.2-1.4c-1.1-0.5-1.9-1-1.9-2.1c0-1.2,1-2.1,2.2-2
		c0.1,0,0.1,0,0.2,0c0.5,0,1,0.1,1.5,0.2c0,0.4,0.2,1.3,0.2,1.7L30.2,81z"/>
	<path class="st2" d="M43.9,86.1c-0.3,0-0.5-0.1-0.7-0.3c-0.2-0.2-0.3-0.4-0.4-0.7c-0.5,0.5-1.2,0.8-1.8,1c-1,0-1.9-0.8-1.8-1.9
		c0,0,0,0,0,0c0-0.7,0.5-1.4,1.2-1.5c0.8-0.2,1.6-0.6,2.4-1v-0.3c0-1.1-0.6-1.7-1.3-1.7c-0.3,0-0.5,0.1-0.7,0.3
		c-0.2,0.3-0.3,0.6-0.4,1c0,0.2-0.2,0.4-0.4,0.3c-0.4,0-0.6-0.3-0.7-0.7c0-0.2,0.2-0.4,0.5-0.6c0.7-0.5,1.4-0.9,2.2-1.1
		c1.1,0,2,0.9,2,2c0,0.1,0,0.1,0,0.2v2.8c0,0.7,0.3,0.9,0.5,0.9c0.2,0,0.4-0.1,0.6-0.2l0.2,0.4L43.9,86.1z M42.8,82.3
		c-0.3,0.2-1.1,0.5-1.4,0.6c-0.6,0.3-0.9,0.6-0.9,1.1c0,0.6,0.5,1.1,1.1,1.1c0.5,0,0.9-0.2,1.2-0.5V82.3z"/>
	<path class="st2" d="M13,95.4c-0.3-0.9-0.7-1.5-1.6-1.5c-0.5,0-0.9,0.4-0.9,0.9c0,0,0,0.1,0,0.1c0,0.7,0.4,1,1.3,1.4
		c1.3,0.6,2,1.1,2,2.1c-0.1,1.2-1.1,2.2-2.4,2.1c0,0-0.1,0-0.1,0c-0.6,0-1.2-0.1-1.8-0.4c-0.1-0.4-0.2-1.3-0.3-1.8l0.4-0.1
		c0.3,1,0.8,1.8,1.9,1.8c0.6,0,1-0.4,1.1-0.9c0,0,0,0,0-0.1c0-0.7-0.4-1-1.2-1.4c-1.1-0.5-1.9-1-1.9-2.1c0-1.2,1-2.1,2.2-2
		c0.1,0,0.1,0,0.2,0c0.5,0,1,0.1,1.5,0.2c0,0.4,0.2,1.3,0.2,1.7L13,95.4z"/>
	<path class="st2" d="M19.6,100.4c-0.3,0-0.5-0.1-0.7-0.3c-0.2-0.2-0.3-0.4-0.4-0.7c-0.5,0.5-1.2,0.8-1.8,1c-1,0-1.9-0.8-1.8-1.9
		c0,0,0,0,0,0c0-0.7,0.5-1.4,1.2-1.5c0.8-0.2,1.6-0.6,2.4-1v-0.3c0-1.1-0.6-1.7-1.3-1.7c-0.3,0-0.6,0.1-0.7,0.3
		c-0.2,0.3-0.3,0.6-0.4,1c0,0.2-0.2,0.4-0.4,0.3c-0.4,0-0.6-0.3-0.7-0.7c0-0.2,0.2-0.4,0.5-0.6c0.7-0.5,1.4-0.9,2.2-1.1
		c1.1,0,2,0.8,2.1,1.9c0,0.1,0,0.2,0,0.2v2.9c0,0.7,0.2,0.9,0.5,0.9c0.2,0,0.4-0.1,0.5-0.2l0.2,0.4L19.6,100.4z M18.5,96.6l-1.4,0.6
		c-0.6,0.3-0.9,0.6-0.9,1.1c0,0.6,0.4,1.1,1,1.2c0,0,0,0,0.1,0c0.5,0,0.9-0.2,1.2-0.5V96.6z"/>
	<path class="st2" d="M24.4,100.2c-0.2,0.1-0.4,0.2-0.7,0.2c-1,0-1.5-0.6-1.5-1.8v-4.4h-1L21.2,94l0.4-0.4h0.7v-1.3
		c0.3-0.3,0.7-0.7,1-1h0.2c0,0.6,0,1.5,0,2.2h1.7c0.1,0.2,0.1,0.5-0.1,0.6h-1.7v4c0,1.2,0.5,1.5,0.9,1.5c0.3,0,0.6-0.1,0.9-0.2
		l0.1,0.4L24.4,100.2z"/>
	<path class="st2" d="M26,100.2v-0.4c1-0.1,1.1-0.2,1.1-1.2v-3.1c0-0.9,0-1-1-1.2V94c0.7-0.1,1.5-0.3,2.2-0.6v5.3
		c0,1,0.1,1.1,1.1,1.2v0.4H26z M27.6,91.9c-0.4,0-0.8-0.4-0.8-0.8c0-0.5,0.3-0.8,0.8-0.8c0,0,0,0,0,0c0.4,0,0.8,0.4,0.8,0.8
		c0,0,0,0,0,0C28.4,91.5,28,91.9,27.6,91.9z"/>
	<path class="st2" d="M33.5,93.4c1.8,0,3.3,1.4,3.3,3.2c0,0.1,0,0.1,0,0.2c0.1,1.9-1.3,3.5-3.2,3.6c0,0-0.1,0-0.1,0
		c-1.8,0-3.4-1.5-3.4-3.3c0,0,0-0.1,0-0.1C30.1,95.1,31.6,93.5,33.5,93.4C33.5,93.4,33.5,93.4,33.5,93.4z M33.4,93.9
		c-0.9,0-1.8,0.9-1.8,2.7c0,1.9,0.8,3.3,2.1,3.3c0.9,0,1.7-0.7,1.7-2.8C35.5,95.3,34.7,93.9,33.4,93.9z"/>
	<path class="st2" d="M42.2,100.2v-0.4c0.9-0.1,1-0.2,1-1.2v-2.5c0-1.1-0.4-1.8-1.4-1.8c-0.6,0-1.2,0.3-1.7,0.8v3.6
		c0,1,0.1,1.1,1,1.2v0.4h-3.3v-0.4c1-0.1,1.1-0.2,1.1-1.2v-3.1c0-1-0.1-1-0.9-1.2V94c0.7-0.1,1.4-0.3,2.1-0.6v1.2l1-0.7
		c0.4-0.3,0.8-0.4,1.3-0.5c1.2,0,2,0.9,2,2.4v2.9c0,1,0.1,1.1,1,1.2v0.4L42.2,100.2z"/>
	<path class="st2" d="M9.8,114.6v-0.5c0.9-0.1,1-0.2,1-1.2v-2.5c0-1.1-0.4-1.8-1.4-1.8c-0.6,0-1.2,0.3-1.7,0.8v3.6
		c0,1,0.1,1.1,1,1.2v0.4H6.5l1.1-6.8l0.1-0.1v1.2l1-0.7c0.4-0.3,0.8-0.4,1.3-0.5c1.2,0,2,0.9,2,2.4v2.9c0,1,0.1,1.1,1,1.2v0.4
		L9.8,114.6z"/>
	<path class="st2" d="M15.9,112.4c-0.3,0.2-0.4,0.4-0.5,0.8c0,0.3,0.3,0.6,0.9,0.6H18c1,0,2.2,0.3,2.2,1.8s-1.9,3.1-3.9,3.1
		c-1.7,0-2.6-1-2.7-1.9c0-0.3,0.1-0.6,0.4-0.9c0.4-0.4,0.8-0.8,1.2-1.1c-0.5-0.1-0.9-0.4-1.1-0.8c-0.1-0.2-0.2-0.4-0.2-0.7
		c0.5-0.2,1-0.5,1.4-1L15.9,112.4z M16.6,112.5c-1.3,0.1-2.4-0.8-2.6-2.1c0-0.1,0-0.1,0-0.2c0-1.4,1.2-2.6,2.7-2.5c0,0,0,0,0.1,0
		c0.5,0,1,0.1,1.5,0.4c0.7,0,1.3-0.1,2-0.2l0.1,0.1c-0.1,0.3-0.3,0.6-0.6,0.8c-0.2,0-0.7-0.1-0.9-0.1c0.3,0.4,0.4,0.9,0.4,1.4
		c0,1.4-1.1,2.4-2.5,2.4C16.7,112.5,16.7,112.5,16.6,112.5z M17,114.8c-0.5-0.1-1,0-1.3,0.3c-0.4,0.3-0.7,0.7-0.7,1.2
		c0,0.8,0.9,1.5,2,1.5c1.4,0,2.3-0.8,2.3-1.7c0-0.5-0.2-0.9-0.7-1.1C18,114.8,17.5,114.7,17,114.8z M16.6,108.2
		c-0.7,0-1.3,0.6-1.3,1.8s0.6,2,1.4,2c0.7,0,1.3-0.6,1.3-1.8S17.5,108.2,16.6,108.2z"/>
	<path class="st2" d="M34.5,108.3c-0.8,0.1-0.9,0.3-1.2,1.1c-0.4,1.2-1.2,3.3-1.8,5.3H31c-0.6-1.6-1.2-3.2-1.8-4.8
		c-0.6,1.4-1.2,3.1-1.8,4.8h-0.5c-0.5-1.8-1.1-3.6-1.8-5.4c-0.3-0.8-0.4-0.9-1.2-1v-0.4h3.2v0.4c-0.9,0.1-1,0.2-0.8,0.9
		c0.3,1.2,0.8,2.4,1.1,3.6c0.6-1.6,1.2-3.1,1.8-4.8h0.4c0.6,1.6,1.2,3.2,1.8,4.9c0.3-0.9,0.8-2.4,1.1-3.5c0.2-0.8,0.1-0.9-1-1v-0.4
		h2.9V108.3z"/>
	<path class="st2" d="M39.9,114.8c-0.3,0-0.5-0.1-0.7-0.3c-0.2-0.2-0.3-0.4-0.4-0.7c-0.5,0.5-1.2,0.8-1.8,1c-1,0-1.9-0.8-1.8-1.9
		c0,0,0,0,0,0c0-0.7,0.5-1.4,1.2-1.5c0.8-0.2,1.6-0.6,2.4-1v-0.3c0-1.1-0.6-1.7-1.3-1.7c-0.3,0-0.5,0.1-0.7,0.4
		c-0.2,0.3-0.3,0.6-0.4,1c0,0.2-0.2,0.4-0.4,0.4c-0.4,0-0.6-0.3-0.7-0.7c0-0.2,0.2-0.4,0.5-0.6c0.7-0.5,1.4-0.9,2.2-1.1
		c1.1,0,2,0.8,2.1,1.9c0,0.1,0,0.2,0,0.2v2.9c0,0.7,0.2,0.9,0.5,0.9c0.2,0,0.4-0.1,0.6-0.2l0.2,0.4L39.9,114.8z M38.7,110.9
		l-1.4,0.6c-0.6,0.3-0.9,0.6-0.9,1.1c0,0.6,0.4,1.1,1,1.2c0,0,0,0,0.1,0c0.5,0,0.9-0.2,1.2-0.5V110.9z"/>
	<path class="st2" d="M45.6,109.7c-0.3-0.9-0.7-1.5-1.6-1.5c-0.5,0-0.9,0.4-0.9,0.9c0,0,0,0.1,0,0.1c0,0.7,0.4,1,1.3,1.4
		c1.3,0.6,2,1.1,2,2.1c-0.1,1.2-1.1,2.2-2.4,2.1c0,0-0.1,0-0.1,0c-0.6,0-1.2-0.1-1.8-0.4c-0.1-0.4-0.2-1.3-0.3-1.8l0.4-0.1
		c0.3,1,0.8,1.8,1.9,1.8c0.6,0,1-0.4,1.1-0.9c0,0,0,0,0-0.1c0-0.7-0.4-1-1.2-1.4c-1.1-0.5-1.9-1-1.9-2.1c0.1-1.2,1-2.1,2.2-2
		c0.1,0,0.1,0,0.2,0c0.5,0,1,0.1,1.5,0.2c0,0.4,0.2,1.3,0.2,1.7L45.6,109.7z"/>
	<path class="st2" d="M16.4,143.3c-0.8,0-1.7,0-2,0c-0.1-0.1-2.5-2.9-2.6-3c-0.2-0.2-0.3-0.3-0.4-0.3c-0.1,0-0.2,0-0.3,0v1.7
		c0,1,0.1,1.1,1.1,1.2v0.4H8.8v-0.4c1-0.1,1.1-0.2,1.1-1.2v-7.3c0-1-0.1-1-1-1.1v-0.4c0.8-0.1,1.5-0.3,2.2-0.5v7.2
		c0.4-0.1,0.7-0.2,1-0.5c0.4-0.4,0.8-0.9,1.2-1.4c0.3-0.4,0.2-0.6-0.5-0.6v-0.4l3.1-0.1v0.4c-0.8,0-1.5,0.4-2,1
		c-0.3,0.3-1,1.1-1.3,1.5c0.3,0.4,1.8,2.2,2.3,2.7c0.7,0.7,1,0.8,1.5,0.8L16.4,143.3z"/>
	<path class="st2" d="M22.1,142c-0.6,0.8-1.5,1.4-2.5,1.5c-1.7,0-3-1.3-3-3c0-0.1,0-0.2,0-0.3c0-1,0.3-1.9,1-2.7
		c0.6-0.7,1.4-1.1,2.3-1.1c1.3,0,2.3,1.1,2.3,2.4c0,0.3-0.1,0.4-0.3,0.5s-2.2,0.2-4.1,0.3c0,2,1.2,2.9,2.3,2.9
		c0.7,0,1.3-0.3,1.8-0.8L22.1,142z M19.5,137c-0.7,0-1.4,0.6-1.6,1.9c0.8,0,1.7,0,2.6-0.1c0.3,0,0.4-0.1,0.4-0.3
		C20.9,137.8,20.3,137.1,19.5,137C19.5,137,19.5,137,19.5,137L19.5,137z"/>
	<path class="st2" d="M26.2,143.3c-0.2,0.1-0.4,0.2-0.7,0.2c-1,0-1.5-0.6-1.5-1.8v-4.4H23l-0.1-0.2l0.4-0.4H24v-1.3
		c0.3-0.3,0.7-0.7,1-1h0.2c0,0.6-0.1,1.5-0.1,2.2h1.7c0.1,0.2,0.1,0.5-0.1,0.6h-1.6v3.9c0,1.2,0.5,1.5,0.9,1.5
		c0.3,0,0.6-0.1,0.9-0.2l0.1,0.4L26.2,143.3z"/>
	<path class="st2" d="M37.9,143.3c-0.2,0.1-0.4,0.2-0.7,0.2c-1,0-1.5-0.6-1.5-1.8v-4.4h-1l-0.1-0.2l0.4-0.4h0.7v-1.3
		c0.3-0.3,0.7-0.7,1-1H37c0,0.6,0,1.5,0,2.2h1.7c0.1,0.2,0.1,0.5-0.1,0.6h-1.7v3.9c0,1.2,0.5,1.5,0.9,1.5c0.3,0,0.6-0.1,0.9-0.2
		l0.1,0.4L37.9,143.3z"/>
	<path class="st2" d="M42.7,136.5c1.8,0,3.3,1.4,3.3,3.2c0,0.1,0,0.1,0,0.2c0.1,1.9-1.3,3.5-3.2,3.6c0,0-0.1,0-0.1,0
		c-1.8,0-3.4-1.4-3.4-3.3c0,0,0,0,0-0.1c-0.1-1.9,1.4-3.6,3.3-3.7C42.6,136.5,42.7,136.5,42.7,136.5z M42.5,137
		c-0.9,0-1.8,0.9-1.8,2.7c0,1.9,0.8,3.3,2.1,3.3c0.9,0,1.7-0.7,1.7-2.8C44.6,138.4,43.9,137,42.5,137L42.5,137z"/>
	<path class="st2" d="M11.1,156.4c-0.6,0.8-1.5,1.4-2.5,1.5c-1.2,0-2.2-0.7-2.7-1.7l2.9-5.3c1.3,0,2.3,1,2.3,2.3
		c0,0.3-0.1,0.4-0.3,0.5s-1.9,0.2-3.7,0.2l-0.3,0.6c0,1.3,1,2.3,2.3,2.3c0.7,0,1.3-0.3,1.8-0.8L11.1,156.4z M7.5,153.3
		c0.7,0,1.3,0,2,0c0.3,0,0.4-0.1,0.4-0.3c0.1-0.8-0.5-1.5-1.2-1.6c0,0-0.1,0-0.1,0L7.5,153.3L7.5,153.3z"/>
	<path class="st2" d="M12.4,159c0.7-0.3,1.2-0.7,1.2-1.3s-0.4-0.7-1-0.8c-0.1,0-0.2-0.2-0.2-0.5c0-0.4,0.4-0.8,0.8-0.8
		c0,0,0,0,0.1,0c0.8,0.1,1.4,0.8,1.3,1.6c0,0,0,0,0,0c-0.1,1.1-0.9,2-2,2.2L12.4,159z"/>
	<path class="st2" d="M28,157.8c-0.3,0-0.5-0.1-0.7-0.3c-0.2-0.2-0.3-0.4-0.4-0.7c-0.5,0.5-1.2,0.8-1.8,1c-1,0-1.9-0.8-1.8-1.9
		c0-0.7,0.5-1.4,1.2-1.5c0.8-0.2,1.6-0.6,2.4-1v-0.3c0-1.1-0.6-1.7-1.3-1.7c-0.3,0-0.5,0.1-0.7,0.4c-0.2,0.3-0.3,0.6-0.4,1
		c0,0.2-0.2,0.4-0.4,0.4c-0.4,0-0.6-0.3-0.7-0.7c0-0.2,0.2-0.4,0.5-0.6c0.7-0.5,1.4-0.9,2.2-1.1c0.5,0,0.9,0.1,1.3,0.4
		c0.5,0.4,0.8,1.1,0.8,1.8v2.9c0,0.7,0.3,0.9,0.5,0.9c0.2,0,0.4-0.1,0.6-0.2l0.2,0.4L28,157.8z M26.9,154c-0.3,0.2-1.1,0.5-1.4,0.6
		c-0.6,0.3-0.9,0.6-0.9,1.1c0,0.6,0.4,1.1,1,1.2c0,0,0,0,0,0c0.5,0,0.9-0.2,1.2-0.6V154z"/>
	<path class="st2" d="M34.3,157.7v-0.4c0.9-0.1,1-0.2,1-1.2v-2.5c0-1.1-0.4-1.8-1.4-1.8c-0.6,0.1-1.2,0.3-1.7,0.8v3.6
		c0,1,0.1,1.1,1,1.2v0.4h-3.3v-0.4c1-0.1,1.1-0.2,1.1-1.2v-3.1c0-1-0.1-1-0.9-1.2v-0.4c0.7-0.1,1.4-0.3,2.1-0.6v1.2l1-0.7
		c0.4-0.3,0.8-0.4,1.3-0.4c1.2,0,2,0.9,2,2.4v2.9c0,1,0.1,1.1,1,1.2v0.4H34.3z"/>
	<path class="st2" d="M45.7,157.3c-0.8,0.1-1.6,0.3-2.4,0.6v-1c-0.3,0.2-0.7,0.4-0.9,0.6c-0.4,0.2-0.8,0.4-1.2,0.4
		c-1.7-0.2-2.9-1.7-2.8-3.4c0.1-2.1,1.8-3.8,3.9-3.7c0.3,0,0.7,0.1,1,0.2v-2.2c0-1-0.1-1-1.2-1.1v-0.4c0.8-0.1,1.6-0.3,2.4-0.5v9.2
		c0,0.8,0.1,0.9,0.7,0.9h0.5L45.7,157.3z M43.3,152.1c-0.4-0.5-1-0.8-1.6-0.8c-0.7,0-2,0.5-2,2.7c0,1.8,1.1,2.8,2.1,2.8
		c0.5,0,1.1-0.2,1.5-0.5L43.3,152.1z"/>
	<line class="st3" x1="56" y1="16" x2="56" y2="252.1"/>
</g>
<g id="Layer_2" class="st0">
	<g id="Layer_8" class="st2">
		<polygon class="st4" points="13.2,29.1 15.8,37.9 14.5,45.5 15.8,51.5 7.9,57.5 7.9,65.6 0,75.8 7.9,84.8 2.4,87.9 7.9,93.5 
			3.1,101.9 13.8,111 10,116.9 14.7,121.9 13.3,125.5 17.9,130.2 22.1,135.9 19.6,140.7 22.1,146.1 19.1,151.5 18.4,158.5 
			12.8,162.2 19.8,167.1 20.7,174.4 23,185.5 18.9,189.3 23,195.7 21,200.2 26.1,206.8 24,212.9 26.1,217.4 26.1,229.2 23.5,234 
			29.8,240.3 28.1,245.5 31.9,252.3 33.9,260 41.4,263.4 49.9,259.1 58.5,259.5 69.2,258.9 80.8,256.6 86.8,260 91.7,257.7 
			101.9,263.4 106.8,260.7 108.5,260.8 118.4,261.4 120.2,258 128.6,259.5 146,257.5 151.8,261.1 159,258 164.1,260.7 176.4,261.6 
			182.2,258 190.1,260.7 197.3,255.7 204.9,258.6 221.9,258.2 232.1,257.5 245.1,259.8 252.5,258.4 262.7,260.2 275,257.5 
			279.9,258.4 285.4,262.5 294,258.2 299.6,261.8 306.1,259.8 316.8,260.5 324.4,258.4 333.2,261.1 337.4,260.9 346,260.9 
			353.2,264.8 356,262 366,262.5 368.5,263.4 373.1,261.6 382,260.7 382,250.9 378.9,249.4 382,244.6 381,236.9 377.3,233.3 
			382,230.3 378.7,224.4 383.6,221.7 383.6,214.9 380.3,204.7 383.6,200.9 381,195.7 384.8,190.5 383.4,183 378.5,180.1 
			382.2,175.5 381,168.3 383.6,162.2 383.4,156.7 393.1,146.9 389.1,138.6 389.6,134.1 388,123.2 384.3,113.9 384.3,104.6 
			388.2,97.4 391.7,91.5 389.4,85.2 393.1,80.6 393.1,70.7 395,55.9 386.4,38.1 378.7,29.1 385,18.8 387.1,6.3 378.9,0 369.4,0 
			355.5,3.6 343.9,2.9 328.1,6.6 312.1,4.5 304.2,6.6 294.7,5.9 259.9,8.4 240.7,5 205.6,6.8 160.4,8.2 145.5,0 136.7,3.8 
			130.2,2.3 44.2,4.8 29.5,0 13.3,4.1 12.9,10.2 10.7,17.1 		"/>
		<line class="st5" x1="51.3" y1="259.2" x2="51.3" y2="29.3"/>
		<line class="st6" x1="69.8" y1="258.7" x2="69.8" y2="29.3"/>
		<line class="st5" x1="108.9" y1="260.8" x2="108.9" y2="29.3"/>
	</g>
</g>
<g id="Layer_4">
	<path class="st4" d="M313.5,6.4h15.6c4.3-0.4,8.5-1,12.7-1.8c3.4-0.9,16.9-4,16.9-4h5.6l5.2,1.2l-1.9,3l2.7,3.9l4.1,4v2l-1.7,3.7
		l1.7,2.9l-1.1,2l6.7,2.8l2.1,5.1l4.2,1.9v3.4l-3.9,7.9l-1,6.9l0.6,4l-3.6,3l-0.5,8.2l-3.7,3.3v2.6l2.3,4.5l-1.6,6.1l-1.8,2.2h3.7
		l5.1,4.4l-0.5,2.3l3.6,4.7l-2.2,2.7l-2.1,3.2l2.1,5.8l-2.1,3.7l0.5,3.7l-3.9,6.5l3.3,1.7l-1.7,4.6l3.6,2.6l-2.1,4.3l-1.5,2.2
		l5.9,4.6v4.8l4.7,4.8l-3,5.3l3,8.2l4.2,4.3l-2.7,2.9l-2.7,7.7l0.9,4.8l-1.2,2.4l-1.5,4.2l-2.7,2.6l3.3,5.1l-3.9,5l-1.2,8.9
		l-2.4,2.7l1.5,3.4l-1.7,4.2l2.7,3.1l-1.5,3.6l-1.7,2.9l5.3,6.5l-1.5,5.8l2.1,5.5l-1.5,3.4v3.1l-21.6,3.8h-19.6l-7.4-1.9l-6.2,1.9
		h-9.5l-18.1-1.2l-18.9,4.3l-41.5-2.4h-29.3l-40.6-2.9l-92.1-4.6L39.9,251l-3.2-9.2l4.6-9l0.6-12.2v-9l6.3-4.8l-3.4-1.4v-3.9l-1-6.1
		l0.7-3.1l-4.1-3.6v-5.3l-3.7-3.9l-6.7-4.7v-7.3l-6.5-8.4L11.8,148l1.7-7.8l-4.1-2.8v-5.1l-3.1-2.8L0,123.1l3.4-4.6l3.8-3.4
		l-1.9-5.1l1.7-3.8l0.2-5.5l3.3-3.5L7,92.2l2.5-6.3l0.5-2.6l-4.1-8.7l-3.4-4.3l1-6l-0.2-5l3-5L9,49.8l0.8-8.2l3.6-4l-0.2-6.2
		l3.8-4.8V21l-1.2-7l5.3-0.7l4.5-2.1l16.9,0.4l45,3.7l124.3-3.4l65.5-1.4L313.5,6.4z"/>
	<line class="st6" x1="341.8" y1="4.6" x2="341.8" y2="261"/>
</g>
</svg>
