<?xml version="1.0" encoding="utf-8"?>
<!-- Generator: Adobe Illustrator 25.4.1, SVG Export Plug-In . SVG Version: 6.00 Build 0)  -->
<svg version="1.1" id="Layer_1" xmlns="http://www.w3.org/2000/svg" xmlns:xlink="http://www.w3.org/1999/xlink" x="0px" y="0px"
	 viewBox="0 0 395 264.8" style="enable-background:new 0 0 395 264.8;" xml:space="preserve">
<style type="text/css">
	.st0{fill:#FFFFFF;stroke:#000000;}
	.st1{display:none;}
	.st2{display:inline;}
	.st3{fill:none;stroke:#000000;stroke-miterlimit:10;}
	.st4{fill:none;stroke:#000000;stroke-width:0.5;stroke-miterlimit:10;}
</style>
<g id="Layer_3">
	<polygon class="st0" points="28,42.8 35.7,25 43.5,21.2 52.3,13.1 55.6,16 58.5,16 61.8,21.4 69.2,16.2 76.1,16.6 86.9,22.2 
		96.9,16.6 101.6,22.2 109,18.3 114.6,24.4 121.5,23.1 130.6,25.2 137.5,21.4 144.9,21.4 149.2,23.5 149.2,18.8 162.1,22.2 
		167.9,17 175.4,17 176.1,13.1 180.8,14.5 192.8,9.2 200.8,0 206.8,6.7 211.3,4.5 220.5,6.5 222.3,11.7 227,8 236,6.7 238.5,10.2 
		244.2,10 247.5,11.7 253.5,9 256.5,6.2 261.2,10 265.2,6.2 270.7,8 278.2,9.2 284.1,3.7 287.6,0 292.6,1.5 297.9,1.5 301.6,3.5 
		304.1,6.7 308.9,5 313.6,11 319.3,8.5 324.1,9 330.1,6 336.8,5 341,3.5 342,0 348.5,2 353,1.2 356.8,3.5 360.5,5.5 366.3,4 
		371,5.5 378,4.2 381.7,6 387,5 389.5,5.2 395,7.2 395,251.5 386.1,258.8 379.3,254.1 375.5,256.4 371.7,252.9 366.3,256.7 
		360.2,258.8 347.6,252.9 344.1,256 336.9,253.3 328.8,255.2 325,258.8 320,251.4 312.8,251.4 308.6,254.1 304,252.1 296.7,256 
		293.3,258.8 289.8,255.2 284.5,255.6 278.3,252.1 272.2,261.7 262.7,257.1 253.1,253.7 248.1,256.7 242,259 237.8,254.1 
		232.4,251.4 228.6,253.3 221.7,250.2 215.6,247.2 211.5,247.6 208.7,252.1 200.3,254.1 195,249.5 188.5,251.4 180.8,254.4 
		178.1,259.8 170.1,261.7 165.5,257.9 159,260.2 151.4,264.8 143.3,264.8 135.7,261.7 124.2,261.3 112.7,256.7 108.9,257.5 
		104.3,257.1 99.3,259 95.5,258.3 88.2,256.4 79.8,257.9 74,257.5 67.3,260.6 60.9,256.6 58.2,253.5 57.1,252.1 55.6,252.1 
		54.1,250 46,247.7 42.9,252.6 35.3,255.5 31.3,252.8 28,255.5 26.7,258.4 24.5,257.7 21.3,256.8 17.8,258.6 14,255 9.8,251.7 
		4.4,247.4 0,229.4 0,221.4 2.2,218.1 1.6,214.1 0,210.1 0,206.3 1.1,195.2 2,187.9 3,171.6 5.6,163.2 5.4,156.9 8.8,150.8 
		8.8,133.3 5.6,120.8 8.4,103.2 9.4,95.4 10,89.8 11.4,82.1 14.6,76.3 16,68.9 20,67.5 23.1,62.1 27.1,58.7 24.6,48.1 26.3,45.6 	
		"/>
</g>
<g id="Layer_2_00000104675755048071555010000011716649673184344203_" class="st1">
	<g id="Layer_8" class="st2">
		<polygon class="st0" points="13.2,29.1 15.8,37.9 14.5,45.5 15.8,51.5 7.9,57.5 7.9,65.6 0,75.8 7.9,84.8 2.4,87.9 7.9,93.5 
			3.1,101.9 13.8,111 10,116.9 14.7,121.9 13.3,125.5 17.9,130.2 22.1,135.9 19.6,140.7 22.1,146.1 19.1,151.5 18.4,158.5 
			12.8,162.2 19.8,167.1 20.7,174.4 23,185.5 18.9,189.3 23,195.7 21,200.2 26.1,206.8 24,212.9 26.1,217.4 26.1,229.2 23.5,234 
			29.8,240.3 28.1,245.5 31.9,252.3 33.9,260 41.4,263.4 49.9,259.1 58.5,259.5 69.2,258.9 80.8,256.6 86.8,260 91.7,257.7 
			101.9,263.4 106.8,260.7 108.5,260.8 118.4,261.4 120.2,258 128.6,259.5 146,257.5 151.8,261.1 159,258 164.1,260.7 176.4,261.6 
			182.2,258 190.1,260.7 197.3,255.7 204.9,258.6 221.9,258.2 232.1,257.5 245.1,259.8 252.5,258.4 262.7,260.2 275,257.5 
			279.9,258.4 285.4,262.5 294,258.2 299.6,261.8 306.1,259.8 316.8,260.5 324.4,258.4 333.2,261.1 337.4,260.9 346,260.9 
			353.2,264.8 356,262 366,262.5 368.5,263.4 373.1,261.6 382,260.7 382,250.9 378.9,249.4 382,244.6 381,236.9 377.3,233.3 
			382,230.3 378.7,224.4 383.6,221.7 383.6,214.9 380.3,204.7 383.6,200.9 381,195.7 384.8,190.5 383.4,183 378.5,180.1 
			382.2,175.5 381,168.3 383.6,162.2 383.4,156.7 393.1,146.9 389.1,138.6 389.6,134.1 388,123.2 384.3,113.9 384.3,104.6 
			388.2,97.4 391.7,91.5 389.4,85.2 393.1,80.6 393.1,70.7 395,55.9 386.4,38.1 378.7,29.1 385,18.8 387.1,6.3 378.9,0 369.4,0 
			355.5,3.6 343.9,2.9 328.1,6.6 312.1,4.5 304.2,6.6 294.7,5.9 259.9,8.4 240.7,5 205.6,6.8 160.4,8.2 145.5,0 136.7,3.8 
			130.2,2.3 44.2,4.8 29.5,0 13.3,4.1 12.9,10.2 10.7,17.1 		"/>
		<line class="st3" x1="51.3" y1="259.2" x2="51.3" y2="29.3"/>
		<line class="st4" x1="69.8" y1="258.7" x2="69.8" y2="29.3"/>
		<line class="st3" x1="108.9" y1="260.8" x2="108.9" y2="29.3"/>
	</g>
</g>
</svg>
