<svg id="Layer_1" data-name="Layer 1" xmlns="http://www.w3.org/2000/svg" viewBox="0 0 394.7 264.6"><defs><style>.cls-1{fill:#fff;}</style></defs><g id="Layer_5" data-name="Layer 5"><polygon class="cls-1" points="10.36 16.4 10.36 27.3 10.36 35.6 6.47 41.8 1.49 64.1 5.88 76.9 1.49 87 1.49 104.8 1.49 112.1 1.49 126.1 1.49 143.3 3.79 156.1 3.19 170 3.39 180.6 0 192.4 2.99 204.4 0 217.4 1.1 240.6 0 251.1 0 256.8 3.59 262.7 7.77 260.2 12.85 264.6 18.53 262.1 22.91 264.6 22.91 262.7 28.39 263.6 34.67 259.4 37.76 261.2 37.86 261.1 39.85 261.1 49.11 243.8 57.08 250.9 66.75 254.3 73.52 260.6 78.3 258.3 84.78 256.8 86.67 258.1 95.74 252.8 98.63 252.2 101.61 253.5 103.91 256.2 113.17 251.1 118.35 251.1 123.83 254.3 129.51 254.1 138.37 248.6 144.45 246.5 146.94 250.3 146.94 255.6 153.62 260.2 157.6 256.4 162.68 259.6 169.66 258.9 177.82 251.8 182.61 245.5 185.99 247.4 188.48 251.6 188.48 254.9 193.96 252.8 198.35 257.7 203.63 253 208.21 250.7 214.49 243.6 222.25 246.9 228.13 250.5 233.81 254.9 239.29 256.2 248.06 248.4 253.94 245.9 261.11 249.7 263.8 254.5 268.08 255.4 270.17 259.4 272.07 261.6 275.55 261.6 280.73 261 286.51 255.2 292.99 253.9 306.63 262.1 317.69 258.7 331.74 262.1 343.1 256.5 348.28 251.7 355.35 250.3 367.6 252.3 377.76 252 385.44 246.7 386.03 234.9 389.42 216.9 394.7 206.3 386.53 192.2 388.82 183.8 383.24 173.7 388.82 166.4 394.7 153.5 387.73 110.8 393.01 101.3 390.62 93.2 384.94 89.5 388.82 81.1 393.31 71.1 393.11 12 393.01 3 264.1 3 260.11 5.5 249.35 3 242.48 4.7 237.4 4.7 232.81 3 228.13 3 224.15 5.1 217.27 5.5 212.39 8.9 204.82 9.9 202.93 8.7 200.44 6.6 195.46 6.6 190.18 3 182.41 0 176.53 2.6 173.84 7 170.05 7.8 166.07 10.8 159.79 10.8 156.6 7.6 149.63 8.7 143.35 11 142.36 13.1 138.77 12 134.09 14.8 131.6 19.6 127.22 19.8 124.23 19 120.94 19.2 112.57 19.8 108.99 18.3 107.09 13.3 103.51 11.2 99.32 12.7 92.35 16.2 90.26 13.1 84.38 17.5 83.38 24.9 78.1 18.1 75.81 12.9 72.23 15.6 65.05 11.8 59.67 9.3 52.9 15.6 47.92 13.3 43.63 13.5 35.66 13 34.77 13 34.67 11.6 32.38 10.1 29.79 10.8 26.7 11.6 22.71 9.1 20.62 13.1 15.74 17.3 10.36 16.4"/></g></svg>