<svg id="Layer_1" data-name="Layer 1" xmlns="http://www.w3.org/2000/svg" viewBox="0 0 190.45 231.25"><defs><style>.cls-1{fill:#fff;}.cls-2{fill:none;stroke:#bfbfbf;stroke-miterlimit:10;stroke-width:0.5px;}</style></defs><path class="cls-1" d="M53.85,91V81.81a60.32,60.32,0,0,0-1.32-7.48c-.66-2-2.86-9.9-2.86-9.9v-3.3l.88-3.08,2.2,1.1,2.8-1.6,2.87-2.39h1.43l2.68,1,2.1-1,1.43.67,2-3.92,3.72-1.24,1.34-2.48h2.48l5.73,2.29,5,.57,2.86-.38,2.2,2.1,5.92.29,2.39,2.2h1.91l3.24-1.34,4.4.95,1.62,1.05V53.73l3.15-3,1.63.28,3.43-2.1L121,50.19l2.3,1.25,4.2-1.25,2.67,1.25,2.68-.29,4.67,2.3,1.22-1.92,3.31,1,1.91-2.09,3.13,1.22,1.57.87,3.3-3.48h3.48l3.48-2.78,3.82,1.74,5.92-1.74,3.13-2.44,2.09,1.57L179.41,47l3.48-.52,1.74.7,3,.87,1.91,1.56,3.66-1.91L196.81,50l6.43.7,1.92,1.39,2.43-.87,3,1,2.26-1.56,2.61.86,2.09,1,4.69-3.13,4.18.87,4-1.22,2.43.87h2.27l2.78,12.7V74.15l-1.39,4.35,1.39,3.65v5.57L237,98.33l3.13,11.13-1.74,24.35V151l-2.09,23.83L233,228.93l-2.37,22.76-6.64,1.9-6.53-2.7-8.84-.38h-6.53l-3.46-3.7-1,2h-2.83l-4.44.61-2.22-.41-2.63,2.43h-3.84l-2.83,2.15-3.43,3.91h-5.25l-6.06,3.84-7.88,6.87-5.66-1-2,2.42H144.9l-2.05,1.82-4.66,3.69-3.3-2-2.43-2.23L128.77,272,126.05,271l-4-.09L119.55,269l-3.69,2-4.56-1.46-1.85-.29-6.31,2.43L100,273.67l-4.37-.58-3.59.1-3.59-1.75-3.21-1.56-5.92-.48-2.91-2.14-4.47.1-3.49-2.23H64.4l-5.05.68-.49-3.11-1.55-2.62.29-9.91,2.66-26.44-2.49-73-1-38.48Z" transform="translate(-49.67 -43.88)"/><line class="cls-2" x1="2.86" y1="30.45" x2="188.19" y2="30.45"/></svg>