<?xml version="1.0" encoding="utf-8"?>
<!-- Generator: Adobe Illustrator 25.3.1, SVG Export Plug-In . SVG Version: 6.00 Build 0)  -->
<svg version="1.1" xmlns="http://www.w3.org/2000/svg" xmlns:xlink="http://www.w3.org/1999/xlink" x="0px" y="0px"
	 viewBox="0 0 500 300" style="enable-background:new 0 0 500 300;" xml:space="preserve">
<style type="text/css">
	.st0{display:none;}
	.st1{display:inline;fill:#FFFFFF;}
	.st2{display:inline;fill:none;stroke:#BFBFBF;stroke-width:0.5;stroke-miterlimit:10;}
	.st3{display:inline;fill:none;stroke:#BFBFBF;stroke-miterlimit:10;}
	.st4{display:inline;fill:none;stroke:#BFBFBF;stroke-width:0.3;stroke-miterlimit:10;}
	.st5{display:inline;}
	.st6{display:inline;fill:none;stroke:#090000;stroke-miterlimit:10;}
	.st7{display:inline;fill:none;stroke:#000000;stroke-width:0.5;stroke-miterlimit:10;}
	.st8{display:inline;fill:none;stroke:#000000;stroke-miterlimit:10;}
	.st9{fill:#FFFFFF;}
	.st10{fill:none;stroke:#000000;stroke-miterlimit:10;}
	.st11{fill:none;stroke:#000000;stroke-width:0.5;stroke-miterlimit:10;}
</style>
<g id="Layer_1" class="st0">
	<path class="st1" d="M53.85,91.04v-9.24c0,0-0.66-5.5-1.32-7.48s-2.86-9.9-2.86-9.9v-3.3l0.88-3.08l2.2,1.1l2.8-1.61l2.87-2.39
		h1.43l2.67,0.96l2.1-0.96l1.43,0.67l2.01-3.92l3.72-1.24l1.34-2.48h2.48l5.73,2.29l4.97,0.57l2.87-0.38l2.2,2.1l5.92,0.29l2.39,2.2
		h1.91l3.25-1.34l4.39,0.96l1.62,1.05v-2.2l3.15-2.96l1.62,0.29l3.44-2.1l1.91,1.24l2.29,1.24l4.2-1.24l2.67,1.24l2.67-0.29
		l4.68,2.3l1.22-1.91l3.3,1.04l1.91-2.09l3.13,1.22l1.57,0.87l3.3-3.48h3.48l3.48-2.78l3.83,1.74l5.91-1.74l3.13-2.44l2.09,1.57
		l5.57,1.57l3.48-0.52l1.74,0.7l2.96,0.87l1.91,1.57l3.65-1.91l3.65,2.26l6.44,0.7l1.91,1.39l2.44-0.87l2.96,1.04l2.26-1.57
		l2.61,0.87l2.09,1.04l4.7-3.13l4.17,0.87l4-1.22l2.44,0.87h2.26l2.78,12.7v11.48l-1.39,4.35l1.39,3.65v5.57l-0.87,10.61l3.13,11.13
		l-1.74,24.35v17.22l-2.09,23.83l-3.32,54.06l-2.37,22.76l-6.64,1.9l-6.53-2.69l-8.84-0.38h-6.53l-3.46-3.7l-1,2h-2.83l-4.44,0.61
		l-2.22-0.4l-2.63,2.42h-3.84l-2.83,2.15l-3.43,3.91h-3.23h-2.02l-6.06,3.84l-7.88,6.87l-5.66-1.01l-2.02,2.42h-3.61l-2.04,1.82
		l-4.66,3.69l-3.3-2.04l-2.43-2.23l-3.69,1.17l-2.72-1.07l-3.98-0.1l-2.52-1.84l-3.69,2.04l-4.56-1.46l-1.84-0.29l-6.31,2.43
		l-3.11,1.94l-4.37-0.58l-3.59,0.1l-3.59-1.75l-3.2-1.55l-5.92-0.49l-2.91-2.14l-4.47,0.1l-3.5-2.23H64.4l-5.05,0.68l-0.49-3.11
		l-1.55-2.62l0.29-9.9l2.66-26.45l-2.5-72.96l-1-38.48L53.85,91.04z"/>
	<line class="st2" x1="52.53" y1="74.33" x2="237.86" y2="74.33"/>
</g>
<g id="Layer_2" class="st0">
	<polygon class="st1" points="173.66,233.43 175.98,218.8 175.98,201.52 174.82,192.54 175.98,187.89 174.82,183.57 175.98,179.58 
		173.66,166.29 173.66,160.97 170,150.66 167.28,145.47 167.28,136.48 167.28,132.31 165.36,128.78 166.48,121.72 165.36,105.84 
		166.48,95.57 165.36,88.35 167.12,84.98 171.94,86.67 173.22,88.11 178.52,88.75 181.4,91.48 183.49,92.28 186.22,90.84 
		188.78,92.12 190.55,92.76 192.15,91.16 193.92,92.76 197.77,88.59 201.78,95.81 206.91,100.95 210.28,96.61 214.62,96.61 
		217.5,94.69 221.03,92.28 222.64,93.89 224.56,94.69 226.49,91.32 229.06,92.12 231.78,89.55 234.19,90.04 237.4,86.02 
		240.45,91.48 241.89,90.36 243.82,94.85 247.99,97.42 251.2,95.65 254.41,95.17 257.62,91.96 257.62,88.75 260.83,84.98 
		264.19,87.63 267.4,87.63 270.61,89.39 277.03,89.71 278.96,90.84 281.68,90.52 282.81,88.59 286.66,90.52 288.26,91.48 
		290.19,93.57 295.16,88.59 299.33,89.39 301.1,91.64 304.95,91.16 308,89.39 313.45,84.98 316.34,85.7 320.19,83.3 325.65,84.74 
		327.57,84.58 329.98,83.3 334.95,86.02 337.68,88.91 341.69,85.22 346.02,85.22 347.79,83.3 353.56,82.38 358.54,84.1 
		360.46,81.21 363.67,78.48 366.97,81.37 374.58,80.25 378.59,80.89 384.21,78.48 387.58,80.73 392.23,83.78 395.28,83.78 
		400.57,79.77 405.55,79.93 412.77,76.44 417.06,74.54 418.33,76.44 421.98,76.13 428.01,77.87 431.34,77.08 435,80.25 
		436.42,78.98 438.17,83.11 438.17,88.82 437.22,92.32 440.71,101.84 438.8,106.76 439.76,121.68 440.71,125.49 440.71,128.19 
		442.14,134.54 441.19,138.83 442.14,145.97 440.87,150.89 440.55,156.29 440.23,169.3 438.01,173.75 435.92,196.5 442.14,215.33 
		443.45,224.88 444.46,233.43 437.68,233.43 432.65,238.44 419.09,233.92 409.3,235.93 399.75,238.44 392.22,233.42 387.44,226.89 
		381.42,228.65 374.89,228.4 370.62,232.67 363.83,233.42 357.05,229.4 350.52,235.18 345.5,238.44 341.48,237.19 336.21,238.44 
		326.41,237.19 324.65,234.17 319.38,230.66 312.6,233.67 309.33,238.44 303.55,234.93 298.53,237.19 289.99,236.68 285.97,238.44 
		282.71,233.42 279.94,235.43 274.17,235.43 270.15,236.68 265.88,234.42 260.6,238.44 256.08,237.44 254.32,240.95 250.3,239.45 
		246.03,239.2 241.77,237.69 238.75,242.71 231.22,237.94 227.95,240.2 225.44,239.7 221.17,244.47 214.64,240.7 210.12,239.2 
		208.36,242.71 202.83,244.47 200.07,242.71 196.3,242.21 190.28,244.47 187.26,240.45 182.24,240.45 177.97,236.43 	"/>
	<line class="st3" x1="175.94" y1="111.86" x2="439.12" y2="110.27"/>
	<line class="st4" x1="177.06" y1="123.6" x2="440.24" y2="122"/>
	<line class="st3" x1="180.26" y1="225.66" x2="443.44" y2="224.07"/>
</g>
<g id="Layer_3" class="st0">
	<polygon class="st1" points="80.52,62.69 88.25,44.91 95.99,41.04 104.86,33.01 108.16,35.86 111,35.86 114.37,41.23 121.72,36.04 
		128.64,36.47 139.45,42.09 149.39,36.47 154.15,42.09 161.5,38.2 167.12,44.25 174.03,42.96 183.11,45.12 190.03,41.23 
		197.38,41.23 201.71,43.39 201.71,38.63 214.68,42.09 220.38,36.84 227.87,36.84 228.62,33.01 233.36,34.34 245.34,29.1 
		253.32,19.87 259.31,26.61 263.8,24.36 273.04,26.36 274.78,31.6 279.53,27.85 288.51,26.61 291.01,30.1 296.75,29.85 299.99,31.6 
		305.98,28.85 308.97,26.11 313.72,29.85 317.71,26.11 323.2,27.85 330.69,29.1 336.67,23.61 340.17,19.87 345.16,21.36 
		350.4,21.36 354.14,23.36 356.64,26.61 361.38,24.86 366.12,30.85 371.86,28.35 376.6,28.85 382.59,25.86 389.33,24.86 
		393.57,23.36 394.57,19.87 401.06,21.86 405.55,21.12 409.3,23.36 413.04,25.36 418.78,23.86 423.52,25.36 430.51,24.11 
		434.25,25.86 439.49,24.86 441.99,25.11 447.48,27.1 447.48,271.34 438.58,278.63 431.84,273.92 428.02,276.21 424.19,272.77 
		418.84,276.59 412.72,278.63 400.09,272.77 396.65,275.83 389.38,273.15 381.35,275.06 377.53,278.63 372.56,271.24 365.29,271.24 
		361.08,273.92 356.49,272 349.22,275.83 345.78,278.63 342.34,275.06 336.98,275.45 330.86,272 324.74,281.57 315.18,276.98 
		305.62,273.53 300.65,276.59 294.53,278.89 290.32,273.92 284.97,271.24 281.14,273.15 274.26,270.09 268.14,267.03 264,267.41 
		261.25,272 252.84,273.92 247.48,269.33 240.98,271.24 233.33,274.3 230.65,279.65 222.62,281.57 218.03,277.74 211.56,280.04 
		203.88,284.63 195.85,284.63 188.2,281.57 176.72,281.18 165.25,276.59 161.42,277.36 156.83,276.98 151.86,278.89 148.04,278.12 
		140.77,276.21 132.32,277.77 126.54,277.32 119.88,280.44 113.43,276.43 110.74,273.33 109.59,271.95 108.12,271.95 106.59,269.9 
		98.54,267.54 95.42,272.43 87.87,275.32 83.86,272.66 80.52,275.32 79.2,278.21 76.97,277.55 73.86,276.66 70.31,278.43 
		66.53,274.88 62.3,271.54 56.97,267.32 52.52,249.32 52.52,241.31 54.74,237.98 54.08,233.98 52.52,229.98 52.52,226.2 
		53.63,215.08 54.52,207.75 55.51,191.51 58.08,183.1 57.97,176.78 61.33,170.67 61.36,153.16 58.08,140.62 60.87,123.08 
		61.89,115.22 62.54,109.62 63.96,101.92 67.1,96.22 68.53,88.81 72.52,87.38 75.65,81.96 79.65,78.54 77.08,67.99 78.79,65.43 	"/>
	<g class="st5">
		<path d="M86.31,62.71v-0.43c0.96-0.09,1.06-0.17,1.06-1.2v-3.13c0-0.94-0.05-1-0.96-1.16v-0.36c0.79-0.14,1.5-0.33,2.16-0.61
			c0,0.64,0,1.28,0,1.92v3.34c0,1.03,0.11,1.11,1.09,1.2v0.43H86.31z M87.89,54.34c-0.43,0-0.81-0.38-0.81-0.81
			c0-0.49,0.38-0.84,0.82-0.84c0.43,0,0.77,0.35,0.77,0.84C88.68,53.96,88.33,54.34,87.89,54.34z"/>
		<path d="M94.81,62.71v-0.43c0.88-0.09,0.97-0.2,0.97-1.23v-2.51c0-1.06-0.38-1.78-1.38-1.78c-0.62,0-1.22,0.36-1.69,0.79v3.56
			c0,1.05,0.09,1.08,0.99,1.17v0.43h-3.28v-0.43c1-0.11,1.09-0.17,1.09-1.17v-3.13c0-0.99-0.11-1.03-0.93-1.17v-0.39
			c0.74-0.12,1.49-0.32,2.13-0.61c0,0.35,0,0.84,0,1.2c0.3-0.21,0.64-0.44,1.03-0.7c0.43-0.27,0.82-0.46,1.26-0.46
			c1.22,0,1.98,0.9,1.98,2.37v2.89c0,1.03,0.09,1.08,0.97,1.17v0.43H94.81z"/>
		<path d="M82.22,91.4c-0.26,0.14-0.5,0.2-0.65,0.2c-0.97,0-1.49-0.59-1.49-1.81v-4.42h-1.05l-0.06-0.18l0.41-0.44h0.7v-1.28
			c0.29-0.3,0.73-0.7,1.02-1l0.23,0.03c-0.03,0.64-0.05,1.52-0.05,2.25h1.73c0.14,0.15,0.09,0.49-0.09,0.62h-1.64v3.89
			c0,1.23,0.49,1.46,0.88,1.46c0.36,0,0.71-0.14,0.93-0.24l0.14,0.39L82.22,91.4z"/>
		<path d="M88.04,91.42v-0.43c0.88-0.09,1-0.17,1-1.17v-2.49c0-1.26-0.49-1.9-1.5-1.89c-0.58,0-1.19,0.29-1.61,0.79v3.59
			c0,0.99,0.12,1.08,1.03,1.17v0.43h-3.31v-0.43c0.88-0.08,1.08-0.15,1.08-1.17v-7.33c0-0.81-0.05-1-1.06-1.09V81
			c0.81-0.08,1.72-0.3,2.27-0.52c0,0.59,0,1.26,0,1.88v3.3c0.55-0.55,1.38-1.11,2.2-1.11c1.25,0,2.11,0.78,2.11,2.6v2.68
			c0,1,0.12,1.08,1,1.16v0.43H88.04z"/>
		<path d="M97.63,90.12c-0.97,1.22-2.04,1.47-2.52,1.47c-1.85,0-2.98-1.52-2.98-3.27c0-1.03,0.36-1.99,0.99-2.66
			c0.64-0.71,1.47-1.11,2.27-1.11c1.32,0,2.33,1.14,2.33,2.36c-0.02,0.3-0.06,0.44-0.3,0.5c-0.3,0.06-2.25,0.2-4.06,0.26
			c-0.05,2.04,1.2,2.87,2.28,2.87c0.62,0,1.2-0.26,1.76-0.77L97.63,90.12z M95.02,85.14c-0.7,0-1.38,0.65-1.6,1.88
			c0.85,0,1.7,0,2.6-0.05c0.27,0,0.36-0.08,0.36-0.3C96.4,85.87,95.87,85.14,95.02,85.14z"/>
		<path d="M71.65,99.5c-0.78,0.12-0.91,0.29-1.23,1.14c-0.44,1.17-1.17,3.28-1.82,5.29h-0.47c-0.61-1.63-1.23-3.21-1.82-4.77
			c-0.56,1.4-1.25,3.09-1.85,4.77h-0.46c-0.16-0.52-0.32-1.04-0.48-1.56l0.44-2.45c0.22,0.7,0.45,1.4,0.66,2.06
			c0.61-1.55,1.22-3.13,1.81-4.82h0.41c0.56,1.58,1.19,3.22,1.82,4.86c0.33-0.93,0.82-2.42,1.11-3.53c0.2-0.79,0.08-0.87-0.96-1
			v-0.41h2.84V99.5z"/>
		<path d="M76.98,105.95c-0.23,0-0.56-0.12-0.71-0.29c-0.2-0.2-0.29-0.41-0.36-0.68c-0.61,0.41-1.35,0.97-1.82,0.97
			c-1.08,0-1.85-0.9-1.85-1.87c0-0.74,0.41-1.23,1.25-1.52c0.93-0.32,2.07-0.71,2.4-0.99v-0.3c0-1.08-0.55-1.7-1.34-1.7
			c-0.35,0-0.56,0.17-0.71,0.35c-0.17,0.21-0.27,0.55-0.41,0.99c-0.08,0.24-0.21,0.35-0.44,0.35c-0.29,0-0.67-0.3-0.67-0.67
			c0-0.21,0.2-0.4,0.5-0.61c0.44-0.32,1.32-0.88,2.19-1.06c0.46,0,0.93,0.14,1.28,0.41c0.53,0.46,0.77,0.97,0.77,1.76v2.93
			c0,0.7,0.26,0.91,0.53,0.91c0.18,0,0.38-0.08,0.55-0.17l0.15,0.43L76.98,105.95z M75.87,102.1c-0.33,0.17-1.06,0.49-1.41,0.64
			c-0.58,0.26-0.93,0.55-0.93,1.11c0,0.81,0.61,1.17,1.09,1.17c0.4,0,0.94-0.24,1.25-0.55C75.87,103.76,75.87,102.82,75.87,102.1z"
			/>
		<path d="M82.76,100.9c-0.27-0.88-0.67-1.49-1.6-1.49c-0.53,0-0.94,0.38-0.94,0.99c0,0.65,0.44,0.96,1.29,1.35
			c1.31,0.62,1.96,1.08,1.96,2.08c0,1.4-1.28,2.11-2.48,2.11c-0.79,0-1.49-0.24-1.81-0.43c-0.08-0.44-0.21-1.28-0.27-1.78l0.44-0.08
			c0.27,0.97,0.81,1.76,1.87,1.76c0.58,0,1.06-0.4,1.06-1.03c0-0.68-0.41-1.03-1.22-1.43c-1.06-0.52-1.93-1-1.93-2.1
			c0-1.11,0.94-1.96,2.37-1.96c0.64,0,1.16,0.15,1.46,0.2c0.05,0.36,0.15,1.32,0.23,1.69L82.76,100.9z"/>
		<path d="M96.42,105.95c-0.23,0-0.56-0.12-0.71-0.29c-0.2-0.2-0.29-0.41-0.36-0.68c-0.61,0.41-1.35,0.97-1.82,0.97
			c-1.08,0-1.85-0.9-1.85-1.87c0-0.74,0.41-1.23,1.25-1.52c0.93-0.32,2.07-0.71,2.4-0.99v-0.3c0-1.08-0.55-1.7-1.34-1.7
			c-0.35,0-0.56,0.17-0.71,0.35c-0.17,0.21-0.27,0.55-0.41,0.99c-0.08,0.24-0.21,0.35-0.44,0.35c-0.29,0-0.67-0.3-0.67-0.67
			c0-0.21,0.2-0.4,0.5-0.61c0.44-0.32,1.32-0.88,2.19-1.06c0.46,0,0.93,0.14,1.28,0.41c0.53,0.46,0.77,0.97,0.77,1.76v2.93
			c0,0.7,0.26,0.91,0.53,0.91c0.18,0,0.38-0.08,0.55-0.17l0.15,0.43L96.42,105.95z M95.31,102.1c-0.33,0.17-1.06,0.49-1.41,0.64
			c-0.58,0.26-0.93,0.55-0.93,1.11c0,0.81,0.61,1.17,1.09,1.17c0.4,0,0.94-0.24,1.25-0.55C95.31,103.76,95.31,102.82,95.31,102.1z"
			/>
		<path d="M65.51,115.25c-0.27-0.88-0.67-1.49-1.6-1.49c-0.53,0-0.94,0.38-0.94,0.99c0,0.65,0.44,0.96,1.29,1.35
			c1.31,0.62,1.96,1.08,1.96,2.08c0,1.4-1.28,2.11-2.48,2.11c-0.79,0-1.49-0.24-1.81-0.43c-0.08-0.44-0.21-1.28-0.27-1.78l0.44-0.08
			c0.27,0.97,0.81,1.76,1.87,1.76c0.58,0,1.06-0.4,1.06-1.03c0-0.68-0.41-1.03-1.22-1.43c-1.06-0.52-1.93-1-1.93-2.1
			c0-1.11,0.94-1.96,2.37-1.96c0.64,0,1.16,0.15,1.46,0.2c0.05,0.36,0.15,1.32,0.23,1.69L65.51,115.25z"/>
		<path d="M72.17,120.3c-0.23,0-0.56-0.12-0.71-0.29c-0.2-0.2-0.29-0.41-0.36-0.68c-0.61,0.41-1.35,0.97-1.82,0.97
			c-1.08,0-1.85-0.9-1.85-1.87c0-0.74,0.41-1.23,1.25-1.52c0.93-0.32,2.07-0.71,2.4-0.99v-0.3c0-1.08-0.55-1.7-1.34-1.7
			c-0.35,0-0.56,0.17-0.71,0.35c-0.17,0.21-0.27,0.55-0.41,0.99c-0.08,0.24-0.21,0.35-0.44,0.35c-0.29,0-0.67-0.3-0.67-0.67
			c0-0.21,0.2-0.4,0.5-0.61c0.44-0.32,1.32-0.88,2.19-1.06c0.46,0,0.93,0.14,1.28,0.41c0.53,0.46,0.77,0.97,0.77,1.76v2.93
			c0,0.7,0.26,0.91,0.53,0.91c0.18,0,0.38-0.08,0.55-0.17l0.15,0.43L72.17,120.3z M71.06,116.46c-0.33,0.17-1.06,0.49-1.41,0.64
			c-0.58,0.26-0.93,0.55-0.93,1.11c0,0.81,0.61,1.17,1.09,1.17c0.4,0,0.94-0.24,1.25-0.55C71.06,118.11,71.06,117.17,71.06,116.46z"
			/>
		<path d="M76.92,120.1c-0.26,0.14-0.5,0.2-0.65,0.2c-0.97,0-1.49-0.59-1.49-1.81v-4.42h-1.05l-0.06-0.18l0.41-0.44h0.7v-1.28
			c0.29-0.3,0.73-0.7,1.02-1l0.23,0.03c-0.03,0.64-0.05,1.52-0.05,2.25h1.73c0.14,0.15,0.09,0.49-0.09,0.62h-1.64v3.89
			c0,1.23,0.49,1.46,0.88,1.46c0.36,0,0.71-0.14,0.93-0.24l0.14,0.39L76.92,120.1z"/>
		<path d="M78.55,120.12v-0.43c0.96-0.09,1.06-0.17,1.06-1.2v-3.13c0-0.94-0.05-1-0.96-1.15v-0.36c0.79-0.14,1.5-0.33,2.16-0.61
			c0,0.64,0,1.28,0,1.92v3.34c0,1.03,0.11,1.11,1.09,1.2v0.43H78.55z M80.13,111.74c-0.43,0-0.81-0.38-0.81-0.81
			c0-0.49,0.38-0.84,0.82-0.84c0.43,0,0.78,0.35,0.78,0.84C80.92,111.36,80.57,111.74,80.13,111.74z"/>
		<path d="M86.07,113.26c1.9,0,3.31,1.44,3.31,3.4c0,2.46-1.82,3.63-3.31,3.63c-2.1,0-3.37-1.69-3.37-3.39
			C82.69,114.43,84.62,113.26,86.07,113.26z M85.89,113.78c-0.93,0-1.76,0.9-1.76,2.66c0,1.93,0.85,3.33,2.1,3.33
			c0.94,0,1.73-0.68,1.73-2.77C87.95,115.22,87.22,113.78,85.89,113.78z"/>
		<path d="M94.73,120.12v-0.43c0.88-0.09,0.97-0.2,0.97-1.23v-2.51c0-1.06-0.38-1.78-1.38-1.78c-0.62,0-1.22,0.36-1.69,0.79v3.56
			c0,1.05,0.09,1.08,0.99,1.17v0.43h-3.28v-0.43c1-0.11,1.09-0.17,1.09-1.17v-3.13c0-0.99-0.11-1.03-0.93-1.17v-0.39
			c0.74-0.12,1.49-0.32,2.13-0.61c0,0.35,0,0.84,0,1.2c0.3-0.21,0.64-0.44,1.03-0.7c0.43-0.27,0.82-0.46,1.26-0.46
			c1.22,0,1.98,0.9,1.98,2.37v2.89c0,1.03,0.09,1.08,0.97,1.17v0.43H94.73z"/>
		<path d="M62.36,134.47v-0.43c0.88-0.09,0.97-0.2,0.97-1.23v-2.51c0-1.06-0.38-1.78-1.38-1.78c-0.62,0-1.22,0.36-1.69,0.79v3.56
			c0,1.05,0.09,1.08,0.99,1.17v0.43h-2.2l1.09-6.85c0.04-0.02,0.08-0.04,0.12-0.05c0,0.35,0,0.84,0,1.2c0.3-0.21,0.64-0.44,1.03-0.7
			c0.43-0.27,0.82-0.46,1.26-0.46c1.22,0,1.98,0.9,1.98,2.37v2.89c0,1.03,0.09,1.08,0.97,1.17v0.43H62.36z"/>
		<path d="M68.41,132.25c-0.36,0.29-0.5,0.58-0.5,0.76c0,0.27,0.26,0.58,0.94,0.58c0.56,0,1.2-0.02,1.7-0.02
			c0.97,0,2.22,0.32,2.22,1.82c0,1.58-1.87,3.07-3.89,3.07c-1.72,0-2.64-1-2.68-1.9c0-0.33,0.14-0.62,0.38-0.87
			c0.3-0.32,0.9-0.82,1.25-1.09c-0.55-0.15-0.94-0.5-1.14-0.82c-0.14-0.23-0.18-0.5-0.18-0.65c0.58-0.21,1.09-0.64,1.4-1.05
			L68.41,132.25z M69.14,132.4c-1.41,0-2.58-0.87-2.58-2.3c0-1.73,1.55-2.54,2.74-2.54c0.5,0,1,0.14,1.46,0.38
			c0.7,0,1.61-0.12,2.04-0.23l0.09,0.14c-0.09,0.24-0.33,0.67-0.56,0.81c-0.23,0-0.73-0.06-0.94-0.08c0.26,0.35,0.44,0.84,0.44,1.38
			C71.82,131.63,70.45,132.4,69.14,132.4z M69.49,134.65c-0.74,0-1.08,0.09-1.35,0.32c-0.43,0.35-0.73,0.81-0.73,1.25
			c0,0.84,0.87,1.46,2.04,1.46c1.44,0,2.26-0.74,2.26-1.72c0-0.52-0.24-0.93-0.67-1.11C70.66,134.68,70.13,134.65,69.49,134.65z
			 M69.14,128.06c-0.68,0-1.29,0.62-1.29,1.82s0.61,2.04,1.44,2.04c0.67-0.03,1.26-0.59,1.26-1.82
			C70.55,128.91,69.99,128.06,69.14,128.06z"/>
		<path d="M87.04,128.21c-0.78,0.12-0.91,0.29-1.23,1.14c-0.44,1.17-1.17,3.28-1.82,5.29h-0.47c-0.61-1.63-1.23-3.21-1.82-4.77
			c-0.56,1.4-1.25,3.09-1.85,4.77h-0.46c-0.55-1.81-1.12-3.6-1.75-5.43c-0.27-0.82-0.41-0.91-1.16-1v-0.41h3.16v0.41
			c-0.91,0.15-0.97,0.23-0.76,0.93c0.35,1.17,0.76,2.42,1.12,3.56c0.61-1.55,1.22-3.13,1.81-4.82h0.41
			c0.56,1.58,1.19,3.22,1.82,4.86c0.33-0.93,0.82-2.42,1.11-3.53c0.2-0.79,0.08-0.87-0.96-1v-0.41h2.84V128.21z"/>
		<path d="M92.38,134.65c-0.23,0-0.56-0.12-0.71-0.29c-0.2-0.2-0.29-0.41-0.36-0.68c-0.61,0.41-1.35,0.97-1.82,0.97
			c-1.08,0-1.85-0.9-1.85-1.87c0-0.74,0.41-1.23,1.25-1.52c0.93-0.32,2.07-0.71,2.4-0.99v-0.3c0-1.08-0.55-1.7-1.34-1.7
			c-0.35,0-0.56,0.17-0.71,0.35c-0.17,0.21-0.27,0.55-0.41,0.99c-0.08,0.24-0.21,0.35-0.44,0.35c-0.29,0-0.67-0.3-0.67-0.67
			c0-0.21,0.2-0.4,0.5-0.61c0.44-0.32,1.32-0.88,2.19-1.06c0.46,0,0.93,0.14,1.28,0.41c0.53,0.46,0.77,0.97,0.77,1.76v2.93
			c0,0.7,0.26,0.91,0.53,0.91c0.18,0,0.38-0.08,0.55-0.17l0.15,0.43L92.38,134.65z M91.27,130.81c-0.33,0.17-1.06,0.49-1.41,0.64
			c-0.58,0.26-0.93,0.55-0.93,1.11c0,0.81,0.61,1.17,1.09,1.17c0.4,0,0.94-0.24,1.25-0.55C91.27,132.46,91.27,131.52,91.27,130.81z"
			/>
		<path d="M98.15,129.61c-0.27-0.88-0.67-1.49-1.6-1.49c-0.53,0-0.94,0.38-0.94,0.99c0,0.65,0.44,0.96,1.29,1.35
			c1.31,0.62,1.96,1.08,1.96,2.08c0,1.4-1.28,2.11-2.48,2.11c-0.79,0-1.49-0.24-1.81-0.43c-0.08-0.44-0.21-1.28-0.27-1.78l0.44-0.08
			c0.27,0.97,0.81,1.76,1.87,1.76c0.58,0,1.06-0.4,1.06-1.03c0-0.68-0.41-1.03-1.22-1.43c-1.06-0.52-1.93-1-1.93-2.1
			c0-1.11,0.94-1.96,2.37-1.96c0.64,0,1.15,0.15,1.46,0.2c0.05,0.36,0.15,1.32,0.23,1.69L98.15,129.61z"/>
		<path d="M68.93,163.17c-0.82,0-1.72,0.02-2.04,0.03c-0.09-0.11-2.48-2.93-2.57-3.02c-0.21-0.24-0.3-0.32-0.44-0.32
			c-0.06,0-0.18,0-0.27,0.03v1.69c0,1.02,0.08,1.08,1.06,1.17v0.43h-3.36v-0.43c1.02-0.09,1.09-0.2,1.09-1.17v-7.27
			c0-0.99-0.11-1.02-1.05-1.16v-0.39c0.79-0.08,1.7-0.3,2.25-0.52c0,0.65,0,1.28,0,1.93v5.32c0.46-0.11,0.74-0.29,0.97-0.53
			c0.35-0.35,0.91-1.03,1.17-1.41c0.32-0.44,0.2-0.56-0.53-0.62v-0.43l3.13-0.14v0.41c-1.06,0.17-1.37,0.29-2.02,0.97
			c-0.29,0.3-0.97,1.08-1.29,1.47c0.3,0.43,1.85,2.19,2.36,2.72c0.73,0.73,0.94,0.78,1.54,0.81V163.17z"/>
		<path d="M74.63,161.88c-0.97,1.22-2.04,1.47-2.52,1.47c-1.85,0-2.98-1.52-2.98-3.27c0-1.03,0.36-1.99,0.99-2.66
			c0.64-0.71,1.47-1.11,2.27-1.11c1.32,0,2.33,1.14,2.33,2.36c-0.02,0.3-0.06,0.44-0.3,0.5c-0.3,0.06-2.25,0.2-4.06,0.26
			c-0.05,2.04,1.2,2.87,2.28,2.87c0.62,0,1.2-0.26,1.76-0.77L74.63,161.88z M72.01,156.9c-0.7,0-1.38,0.65-1.6,1.88
			c0.85,0,1.7,0,2.6-0.05c0.27,0,0.36-0.08,0.36-0.3C73.4,157.62,72.86,156.9,72.01,156.9z"/>
		<path d="M78.68,163.16c-0.26,0.14-0.5,0.2-0.65,0.2c-0.97,0-1.49-0.59-1.49-1.81v-4.42h-1.05l-0.06-0.18l0.41-0.44h0.7v-1.28
			c0.29-0.3,0.73-0.7,1.02-1l0.23,0.03c-0.03,0.64-0.05,1.52-0.05,2.25h1.73c0.14,0.15,0.09,0.49-0.09,0.62h-1.64v3.89
			c0,1.23,0.49,1.46,0.88,1.46c0.36,0,0.71-0.14,0.93-0.24l0.14,0.39L78.68,163.16z"/>
		<path d="M90.38,163.16c-0.26,0.14-0.5,0.2-0.65,0.2c-0.97,0-1.49-0.59-1.49-1.81v-4.42h-1.05l-0.06-0.18l0.41-0.44h0.7v-1.28
			c0.29-0.3,0.73-0.7,1.02-1l0.23,0.03c-0.03,0.64-0.05,1.52-0.05,2.25h1.73c0.14,0.15,0.09,0.49-0.09,0.62h-1.64v3.89
			c0,1.23,0.49,1.46,0.88,1.46c0.36,0,0.71-0.14,0.93-0.24l0.14,0.39L90.38,163.16z"/>
		<path d="M95.22,156.32c1.9,0,3.31,1.44,3.31,3.4c0,2.46-1.82,3.63-3.31,3.63c-2.1,0-3.37-1.69-3.37-3.39
			C91.84,157.49,93.77,156.32,95.22,156.32z M95.03,156.83c-0.93,0-1.76,0.9-1.76,2.66c0,1.93,0.85,3.33,2.1,3.33
			c0.94,0,1.73-0.68,1.73-2.77C97.1,158.28,96.37,156.83,95.03,156.83z"/>
		<path d="M63.58,176.23c-0.97,1.22-2.04,1.47-2.52,1.47c-1.27,0-2.19-0.71-2.65-1.72l2.93-5.32c1.32,0,2.33,1.14,2.33,2.36
			c-0.01,0.3-0.06,0.44-0.3,0.5c-0.3,0.06-1.92,0.19-3.73,0.25l-0.31,0.56c0.17,1.64,1.28,2.32,2.26,2.32c0.62,0,1.2-0.26,1.76-0.77
			L63.58,176.23z M59.98,173.13c0.65,0,1.31-0.01,1.99-0.05c0.27,0,0.36-0.08,0.36-0.3c0.01-0.79-0.5-1.51-1.32-1.53
			C61,171.25,59.98,173.13,59.98,173.13z"/>
		<path d="M64.92,178.89c0.68-0.32,1.22-0.73,1.22-1.31c0-0.53-0.44-0.68-0.97-0.82c-0.09-0.02-0.24-0.2-0.24-0.47
			c0-0.38,0.29-0.76,0.85-0.76c0.55,0,1.29,0.5,1.29,1.61c0,1.2-1.06,1.93-1.95,2.19L64.92,178.89z"/>
		<path d="M80.54,177.71c-0.23,0-0.56-0.12-0.71-0.29c-0.2-0.2-0.29-0.41-0.36-0.68c-0.61,0.41-1.35,0.97-1.82,0.97
			c-1.08,0-1.85-0.9-1.85-1.87c0-0.74,0.41-1.23,1.25-1.52c0.93-0.32,2.07-0.71,2.4-0.99v-0.3c0-1.08-0.55-1.7-1.34-1.7
			c-0.35,0-0.56,0.17-0.71,0.35c-0.17,0.21-0.27,0.55-0.41,0.99c-0.08,0.24-0.21,0.35-0.44,0.35c-0.29,0-0.67-0.3-0.67-0.67
			c0-0.21,0.2-0.4,0.5-0.61c0.44-0.32,1.32-0.88,2.19-1.06c0.46,0,0.93,0.14,1.28,0.41c0.53,0.46,0.77,0.97,0.77,1.76v2.93
			c0,0.7,0.26,0.91,0.53,0.91c0.18,0,0.38-0.08,0.55-0.17l0.15,0.43L80.54,177.71z M79.43,173.86c-0.33,0.17-1.06,0.49-1.41,0.64
			c-0.58,0.26-0.93,0.55-0.93,1.11c0,0.81,0.61,1.17,1.09,1.17c0.4,0,0.94-0.24,1.25-0.55C79.43,175.52,79.43,174.58,79.43,173.86z"
			/>
		<path d="M86.83,177.52v-0.43c0.88-0.09,0.97-0.2,0.97-1.23v-2.51c0-1.06-0.38-1.78-1.38-1.78c-0.62,0-1.22,0.36-1.69,0.79v3.56
			c0,1.05,0.09,1.08,0.99,1.17v0.43h-3.28v-0.43c1-0.11,1.09-0.17,1.09-1.17v-3.13c0-0.99-0.11-1.03-0.93-1.17v-0.39
			c0.74-0.12,1.49-0.32,2.13-0.61c0,0.35,0,0.84,0,1.2c0.3-0.21,0.64-0.44,1.03-0.7c0.43-0.27,0.82-0.46,1.26-0.46
			c1.22,0,1.98,0.9,1.98,2.37v2.89c0,1.03,0.09,1.08,0.97,1.17v0.43H86.83z"/>
		<path d="M98.21,177.14c-0.32,0.06-1.46,0.24-2.36,0.56c0-0.32,0-0.67,0-0.99c-0.27,0.17-0.67,0.38-0.94,0.55
			c-0.61,0.35-1.02,0.44-1.2,0.44c-1.22,0-2.83-1.22-2.83-3.34c0-2.11,1.85-3.69,3.94-3.69c0.21,0,0.71,0.03,1.03,0.17v-2.23
			c0-0.97-0.11-1-1.19-1.09v-0.39c0.76-0.11,1.82-0.32,2.39-0.52c0,0.56,0,1.23,0,1.85v7.31c0,0.79,0.11,0.9,0.67,0.93l0.49,0.03
			V177.14z M95.85,172.04c-0.35-0.53-1-0.77-1.6-0.77c-0.73,0-2.02,0.49-2.02,2.68c0,1.84,1.14,2.81,2.11,2.83
			c0.55,0,1.14-0.27,1.5-0.55V172.04z"/>
	</g>
	<line class="st6" x1="108.55" y1="35.86" x2="108.55" y2="271.95"/>
</g>
<g id="Layer_4" class="st0">
	<polygon class="st1" points="97.86,29.43 97.86,40.73 97.86,49.43 93.8,55.8 88.58,78.98 93.22,92.31 88.58,102.75 88.58,121.29 
		88.58,128.83 88.58,143.31 88.58,161.28 91.04,174.55 90.39,188.99 90.61,199.93 87.11,212.18 90.17,224.65 87.11,238.21 
		88.2,262.27 87.11,273.21 87.11,279.12 90.83,285.24 95.2,282.62 100.45,287.21 106.36,284.59 110.95,287.21 110.95,285.24 
		116.64,286.12 123.2,281.74 126.4,283.61 126.51,283.59 128.65,283.56 138.3,265.55 146.61,272.99 156.67,276.49 163.67,283.06 
		168.71,280.65 175.49,279.12 177.46,280.43 186.86,274.96 189.93,274.3 192.99,275.62 195.39,278.46 205.02,273.21 210.49,273.21 
		216.18,276.49 222.05,276.27 231.27,270.59 237.62,268.4 240.24,272.34 240.24,277.81 247.24,282.62 251.4,278.68 256.65,281.96 
		263.87,281.31 272.4,273.87 277.43,267.3 280.93,269.27 283.56,273.65 283.56,277.15 289.24,274.96 293.84,279.99 299.31,275.18 
		304.12,272.77 310.68,265.34 318.78,268.84 324.9,272.55 330.81,277.15 336.5,278.46 345.68,270.37 351.81,267.74 359.25,271.68 
		362.09,276.71 366.47,277.59 368.65,281.74 370.7,284.05 374.24,284.05 379.71,283.43 382.44,289.62 387.03,293.99 394.03,293.99 
		399.06,287.43 392.5,276.06 395.34,262.49 399.06,244.12 395.56,231.17 390.53,218.52 390.75,207.36 387.03,193.58 386.81,183.3 
		381.56,163.61 381.56,148.95 379.59,129.7 376.75,112.64 382.44,99.29 381.12,25.35 378.72,15.51 362.31,15.51 358.15,18.13 
		347,15.51 339.78,17.26 334.53,17.26 329.71,15.51 324.9,15.51 320.75,17.7 313.53,18.13 308.49,21.63 300.62,22.73 298.65,21.42 
		296.03,19.23 290.77,19.23 285.31,15.51 277.21,12.45 271.09,15.07 268.24,19.67 264.3,20.54 260.15,23.6 253.59,23.6 250.3,20.32 
		243.08,21.42 236.52,23.82 235.43,26.01 231.71,24.92 226.9,27.76 224.27,32.79 219.68,33.01 216.61,32.13 213.11,32.35 
		204.36,33.01 200.64,31.48 198.68,26.23 194.96,24.04 190.58,25.57 183.36,29.29 181.17,26.01 175.05,30.6 173.96,38.26 
		168.49,31.26 166.08,25.79 162.36,28.63 154.92,24.7 149.24,22.07 142.24,28.63 136.98,26.23 132.61,26.45 124.29,25.91 
		123.32,25.93 123.2,24.48 120.8,22.95 118.17,23.6 114.89,24.48 110.73,21.85 108.55,26.01 103.51,30.38 	"/>
	<g class="st5">
		<path d="M248.84,23.06v-0.38c0.8-0.08,0.9-0.14,0.9-1.09v-1.18l-2.63,0.38l0,0.88c0,0.86,0.12,0.92,0.87,1v0.38h-2.91v-0.38
			c0.84-0.08,0.96-0.14,0.96-1.03v-0.7l-2.65,0.42l0.02,0.28c0,0.9,0.09,0.95,0.87,1.03v0.38h-2.92v-0.38
			c0.88-0.08,0.97-0.13,0.98-0.98c0,0,0.76-0.28,0.76-0.28c1.87-0.33,7.22-1.09,7.22-1.09l0.5,0.5v0.82c0,0.91,0.08,0.95,0.86,1.03
			v0.38H248.84z"/>
		<path d="M262.08,23.04c-0.23,0.12-0.45,0.18-0.58,0.18c-0.25,0-0.47-0.04-0.65-0.13l0.91-0.7c0.09,0.04,0.18,0.05,0.27,0.05
			c0.33,0,0.64-0.12,0.83-0.22l0.12,0.35L262.08,23.04z"/>
		<path d="M268.3,21.9c-0.87,1.09-1.82,1.32-2.25,1.32c-1.36,0-2.28-0.92-2.57-2.11l0.83-0.57l0.23-0.05
			c0.24,1.26,1.16,1.79,1.98,1.79c0.56,0,1.07-0.23,1.57-0.69L268.3,21.9z"/>
		<path d="M276.7,23.22c-0.2,0-0.5-0.11-0.64-0.26c-0.18-0.18-0.26-0.37-0.33-0.61c-0.54,0.37-1.21,0.87-1.63,0.87
			c-0.96,0-1.66-0.8-1.66-1.67c0-0.67,0.37-1.1,1.11-1.36c0.83-0.28,1.85-0.64,2.14-0.88v-0.27c0-0.96-0.49-1.52-1.19-1.52
			c-0.31,0-0.5,0.15-0.64,0.31c-0.15,0.19-0.24,0.49-0.37,0.88c-0.07,0.22-0.19,0.31-0.39,0.31c-0.26,0-0.6-0.27-0.6-0.6
			c0-0.19,0.18-0.35,0.45-0.54c0.39-0.29,1.18-0.79,1.95-0.95c0.41,0,0.83,0.12,1.14,0.37c0.47,0.41,0.69,0.87,0.69,1.57v2.62
			c0,0.62,0.23,0.81,0.48,0.81c0.16,0,0.34-0.07,0.49-0.15l0.14,0.38L276.7,23.22z M275.71,19.79c-0.3,0.15-0.95,0.43-1.26,0.57
			c-0.52,0.23-0.83,0.49-0.83,0.99c0,0.72,0.54,1.05,0.98,1.05c0.35,0,0.84-0.22,1.11-0.49C275.71,21.27,275.71,20.42,275.71,19.79z
			"/>
		<path d="M286.72,21.84c-0.6,0.79-1.51,1.38-2.32,1.38c-1.72,0-2.74-1.4-2.74-2.85c0-1.07,0.46-1.97,1.37-2.66
			c0.72-0.56,1.53-0.77,2.06-0.77c0.61,0,1.06,0.19,1.26,0.37c0.19,0.15,0.22,0.24,0.22,0.39c0,0.33-0.34,0.61-0.49,0.61
			c-0.07,0-0.12-0.03-0.26-0.14c-0.42-0.38-0.88-0.57-1.37-0.57c-0.9,0-1.68,0.76-1.68,2.17c-0.01,1.89,1.28,2.51,2.06,2.51
			c0.57,0,1.03-0.15,1.66-0.75L286.72,21.84z"/>
		<path d="M291.75,23.22c-0.2,0-0.5-0.11-0.64-0.26c-0.18-0.18-0.26-0.37-0.33-0.61c-0.54,0.37-1.21,0.87-1.63,0.87
			c-0.96,0-1.66-0.8-1.66-1.67c0-0.67,0.37-1.1,1.11-1.36c0.83-0.28,1.85-0.64,2.14-0.88v-0.08c0,0-1.89-1.31-1.9-1.3
			c-0.11,0.19-0.2,0.45-0.3,0.79c-0.07,0.22-0.19,0.31-0.39,0.31c-0.26,0-0.6-0.27-0.6-0.6c0-0.19,0.18-0.35,0.45-0.54
			c0.1-0.07,0.25-0.18,0.39-0.27l2.35,1.61l1.05,0v2.27c0,0.62,0.23,0.81,0.48,0.81c0.16,0,0.34-0.07,0.49-0.15l0.14,0.38
			L291.75,23.22z M290.76,19.79c-0.3,0.15-0.95,0.43-1.26,0.57c-0.52,0.23-0.83,0.49-0.83,0.99c0,0.72,0.54,1.05,0.98,1.05
			c0.35,0,0.84-0.22,1.11-0.49C290.76,21.27,290.76,20.42,290.76,19.79z"/>
		<path d="M297.37,23.06v-0.38c0.79-0.08,0.87-0.18,0.87-1.1v-0.51l-2.21-1.84l-0.53,0v2.4c0,0.94,0.08,0.96,0.88,1.05v0.38h-2.93
			v-0.38c0.9-0.1,0.98-0.15,0.98-1.05v-2.4l1.6,0l2.21,1.84l1.07,0.79c0.02,0.71,0.15,0.75,0.87,0.82v0.38H297.37z"/>
		<path d="M307.54,22.72c-0.28,0.05-1.3,0.22-2.1,0.5c0-0.28,0-0.6,0-0.88c-0.24,0.15-0.6,0.34-0.84,0.49
			c-0.54,0.31-0.91,0.39-1.07,0.39c-0.5,0-1.09-0.23-1.56-0.68l4.57-0.64c0.05,0.33,0.2,0.38,0.57,0.4l0.43,0.03V22.72z
			 M303.67,22.31c0.14,0.05,0.28,0.07,0.42,0.07c0.34,0,0.69-0.12,0.99-0.27L303.67,22.31z"/>
		<path d="M308.17,23.06v-0.38c0.86-0.08,0.95-0.15,0.95-1.07V21.2l1.07-0.75v1.15c0,0.92,0.1,0.99,0.98,1.07v0.38H308.17z"/>
		<path d="M318.42,22.72c-0.28,0.05-1.3,0.22-2.1,0.5c0-0.28,0-0.6,0-0.88c-0.24,0.15-0.6,0.34-0.84,0.49
			c-0.54,0.31-0.91,0.39-1.07,0.39c-1.09,0-2.53-1.09-2.53-2.99c0-0.39,0.07-0.75,0.19-1.09l1.46-1.01l3.86-0.23v3.58
			c0,0.71,0.1,0.8,0.6,0.83l0.43,0.03V22.72z M316.32,17.97l-2.77,0.18c-0.27,0.37-0.46,0.91-0.46,1.7c0,1.64,1.02,2.51,1.89,2.52
			c0.49,0,1.02-0.24,1.34-0.49V17.97z"/>
		<path d="M323.36,23.22c-0.2,0-0.5-0.11-0.64-0.26c-0.18-0.18-0.26-0.37-0.33-0.61c-0.54,0.37-1.21,0.87-1.63,0.87
			c-0.96,0-1.66-0.8-1.66-1.67c0-0.67,0.37-1.1,1.11-1.36c0.83-0.28,1.85-0.64,2.14-0.88v-0.27c0-0.96-0.49-1.52-1.19-1.52
			c-0.04,0-0.07,0-0.1,0.01l-0.33,0.17l-0.08,0c-0.05,0.04-0.09,0.08-0.13,0.13c-0.15,0.19-0.24,0.49-0.37,0.88
			c-0.07,0.22-0.19,0.31-0.39,0.31c-0.26,0-0.6-0.27-0.6-0.6c0-0.19,0.18-0.35,0.45-0.54c0.06-0.04,0.12-0.09,0.19-0.13l0.85-0.05
			l0.08,0l1.33-0.7c0.24,0.06,0.46,0.16,0.65,0.31c0.47,0.41,0.69,0.87,0.69,1.57v2.62c0,0.62,0.23,0.81,0.48,0.81
			c0.16,0,0.34-0.07,0.49-0.15l0.14,0.38L323.36,23.22z M322.37,19.79c-0.3,0.15-0.95,0.43-1.26,0.57
			c-0.52,0.23-0.83,0.49-0.83,0.99c0,0.72,0.54,1.05,0.98,1.05c0.35,0,0.84-0.22,1.11-0.49C322.37,21.27,322.37,20.42,322.37,19.79z
			"/>
		<path d="M327.61,23.04c-0.23,0.12-0.45,0.18-0.58,0.18c-0.87,0-1.33-0.53-1.33-1.62v-3.95h-0.94l-0.05-0.16l0.37-0.39h0.62v-1.14
			c0.13-0.14,0.29-0.29,0.46-0.45l0.64,0c-0.02,0.5-0.02,1.09-0.02,1.59h1.55c0.12,0.14,0.08,0.43-0.08,0.56h-1.47v3.48
			c0,1.1,0.43,1.3,0.79,1.3c0.33,0,0.64-0.12,0.83-0.22l0.12,0.35L327.61,23.04z"/>
		<path d="M333.82,21.9c-0.87,1.09-1.82,1.32-2.25,1.32c-1.66,0-2.66-1.36-2.66-2.92c0-0.92,0.33-1.78,0.88-2.38
			c0.57-0.64,1.32-0.99,2.02-0.99c1.18,0,2.08,1.02,2.08,2.1c-0.01,0.27-0.05,0.39-0.27,0.45c-0.27,0.05-2.01,0.18-3.62,0.23
			c-0.04,1.82,1.07,2.57,2.04,2.57c0.56,0,1.07-0.23,1.58-0.69L333.82,21.9z M331.49,17.45c-0.62,0-1.24,0.58-1.43,1.68
			c0.76,0,1.52,0,2.32-0.04c0.24,0,0.33-0.07,0.33-0.27C332.72,18.1,332.25,17.45,331.49,17.45z"/>
		<path d="M340.44,17.1h0.87c0.08,0.12,0.01,0.46-0.14,0.56h-1.3v3.92c0,0.98,0.15,0.99,1.17,1.1v0.38h-3.19v-0.38
			c0.86-0.08,0.95-0.14,0.95-1.02v-4h-0.96l-0.05-0.15l0.18-0.25l1.81,0L340.44,17.1z"/>
		<path d="M344.86,16.93c1.7,0,2.96,1.29,2.96,3.04c0,2.2-1.63,3.24-2.96,3.24c-1.87,0-3.01-1.51-3.01-3.03
			C341.84,17.98,343.57,16.93,344.86,16.93z M344.69,17.4c-0.83,0-1.57,0.8-1.57,2.38c0,1.72,0.76,2.97,1.87,2.97
			c0.84,0,1.55-0.61,1.55-2.47C346.54,18.69,345.89,17.4,344.69,17.4z"/>
		<path d="M351.82,23.06h-3.12v-0.38c0.86-0.08,0.94-0.15,0.94-1.03v-2.82c0-0.9-0.05-0.94-0.84-1.03v-0.34
			c0.67-0.11,1.28-0.27,1.91-0.56c0,0.45,0,1.05,0,1.49c0.48-0.71,1.05-1.45,1.72-1.45c0.5,0,0.79,0.31,0.79,0.65
			c0,0.31-0.22,0.61-0.46,0.75c-0.14,0.08-0.24,0.07-0.35-0.03c-0.2-0.2-0.37-0.34-0.61-0.34c-0.28,0-0.79,0.42-1.09,1.11v2.55
			c0,0.9,0.07,0.96,1.11,1.05V23.06z"/>
		<path d="M171.73,35.41c-0.46,0.31-0.94,0.63-1.27,0.63c-0.96,0-1.66-0.8-1.66-1.67c0-0.65,0.35-1.08,1.07-1.34L171.73,35.41z
			 M170.25,33.51c-0.18,0.17-0.28,0.37-0.28,0.65c0,0.72,0.54,1.05,0.98,1.05c0.16,0,0.35-0.04,0.53-0.12L170.25,33.51z"/>
		<path d="M182.23,35.88V35.5c0.8-0.08,0.9-0.14,0.9-1.09v-2.27c0-0.96-0.33-1.57-1.17-1.57c-0.52,0-0.99,0.28-1.51,0.71
			c0.01,0.16,0.04,0.33,0.04,0.58v2.63c0,0.86,0.12,0.92,0.87,1v0.38h-2.91V35.5c0.84-0.08,0.96-0.14,0.96-1.03v-2.34
			c0-1-0.31-1.56-1.14-1.56c-0.54,0-1.07,0.37-1.49,0.71v3.19c0,0.9,0.1,0.95,0.87,1.03v0.38h-2.92V35.5
			c0.9-0.08,0.98-0.14,0.98-1.03v-2.81c0-0.81-0.66-1.05-0.66-1.05l0.04-0.03l0.66-0.5c0.35-0.09,0.69-0.22,1.03-0.36
			c0,0.33,0,0.77,0,1.1c0.29-0.22,0.57-0.45,1-0.71c0.34-0.22,0.64-0.35,1.07-0.35c0.65,0,1.21,0.41,1.48,1.11
			c0.38-0.3,0.73-0.53,1.07-0.76c0.3-0.19,0.68-0.35,1.07-0.35c1.06,0,1.71,0.76,1.71,2.09v2.62c0,0.91,0.08,0.95,0.86,1.03v0.38
			H182.23z"/>
		<path d="M188.63,29.89c0.23-0.09,0.43-0.14,0.6-0.14c1.45,0,2.67,1.26,2.67,2.88c0,1.83-1.58,3.42-3.35,3.41
			c-0.58,0-1.34-0.14-2.09-0.49c0-0.35,0-0.72,0-1.09v-6.54c0-0.08,0-0.16,0-0.22l1.07-0.55c0,0.2,0,0.39,0,0.59v2.63L188.63,29.89z
			 M187.53,34.3c0,0.22,0.01,0.34,0.07,0.48c0.16,0.34,0.69,0.73,1.34,0.73c1.17,0,1.75-1,1.75-2.54c0-1.55-0.94-2.46-2.06-2.46
			c-0.39,0-0.84,0.12-1.1,0.26V34.3z"/>
		<path d="M197.15,36.04c-0.2,0-0.5-0.11-0.64-0.26c-0.18-0.18-0.26-0.37-0.33-0.61c-0.54,0.37-1.21,0.87-1.63,0.87
			c-0.96,0-1.66-0.8-1.66-1.67c0-0.67,0.37-1.1,1.11-1.36c0.83-0.28,1.85-0.64,2.14-0.88v-0.27c0-0.96-0.49-1.52-1.19-1.52
			c-0.31,0-0.5,0.15-0.64,0.31c-0.15,0.19-0.24,0.49-0.37,0.88c-0.07,0.22-0.19,0.31-0.39,0.31c-0.26,0-0.6-0.27-0.6-0.6
			c0-0.19,0.18-0.35,0.45-0.54c0.39-0.29,1.18-0.79,1.95-0.95c0.41,0,0.83,0.12,1.14,0.37c0.47,0.41,0.69,0.87,0.69,1.57v2.62
			c0,0.62,0.23,0.81,0.48,0.81c0.16,0,0.34-0.07,0.49-0.15l0.14,0.38L197.15,36.04z M196.16,32.6c-0.3,0.15-0.95,0.43-1.26,0.57
			c-0.52,0.23-0.83,0.49-0.83,0.99c0,0.72,0.54,1.05,0.98,1.05c0.35,0,0.84-0.22,1.11-0.49C196.16,34.08,196.16,33.24,196.16,32.6z"
			/>
		<path d="M200.29,30.44c-0.15,0.15-0.24,0.37-0.24,0.64c0,0.58,0.39,0.86,1.15,1.21c1.17,0.56,1.75,0.96,1.75,1.86
			c0,1.25-1.14,1.89-2.21,1.89c-0.71,0-1.33-0.22-1.62-0.38c-0.07-0.39-0.19-1.14-0.24-1.59l0.39-0.07
			c0.24,0.87,0.72,1.58,1.67,1.58c0.52,0,0.95-0.35,0.95-0.92c0-0.61-0.37-0.92-1.09-1.28c-0.95-0.46-1.72-0.9-1.72-1.87
			c0-0.66,0.38-1.22,1-1.52L200.29,30.44z"/>
		<path d="M207.2,32.8c0.54,0.36,0.82,0.74,0.82,1.35c0,1.25-1.14,1.89-2.21,1.89c-0.71,0-1.33-0.22-1.62-0.38
			c-0.07-0.39-0.19-1.14-0.24-1.59l0.39-0.07c0.24,0.87,0.72,1.58,1.67,1.58c0.52,0,0.95-0.35,0.95-0.92c0-0.61-0.37-0.92-1.09-1.28
			c-0.28-0.14-0.55-0.27-0.79-0.42L207.2,32.8z"/>
		<path d="M213.32,36.04c-0.2,0-0.5-0.11-0.64-0.26c-0.18-0.18-0.26-0.37-0.33-0.61c-0.54,0.37-1.21,0.87-1.63,0.87
			c-0.96,0-1.66-0.8-1.66-1.67c0-0.67,0.37-1.1,1.11-1.36c0.5-0.17,1.07-0.37,1.5-0.55l1.69-0.12v1.98c0,0.62,0.23,0.81,0.48,0.81
			c0.16,0,0.34-0.07,0.49-0.15l0.14,0.38L213.32,36.04z M212.33,32.6c-0.3,0.15-0.95,0.43-1.26,0.57c-0.52,0.23-0.83,0.49-0.83,0.99
			c0,0.72,0.54,1.05,0.98,1.05c0.35,0,0.84-0.22,1.11-0.49C212.33,34.08,212.33,33.24,212.33,32.6z"/>
		<path d="M221.58,35.54c-0.28,0.05-1.3,0.22-2.1,0.5c0-0.28,0-0.6,0-0.88c-0.24,0.15-0.6,0.34-0.84,0.49
			c-0.54,0.31-0.91,0.39-1.07,0.39c-1.09,0-2.53-1.09-2.53-2.99c0-0.29,0.04-0.56,0.11-0.83l1.13-0.07l0.34-0.02l3.06,0.88
			l0.88-0.04v1.33c0,0.71,0.09,0.8,0.6,0.83l0.43,0.03V35.54z M216.28,32.16c-0.04,0.15-0.03,0.33-0.03,0.52
			c0,1.64,1.02,2.51,1.89,2.52c0.49,0,1.02-0.24,1.34-0.49v-1.75l-2.87-0.82L216.28,32.16z"/>
		<path d="M225.83,29.8c1.4,0.25,2.39,1.44,2.39,2.99c0,2.2-1.63,3.24-2.96,3.24c-1.87,0-3.01-1.51-3.01-3.03c0-0.04,0-0.08,0-0.12
			l1.28-0.06l0.74-0.04L225.83,29.8z M223.53,32.83C223.53,32.91,223.53,32.83,223.53,32.83c0.07,1.6,0.81,2.74,1.87,2.74
			c0.84,0,1.55-0.61,1.55-2.47c0-1.36-0.48-2.5-1.37-2.8l-1.3,2.5L223.53,32.83z"/>
		<path d="M232.22,35.88h-3.12V35.5c0.86-0.08,0.94-0.15,0.94-1.03v-2.82c0-0.9-0.05-0.94-0.84-1.03v-0.34
			c0.67-0.11,1.28-0.27,1.91-0.56c0,0.45,0,1.05,0,1.49c0.48-0.71,1.05-1.45,1.72-1.45c0.5,0,0.79,0.31,0.79,0.65
			c0,0.31-0.22,0.61-0.46,0.75c-0.14,0.08-0.24,0.07-0.35-0.03c-0.2-0.2-0.37-0.34-0.61-0.34c-0.28,0-0.79,0.42-1.09,1.11v2.55
			c0,0.9,0.07,0.96,1.11,1.05V35.88z"/>
	</g>
	<g class="st5">
		<path d="M93.45,148.64c-0.87,1.09-1.82,1.32-2.25,1.32c-1.66,0-2.66-1.36-2.66-2.92c0-0.92,0.33-1.78,0.88-2.38
			c0.57-0.64,1.32-0.99,2.02-0.99c1.18,0,2.08,1.02,2.08,2.1c-0.01,0.27-0.05,0.39-0.27,0.45c-0.27,0.05-2.01,0.18-3.62,0.23
			c-0.04,1.82,1.07,2.57,2.04,2.57c0.56,0,1.07-0.23,1.57-0.69L93.45,148.64z M91.11,144.18c-0.62,0-1.24,0.58-1.43,1.68
			c0.76,0,1.52,0,2.32-0.04c0.24,0,0.33-0.07,0.33-0.27C92.35,144.84,91.87,144.18,91.11,144.18z"/>
		<path d="M101.06,149.45c-0.28,0.05-1.3,0.22-2.1,0.5c0-0.29,0-0.6,0-0.88c-0.24,0.15-0.6,0.34-0.84,0.49
			c-0.54,0.31-0.91,0.39-1.07,0.39c-1.09,0-2.53-1.09-2.53-2.99c0-1.89,1.66-3.3,3.52-3.3c0.19,0,0.64,0.03,0.92,0.15v-2
			c0-0.87-0.09-0.9-1.06-0.98v-0.35c0.68-0.09,1.63-0.29,2.13-0.46c0,0.5,0,1.1,0,1.66v6.53c0,0.71,0.09,0.8,0.6,0.83l0.43,0.03
			V149.45z M98.96,144.89c-0.31-0.48-0.9-0.69-1.43-0.69c-0.65,0-1.81,0.43-1.81,2.39c0,1.64,1.02,2.51,1.89,2.53
			c0.49,0,1.02-0.24,1.34-0.49V144.89z"/>
		<path d="M95.08,175.09c-0.28,0.05-1.3,0.22-2.1,0.5c0-0.29,0-0.6,0-0.88c-0.24,0.15-0.6,0.34-0.84,0.49
			c-0.54,0.31-0.91,0.39-1.07,0.39c-0.02,0-0.05,0-0.07-0.01l0.05-1.03l-0.88-4.73c0.56-0.35,1.18-0.52,1.88-0.52
			c0.19,0,0.64,0.03,0.92,0.15v-2c0-0.87-0.09-0.9-1.06-0.98v-0.35c0.68-0.09,1.63-0.29,2.13-0.46c0,0.5,0,1.1,0,1.66v6.53
			c0,0.71,0.09,0.8,0.6,0.83l0.43,0.03V175.09z M92.97,170.53c-0.31-0.48-0.9-0.69-1.43-0.69c-0.23,0-1.13,0.21-1.27,0.54l0.76,4.24
			c0.19,0.09,0.4,0.13,0.59,0.13c0.49,0,1.02-0.24,1.34-0.49V170.53z"/>
		<path d="M103.25,175.59c-0.2,0-0.5-0.11-0.64-0.26c-0.18-0.18-0.26-0.37-0.33-0.61c-0.54,0.37-1.21,0.87-1.63,0.87
			c-0.96,0-1.66-0.8-1.66-1.67c0-0.67,0.37-1.1,1.11-1.36c0.83-0.28,1.85-0.64,2.14-0.88v-0.27c0-0.96-0.49-1.52-1.19-1.52
			c-0.31,0-0.5,0.15-0.64,0.31c-0.15,0.19-0.24,0.49-0.37,0.88c-0.07,0.22-0.19,0.31-0.39,0.31c-0.26,0-0.6-0.27-0.6-0.6
			c0-0.19,0.18-0.35,0.45-0.54c0.39-0.29,1.18-0.79,1.95-0.95c0.41,0,0.83,0.12,1.14,0.37c0.47,0.41,0.69,0.87,0.69,1.58v2.62
			c0,0.62,0.23,0.81,0.48,0.81c0.16,0,0.34-0.07,0.49-0.15l0.14,0.38L103.25,175.59z M102.26,172.16c-0.3,0.15-0.95,0.43-1.26,0.57
			c-0.52,0.23-0.83,0.49-0.83,0.99c0,0.72,0.54,1.05,0.98,1.05c0.35,0,0.84-0.22,1.11-0.49
			C102.26,173.64,102.26,172.79,102.26,172.16z"/>
		<path d="M108.09,175.43h-3.12v-0.38c0.86-0.08,0.94-0.15,0.94-1.03v-2.82c0-0.9-0.05-0.94-0.84-1.03v-0.34
			c0.67-0.11,1.28-0.27,1.91-0.56c0,0.45,0,1.05,0,1.49c0.48-0.71,1.05-1.45,1.72-1.45c0.5,0,0.79,0.31,0.79,0.65
			c0,0.31-0.22,0.61-0.46,0.75c-0.14,0.08-0.24,0.07-0.35-0.03c-0.2-0.2-0.37-0.34-0.61-0.34c-0.28,0-0.79,0.42-1.09,1.11V174
			c0,0.9,0.07,0.96,1.11,1.05V175.43z"/>
		<path d="M114.88,174.27c-0.87,1.09-1.82,1.32-2.25,1.32c-1.66,0-2.66-1.36-2.66-2.92c0-0.92,0.33-1.78,0.88-2.38
			c0.57-0.64,1.32-0.99,2.02-0.99c1.18,0,2.08,1.02,2.08,2.1c-0.01,0.27-0.05,0.39-0.27,0.45c-0.27,0.05-2.01,0.18-3.62,0.23
			c-0.04,1.82,1.07,2.57,2.04,2.57c0.56,0,1.07-0.23,1.58-0.69L114.88,174.27z M112.54,169.82c-0.62,0-1.24,0.58-1.43,1.68
			c0.76,0,1.52,0,2.32-0.04c0.24,0,0.33-0.07,0.33-0.27C113.78,170.47,113.3,169.82,112.54,169.82z"/>
		<path d="M91.71,181.32c0.62-0.27,1.06-0.68,1.06-1.14c0-0.47-0.46-0.64-0.9-0.72c-0.1-0.01-0.19-0.2-0.19-0.38
			c0-0.37,0.29-0.61,0.69-0.61c0.6,0,1.19,0.49,1.19,1.38c0,0.96-0.84,1.6-1.7,1.85L91.71,181.32z"/>
		<path d="M97.17,188.23c-0.23,0.12-0.45,0.18-0.58,0.18c-0.87,0-1.33-0.53-1.33-1.62v-3.95h-0.94l-0.05-0.16l0.37-0.39h0.62v-1.14
			c0.26-0.27,0.65-0.62,0.91-0.9l0.2,0.03c-0.03,0.57-0.04,1.36-0.04,2.01h1.55c0.12,0.14,0.08,0.43-0.08,0.56h-1.47v3.48
			c0,1.1,0.43,1.3,0.79,1.3c0.33,0,0.64-0.12,0.83-0.22l0.12,0.35L97.17,188.23z"/>
		<path d="M93.45,199.91c-0.87,1.09-1.82,1.32-2.25,1.32c-0.33,0-0.64-0.05-0.92-0.15l0.33-1.15l-0.04-2.24l-0.05-2.55
			c0.31-0.13,0.62-0.2,0.93-0.2c1.18,0,2.08,1.02,2.08,2.1c-0.01,0.27-0.05,0.39-0.27,0.45c-0.22,0.04-1.39,0.13-2.68,0.19
			l0.04,2.24c0.33,0.23,0.69,0.36,1.05,0.36c0.56,0,1.07-0.23,1.57-0.69L93.45,199.91z M91.11,195.46c-0.2,0-0.41,0.06-0.59,0.18
			l0.03,1.5c0.48,0,0.96-0.01,1.46-0.04c0.24,0,0.33-0.07,0.33-0.27C92.35,196.11,91.87,195.46,91.11,195.46z"/>
		<path d="M94.42,201.06v-0.38c0.86-0.08,0.95-0.15,0.95-1.07v-2.8c0-0.84-0.04-0.9-0.86-1.03v-0.33c0.71-0.12,1.34-0.3,1.93-0.54
			c0,0.57,0,1.14,0,1.71v2.99c0,0.92,0.1,0.99,0.98,1.07v0.38H94.42z M95.84,193.58c-0.38,0-0.72-0.34-0.72-0.72
			c0-0.43,0.34-0.75,0.73-0.75c0.38,0,0.69,0.31,0.69,0.75C96.54,193.24,96.23,193.58,95.84,193.58z"/>
		<path d="M101.24,201.06h-3.12v-0.38c0.86-0.08,0.94-0.15,0.94-1.03v-2.82c0-0.9-0.05-0.94-0.84-1.03v-0.34
			c0.67-0.11,1.28-0.27,1.91-0.56c0,0.45,0,1.05,0,1.49c0.48-0.71,1.05-1.45,1.72-1.45c0.5,0,0.79,0.31,0.79,0.65
			c0,0.31-0.22,0.61-0.46,0.75c-0.14,0.08-0.24,0.07-0.35-0.03c-0.2-0.2-0.37-0.34-0.61-0.34c-0.28,0-0.79,0.42-1.09,1.11v2.55
			c0,0.9,0.07,0.96,1.11,1.05V201.06z"/>
		<path d="M95.17,222.36c-0.24-0.79-0.6-1.33-1.43-1.33c-0.47,0-0.84,0.34-0.84,0.88c0,0.58,0.39,0.86,1.15,1.21
			c1.17,0.56,1.75,0.96,1.75,1.86c0,1.25-1.14,1.89-2.21,1.89c-0.71,0-1.33-0.22-1.62-0.38c-0.07-0.39-0.19-1.14-0.24-1.59
			l0.39-0.07c0.24,0.87,0.72,1.58,1.67,1.58c0.52,0,0.95-0.35,0.95-0.92c0-0.61-0.37-0.92-1.09-1.28c-0.95-0.46-1.72-0.9-1.72-1.87
			c0-0.99,0.84-1.75,2.12-1.75c0.57,0,1.03,0.14,1.3,0.18c0.04,0.33,0.14,1.18,0.2,1.51L95.17,222.36z"/>
		<path d="M100.42,226.7v-0.38c0.79-0.08,0.9-0.15,0.9-1.05v-2.23c0-1.13-0.43-1.7-1.34-1.68c-0.52,0-1.06,0.26-1.44,0.71v3.2
			c0,0.88,0.11,0.96,0.92,1.05v0.38H96.5v-0.38c0.79-0.07,0.96-0.14,0.96-1.05v-6.54c0-0.72-0.04-0.9-0.95-0.98v-0.35
			c0.72-0.07,1.53-0.27,2.02-0.46c0,0.53,0,1.13,0,1.68v2.95c0.49-0.49,1.24-0.99,1.97-0.99c1.11,0,1.89,0.69,1.89,2.32v2.39
			c0,0.9,0.11,0.96,0.9,1.03v0.38H100.42z"/>
		<path d="M108.99,225.55c-0.87,1.09-1.82,1.32-2.25,1.32c-1.66,0-2.66-1.36-2.66-2.92c0-0.92,0.33-1.78,0.88-2.38
			c0.57-0.64,1.32-0.99,2.02-0.99c1.18,0,2.08,1.02,2.08,2.1c-0.01,0.27-0.05,0.39-0.27,0.45c-0.27,0.05-2.01,0.18-3.62,0.23
			c-0.04,1.82,1.07,2.57,2.04,2.57c0.56,0,1.07-0.23,1.57-0.69L108.99,225.55z M106.65,221.09c-0.62,0-1.24,0.58-1.43,1.68
			c0.76,0,1.52,0,2.32-0.04c0.24,0,0.33-0.07,0.33-0.27C107.89,221.74,107.41,221.09,106.65,221.09z"/>
		<path d="M91.13,265.14c-0.23,0.12-0.45,0.18-0.58,0.18c-0.87,0-1.33-0.53-1.33-1.62v-3.95h-0.94l-0.05-0.16l0.37-0.39h0.62v-1.14
			c0.26-0.27,0.65-0.62,0.91-0.9l0.2,0.03c-0.03,0.57-0.04,1.36-0.04,2.01h1.55c0.12,0.14,0.08,0.43-0.08,0.56h-1.47v3.48
			c0,1.1,0.43,1.3,0.79,1.3c0.33,0,0.64-0.12,0.83-0.22l0.12,0.35L91.13,265.14z"/>
		<path d="M96.33,265.15v-0.38c0.79-0.08,0.9-0.15,0.9-1.04v-2.23c0-1.13-0.43-1.7-1.34-1.68c-0.52,0-1.06,0.26-1.44,0.71v3.2
			c0,0.88,0.11,0.96,0.92,1.04v0.38H92.4v-0.38c0.79-0.07,0.96-0.14,0.96-1.04v-6.54c0-0.72-0.04-0.9-0.95-0.98v-0.35
			c0.72-0.07,1.53-0.27,2.02-0.46c0,0.53,0,1.13,0,1.68v2.95c0.49-0.49,1.24-0.99,1.97-0.99c1.11,0,1.89,0.69,1.89,2.32v2.39
			c0,0.9,0.11,0.96,0.9,1.03v0.38H96.33z"/>
		<path d="M104.32,265.32c-0.2,0-0.5-0.11-0.64-0.26c-0.18-0.18-0.26-0.37-0.33-0.61c-0.54,0.37-1.21,0.87-1.63,0.87
			c-0.96,0-1.66-0.8-1.66-1.67c0-0.66,0.37-1.1,1.11-1.36c0.83-0.28,1.85-0.64,2.14-0.88v-0.27c0-0.96-0.49-1.52-1.19-1.52
			c-0.31,0-0.5,0.15-0.64,0.31c-0.15,0.19-0.24,0.49-0.37,0.88c-0.07,0.22-0.19,0.31-0.39,0.31c-0.26,0-0.6-0.27-0.6-0.6
			c0-0.19,0.18-0.35,0.45-0.54c0.39-0.29,1.18-0.79,1.95-0.95c0.41,0,0.83,0.12,1.14,0.37c0.47,0.41,0.69,0.87,0.69,1.58v2.62
			c0,0.63,0.23,0.82,0.48,0.82c0.16,0,0.34-0.07,0.49-0.15l0.14,0.38L104.32,265.32z M103.33,261.88c-0.3,0.15-0.95,0.43-1.26,0.57
			c-0.52,0.23-0.83,0.49-0.83,0.99c0,0.72,0.54,1.04,0.98,1.04c0.35,0,0.84-0.22,1.11-0.49
			C103.33,263.36,103.33,262.52,103.33,261.88z"/>
		<path d="M108.57,265.14c-0.23,0.12-0.45,0.18-0.58,0.18c-0.87,0-1.33-0.53-1.33-1.62v-3.95h-0.94l-0.05-0.16l0.37-0.39h0.62v-1.14
			c0.26-0.27,0.65-0.62,0.91-0.9l0.2,0.03c-0.03,0.57-0.04,1.36-0.04,2.01h1.55c0.12,0.14,0.08,0.43-0.08,0.56h-1.47v3.48
			c0,1.1,0.43,1.3,0.79,1.3c0.33,0,0.64-0.12,0.83-0.22l0.12,0.35L108.57,265.14z"/>
		<path d="M93.45,276.82c-0.87,1.09-1.82,1.32-2.25,1.32c-1.66,0-2.66-1.36-2.66-2.92c0-0.92,0.33-1.78,0.88-2.38
			c0.57-0.64,1.32-0.99,2.02-0.99c1.18,0,2.08,1.02,2.08,2.1c-0.01,0.27-0.05,0.39-0.27,0.45c-0.27,0.05-2.01,0.18-3.62,0.23
			c-0.04,1.82,1.07,2.57,2.04,2.57c0.56,0,1.07-0.23,1.57-0.69L93.45,276.82z M91.11,272.37c-0.62,0-1.24,0.58-1.43,1.68
			c0.76,0,1.52,0,2.32-0.04c0.24,0,0.33-0.07,0.33-0.27C92.35,273.02,91.87,272.37,91.11,272.37z"/>
		<path d="M97.87,273.63c-0.24-0.79-0.6-1.33-1.43-1.33c-0.47,0-0.84,0.34-0.84,0.88c0,0.58,0.39,0.85,1.15,1.21
			c1.17,0.56,1.75,0.96,1.75,1.86c0,1.25-1.14,1.89-2.21,1.89c-0.71,0-1.33-0.22-1.62-0.38c-0.07-0.39-0.19-1.14-0.24-1.59
			l0.39-0.07c0.24,0.87,0.72,1.57,1.67,1.57c0.52,0,0.95-0.35,0.95-0.92c0-0.61-0.37-0.92-1.09-1.28c-0.95-0.46-1.72-0.9-1.72-1.87
			c0-0.99,0.84-1.75,2.12-1.75c0.57,0,1.03,0.14,1.3,0.18c0.04,0.33,0.14,1.18,0.2,1.51L97.87,273.63z"/>
		<path d="M105.21,277.96c-0.23,0.12-0.45,0.18-0.58,0.18c-0.87,0-1.33-0.53-1.33-1.62v-3.95h-0.94l-0.05-0.16l0.37-0.39h0.62v-1.14
			c0.26-0.27,0.65-0.62,0.91-0.9l0.2,0.03c-0.03,0.57-0.04,1.36-0.04,2.01h1.55c0.12,0.14,0.08,0.43-0.08,0.56h-1.47v3.48
			c0,1.1,0.43,1.3,0.79,1.3c0.33,0,0.64-0.12,0.83-0.22l0.12,0.35L105.21,277.96z"/>
		<path d="M109.53,271.85c1.7,0,2.96,1.29,2.96,3.04c0,2.2-1.63,3.24-2.96,3.24c-1.87,0-3.01-1.51-3.01-3.03
			C106.52,272.9,108.24,271.85,109.53,271.85z M109.37,272.31c-0.83,0-1.57,0.8-1.57,2.38c0,1.72,0.76,2.97,1.87,2.97
			c0.84,0,1.55-0.61,1.55-2.47C111.21,273.6,110.56,272.31,109.37,272.31z"/>
	</g>
	<line class="st7" x1="123.72" y1="25.92" x2="126.88" y2="283.58"/>
	<line class="st7" x1="124.06" y1="53.49" x2="362.12" y2="53.49"/>
	<line class="st7" x1="371.08" y1="15.51" x2="371.08" y2="284.05"/>
</g>
<g id="Layer_5" class="st0">
	<polygon class="st1" points="137.03,20.81 137.03,29.84 134.9,34.92 135.96,46.7 137.03,57.82 135.96,64.8 135.96,70.25 
		135.96,78.97 133.37,82.46 131.41,89.44 131.41,94.46 131.41,99.25 128.57,102.09 128.57,105.36 127.27,108.41 128.36,118.66 
		125.74,132.62 122.47,139.16 122.47,169.25 121.51,213.37 123.78,236.37 124.42,254.27 127.49,270.34 137.03,269.28 145.06,271.96 
		156.31,271.96 162.21,276.79 167.03,275.71 172.93,277.86 179.9,275.18 190.62,274.11 196.25,277.86 200.8,279.2 206.97,283.76 
		210.99,283.76 214.47,280.81 219.3,280.81 219.3,278.13 222.51,281.08 227.07,277.86 231.09,278.93 242.61,275.18 247.44,275.98 
		251.72,275.18 257.89,269.82 263.79,271.43 268.61,269.28 274.24,272.77 280.67,273.03 282.28,277.05 289.25,276.25 287.1,194.78 
		284.98,17.23 280.11,18.54 277.44,17.23 275.01,18.67 271.19,17.23 267.62,18.41 263.79,17.23 260.61,17.9 257.93,17.23 
		256.78,17.23 255.76,18.79 253.98,18.28 251.81,19.3 248.37,17.9 242.76,18.54 240.97,17.23 239.32,17.23 236.13,16.24 
		235.49,17.39 232.31,18.79 231.03,17.26 228.35,17.9 223.64,16.88 220.83,20.2 217.64,18.54 211.53,19.43 210.12,18.67 
		208.72,19.3 205.41,18.79 201.84,20.83 197.88,19.56 193.8,17.9 187.94,18.79 184.24,17.14 175.83,18.92 172.64,16.88 
		170.86,18.28 166.39,18.28 163.72,17.77 159.89,18.79 156.07,16.88 151.22,18.03 150.08,17.65 148.93,19.3 145.74,18.03 
		142.17,18.03 141.15,19.43 138.22,17.77 135.29,18.41 	"/>
	<line class="st8" x1="135.42" y1="40.27" x2="255.33" y2="40.27"/>
	<line class="st7" x1="136.31" y1="50.19" x2="256.22" y2="50.19"/>
	<line class="st8" x1="123.96" y1="240.79" x2="254.47" y2="240.79"/>
</g>
<g id="Layer_6" class="st0">
	<polygon class="st1" points="376.93,40.28 376.93,27.62 368.93,24.96 355.6,32.62 344.27,24.96 340.44,29.62 330.79,29.62 
		327.82,24.96 320.03,24.96 311.87,27.4 307.42,24.96 300.37,27.02 297.78,21.46 291.47,21.46 288.5,26.65 278.12,25.17 
		272.18,34.07 265.13,37.41 258.08,37.41 254.74,34.07 247.7,28.88 240.65,34.44 231.37,27.77 225.07,28.51 216.16,26.28 
		212.08,27.77 204.66,30.87 198.73,30.87 193.16,30.87 193.16,35.56 183.15,40.28 177.95,36.67 167.57,35.56 162,32.59 
		151.99,34.82 147.91,27.4 141.97,33.7 136.04,33.7 130.1,30.87 118.6,30.87 103.02,44.83 97.76,47.43 97.76,53.73 93.75,56.7 
		88.55,65.98 88.55,71.91 86.7,77.85 86.7,89.72 83.36,100.48 86.33,112.35 88.55,131.27 87.81,143.51 89.66,216.22 89.29,227.72 
		88.92,237.73 91.89,243.67 97.76,246.27 103.39,254.43 109.7,265.93 118.23,265.93 124.91,270.38 132.33,268.15 141.23,272.6 
		149.39,272.6 153.47,278.54 157.92,273.72 160.15,267.04 167.2,263.33 167.57,259.62 178.7,253.68 180.18,246.27 189.08,241.44 
		196.87,240.33 199.84,244.78 209.49,250.35 214.68,247.75 219.13,250.35 222.1,255.91 230.14,255.54 235.83,262.96 243.62,258.51 
		247.7,250.72 251.41,251.83 259.2,246.64 263.65,251.83 270.7,250.72 279.23,245.52 283.68,251.46 292.21,251.46 296.66,257.77 
		303.71,262.96 305.57,258.88 309.28,252.94 319.29,256.28 328.94,251.46 340.44,252.94 347.11,244.41 353.05,247.01 360.84,244.78 
		369.37,244.78 371.97,250.35 384.21,252.94 386.07,249.23 384.21,241.07 381.61,226.6 381.61,209.54 374.57,192.85 361.95,176.15 
		360.84,159.46 361.21,143.88 363.07,139.43 362.7,126.81 366.41,122.36 366.41,109.75 370.11,105.3 	"/>
	<line class="st8" x1="88.55" y1="65.98" x2="374.46" y2="65.98"/>
	<line class="st8" x1="88.92" y1="237.73" x2="383.61" y2="237.73"/>
	<line class="st7" x1="89.29" y1="227.72" x2="381.61" y2="227.72"/>
</g>
<g id="Layer_7" class="st0">
	<polygon class="st1" points="46.36,44.84 46.36,55.18 40.04,60.92 40.04,67.24 40.04,74.7 37.75,83.32 46.36,90.78 46.36,109.73 
		46.36,121.22 42.05,135.57 42.05,143.1 35.06,146.3 33.15,152.8 42.92,164.86 39.76,179.79 46.36,186.11 42.61,191.14 
		44.37,202.61 44.37,213.64 46.36,227.31 46.36,243.19 57.16,245.84 73.04,245.84 91.57,243.64 104.36,242.75 111.86,245.84 
		147.59,245.84 155.09,242.75 197,243.19 201.62,238.1 215.29,241.25 217.65,240.2 251.56,240.46 251.56,243.35 267.33,243.35 
		270.48,245.84 296.77,244.67 329.03,245.84 360.83,241.53 377.86,237.95 380.55,229.88 375.62,226.3 374.28,212.86 380.55,203 
		378.31,190.46 383.68,189.11 383.68,181.05 385.92,175.23 390.29,167.16 384.58,161.79 383.68,155.96 381,148.35 379.2,130.43 
		383.24,126.84 386.37,119.22 381.89,116.09 381.89,112.06 376.96,104.44 380.1,99.06 373.83,90.55 374.28,83.83 377.86,72.18 
		375.62,63.67 376.07,55.61 374.72,50.68 380.55,36.84 333.95,38.58 240.77,39.93 117.12,43.51 51.26,40.37 	"/>
	<line class="st7" x1="75.68" y1="41.54" x2="75.68" y2="245.84"/>
</g>
<g id="Layer_8">
	<polygon class="st9" points="309.76,23.02 304.41,24.52 299.74,23.77 296.11,24.52 292.47,19.84 287.54,19.84 281.32,15.17 
		275.87,19.84 273.99,16.59 270.55,19.84 265.45,17 259.95,23.34 256.36,21.13 253.33,23.89 251.13,23.06 248.24,25.81 244.8,28.29 
		241.9,26.78 238.6,28.29 235.29,26.5 231.02,26.09 228.82,22.78 225.79,26.92 221.38,27.47 214.63,28.84 212.29,26.37 
		208.44,28.84 205.68,27.61 201.69,30.64 197.97,29.4 195.22,30.64 188.05,30.64 185.16,29.12 181.3,32.84 178.14,31.87 
		174.01,34.08 169.32,35.32 167.26,39.72 169.87,44.82 169.6,49.92 170.01,56.25 171.39,63.14 169.32,66.72 170.7,69.61 
		167.26,75.67 168.91,78.56 168.81,79.57 168.5,85.45 170.56,86.55 169.6,91.51 170.84,101.84 168.63,105.28 170.56,109.55 
		168.91,112.58 168.36,119.88 170.56,123.32 168.91,128.01 171.94,132.28 170.15,136.82 170.42,146.87 170.84,152.93 169.46,160.65 
		170.29,165.05 169.19,171.11 170.84,178.41 170.29,181.31 167.81,184.61 170.42,189.71 168.22,193.01 169.46,196.87 169.05,203.2 
		170.29,207.75 168.63,212.98 168.77,215.46 168.77,220.56 166.43,224.83 168.08,226.48 167.81,232.4 167.26,233.92 168.36,236.67 
		168.91,241.9 174.83,241.9 175.8,240.11 178.69,241.9 183.37,241.35 185.57,239.15 187.36,241.9 190.95,239.98 192.6,242.87 
		196.73,242.87 202.93,240.94 205.27,242.87 208.44,241.35 211.6,243.56 216.15,242.73 217.94,239.84 220.69,242.04 225.1,241.35 
		228.82,242.87 232.13,242.73 238.09,248.51 243.14,246.17 245.9,246.45 252.51,245.48 258.16,243.28 263.8,243.28 268.21,245.62 
		271.79,247.69 275.65,246.31 278.4,248.51 284.46,248.51 293.41,249.62 304.29,244.52 309.76,239.98 316,243.69 323.57,244.93 
		327.43,240.11 327.43,234.47 325.23,226.2 325.64,219.32 323.44,209.95 324.68,200.45 323.44,195.77 323.85,190.12 322.33,169.46 
		324.4,158.03 323.3,137.23 322.47,110.38 327.43,101.56 325.09,96.33 326.05,92.47 324.54,41.38 327.43,32.7 324.95,23.06 
		321.2,22.85 317.05,21.55 	"/>
	<line class="st10" x1="169.82" y1="45.6" x2="309.61" y2="45.6"/>
	<line class="st11" x1="170.1" y1="56.59" x2="309.61" y2="56.59"/>
	<line class="st10" x1="168.81" y1="79.82" x2="309.61" y2="79.82"/>
</g>
</svg>
