<svg id="Layer_3" data-name="Layer 3" xmlns="http://www.w3.org/2000/svg" viewBox="0 0 394.96 264.76"><defs><style>.cls-1{fill:#fff;}.cls-2{fill:none;stroke:#090000;stroke-miterlimit:10;}</style></defs><polygon class="cls-1" points="28 42.83 35.73 25.04 43.46 21.18 52.34 13.14 55.64 16 58.48 16 61.85 21.36 69.2 16.17 76.11 16.6 86.92 22.23 96.87 16.6 101.62 22.23 108.97 18.33 114.59 24.39 121.51 23.09 130.59 25.25 137.51 21.36 144.86 21.36 149.18 23.52 149.18 18.77 162.15 22.23 167.86 16.97 175.35 16.97 176.09 13.14 180.84 14.47 192.81 9.23 200.8 0 206.79 6.74 211.28 4.49 220.52 6.49 222.26 11.73 227 7.99 235.99 6.74 238.48 10.23 244.22 9.98 247.47 11.73 253.46 8.98 256.45 6.24 261.19 9.98 265.19 6.24 270.68 7.99 278.16 9.23 284.15 3.74 287.65 0 292.64 1.5 297.88 1.5 301.62 3.49 304.12 6.74 308.86 4.99 313.6 10.98 319.34 8.48 324.08 8.98 330.07 5.99 336.81 4.99 341.05 3.49 342.05 0 348.54 2 353.03 1.25 356.77 3.49 360.52 5.49 366.26 3.99 371 5.49 377.99 4.24 381.73 5.99 386.97 4.99 389.47 5.24 394.96 7.24 394.96 251.47 386.06 258.77 379.32 254.05 375.49 256.35 371.67 252.9 366.31 256.73 360.19 258.77 347.57 252.9 344.13 255.96 336.86 253.28 328.83 255.2 325.01 258.77 320.03 251.37 312.77 251.37 308.56 254.05 303.97 252.14 296.7 255.96 293.26 258.77 289.82 255.2 284.46 255.58 278.34 252.14 272.22 261.7 262.66 257.11 253.1 253.67 248.13 256.73 242.01 259.02 237.8 254.05 232.44 251.37 228.62 253.28 221.74 250.22 215.62 247.16 211.48 247.55 208.73 252.14 200.32 254.05 194.96 249.46 188.46 251.37 180.81 254.43 178.13 259.79 170.1 261.7 165.51 257.88 159.03 260.17 151.36 264.76 143.33 264.76 135.68 261.7 124.2 261.32 112.73 256.73 108.9 257.49 104.31 257.11 99.34 259.02 95.52 258.26 88.25 256.35 79.8 257.9 74.02 257.46 67.35 260.57 60.91 256.57 58.22 253.47 57.07 252.08 55.6 252.08 54.07 250.04 46.01 247.68 42.9 252.57 35.34 255.46 31.34 252.79 28 255.46 26.68 258.35 24.45 257.68 21.34 256.79 17.78 258.57 14 255.01 9.78 251.68 4.45 247.45 0 229.45 0 221.45 2.22 218.11 1.56 214.11 0 210.11 0 206.33 1.11 195.22 2 187.88 2.98 171.64 5.56 163.24 5.45 156.91 8.81 150.8 8.84 133.29 5.56 120.76 8.35 103.21 9.37 95.36 10.02 89.75 11.44 82.05 14.58 76.35 16 68.94 20 67.51 23.13 62.1 27.12 58.67 24.56 48.13 26.27 45.56 28 42.83"/><path d="M86.31,62.71v-.42c1-.09,1.06-.17,1.06-1.2V58c0-.94,0-1-1-1.15v-.36a10.22,10.22,0,0,0,2.15-.61v5.26c0,1,.11,1.11,1.1,1.2v.42Zm1.58-8.37a.83.83,0,0,1-.81-.81.82.82,0,0,1,.83-.83.79.79,0,0,1,.77.83A.81.81,0,0,1,87.89,54.34Z" transform="translate(-52.52 -19.87)"/><path d="M94.81,62.71v-.42c.88-.09,1-.2,1-1.23V58.55c0-1.07-.38-1.78-1.39-1.78a2.62,2.62,0,0,0-1.68.79v3.56c0,1.05.09,1.08,1,1.17v.42H90.41v-.42c1-.11,1.1-.17,1.1-1.17V58c0-1-.11-1-.93-1.18v-.39a8.6,8.6,0,0,0,2.13-.61V57l1-.7A2.36,2.36,0,0,1,95,55.86c1.22,0,2,.89,2,2.37v2.89c0,1,.09,1.08,1,1.17v.42Z" transform="translate(-52.52 -19.87)"/><path d="M82.22,91.4a1.5,1.5,0,0,1-.65.2c-1,0-1.49-.6-1.49-1.81V85.37H79L79,85.18l.41-.44h.7V83.47c.29-.31.73-.7,1-1l.23,0c0,.64,0,1.52,0,2.25H83a.47.47,0,0,1-.09.63H81.28v3.89c0,1.23.49,1.46.88,1.46a2.1,2.1,0,0,0,.93-.25l.14.4Z" transform="translate(-52.52 -19.87)"/><path d="M88,91.42V91c.88-.09,1-.17,1-1.17V87.33c0-1.26-.49-1.9-1.51-1.89a2.18,2.18,0,0,0-1.61.79v3.59c0,1,.12,1.08,1,1.17v.43H83.65V91c.88-.08,1.08-.15,1.08-1.17V82.49c0-.8,0-1-1.06-1.09V81a9.33,9.33,0,0,0,2.26-.51v5.18a3.42,3.42,0,0,1,2.2-1.11c1.25,0,2.12.78,2.12,2.6v2.67c0,1,.12,1.08,1,1.16v.43Z" transform="translate(-52.52 -19.87)"/><path d="M97.63,90.12a3.45,3.45,0,0,1-2.52,1.48,3,3,0,0,1-3-3.27,3.88,3.88,0,0,1,1-2.66,3.13,3.13,0,0,1,2.26-1.11,2.37,2.37,0,0,1,2.33,2.36c0,.3-.06.44-.31.5s-2.25.2-4.05.26c0,2,1.2,2.87,2.28,2.87a2.56,2.56,0,0,0,1.76-.78Zm-2.61-5c-.7,0-1.39.65-1.6,1.88.85,0,1.7,0,2.6,0,.27,0,.37-.08.37-.31A1.42,1.42,0,0,0,95,85.14Z" transform="translate(-52.52 -19.87)"/><path d="M71.65,99.5c-.77.13-.91.29-1.23,1.14-.44,1.17-1.17,3.29-1.82,5.29h-.48c-.6-1.62-1.23-3.2-1.82-4.77-.56,1.4-1.25,3.09-1.85,4.77H64l-.48-1.55.44-2.46c.22.7.45,1.4.66,2.07.61-1.55,1.22-3.13,1.81-4.82h.41c.56,1.58,1.19,3.22,1.83,4.86.33-.92.82-2.41,1.11-3.52.19-.79.07-.87-1-1v-.41h2.84Z" transform="translate(-52.52 -19.87)"/><path d="M77,106a1.08,1.08,0,0,1-.71-.29,1.46,1.46,0,0,1-.37-.68,4.71,4.71,0,0,1-1.82,1,1.87,1.87,0,0,1-1.86-1.87,1.54,1.54,0,0,1,1.25-1.52,11.43,11.43,0,0,0,2.4-1v-.3c0-1.08-.54-1.7-1.33-1.7a.89.89,0,0,0-.72.34,3.38,3.38,0,0,0-.41,1,.42.42,0,0,1-.44.35.73.73,0,0,1-.67-.67c0-.21.2-.39.5-.6A6.29,6.29,0,0,1,75,98.91,2,2,0,0,1,77,101.09V104c0,.7.26.91.54.91a1.07,1.07,0,0,0,.54-.17l.15.43Zm-1.11-3.85c-.33.17-1.06.49-1.41.64-.58.26-.93.55-.93,1.11a1.1,1.1,0,0,0,1.1,1.17,2,2,0,0,0,1.24-.54Z" transform="translate(-52.52 -19.87)"/><path d="M82.76,100.9c-.28-.88-.67-1.49-1.6-1.49a.92.92,0,0,0-.94,1c0,.65.44,1,1.29,1.35,1.31.63,2,1.08,2,2.09A2.27,2.27,0,0,1,81,106a3.88,3.88,0,0,1-1.81-.43c-.07-.44-.21-1.27-.27-1.77l.44-.08c.28,1,.81,1.76,1.87,1.76a1,1,0,0,0,1.07-1c0-.69-.41-1-1.22-1.43-1.06-.52-1.93-1-1.93-2.1a2.1,2.1,0,0,1,2.37-2,7.37,7.37,0,0,1,1.46.2c0,.36.15,1.32.23,1.69Z" transform="translate(-52.52 -19.87)"/><path d="M96.42,106a1.11,1.11,0,0,1-.72-.29,1.45,1.45,0,0,1-.36-.68,4.74,4.74,0,0,1-1.83,1,1.86,1.86,0,0,1-1.85-1.87,1.54,1.54,0,0,1,1.25-1.52,11.92,11.92,0,0,0,2.4-1v-.3c0-1.08-.55-1.7-1.34-1.7a.87.87,0,0,0-.71.34,3.13,3.13,0,0,0-.41,1,.43.43,0,0,1-.45.35.73.73,0,0,1-.66-.67c0-.21.19-.39.5-.6a6.29,6.29,0,0,1,2.19-1.07,2,2,0,0,1,2,2.18V104c0,.7.26.91.53.91a1.14,1.14,0,0,0,.55-.17l.15.43Zm-1.11-3.85c-.34.17-1.07.49-1.42.64-.57.26-.92.55-.92,1.11A1.1,1.1,0,0,0,94.06,105a2,2,0,0,0,1.25-.54Z" transform="translate(-52.52 -19.87)"/><path d="M65.51,115.25c-.27-.88-.67-1.49-1.6-1.49a.92.92,0,0,0-.94,1c0,.66.44,1,1.29,1.36,1.31.62,2,1.07,2,2.08a2.25,2.25,0,0,1-2.47,2.11,4,4,0,0,1-1.81-.42c-.08-.45-.22-1.28-.28-1.78l.44-.08c.28,1,.81,1.76,1.87,1.76a1,1,0,0,0,1.07-1c0-.68-.41-1-1.22-1.43-1.06-.52-1.93-1-1.93-2.1a2.1,2.1,0,0,1,2.37-2,7.37,7.37,0,0,1,1.46.2c0,.37.15,1.32.23,1.69Z" transform="translate(-52.52 -19.87)"/><path d="M72.17,120.3a1.11,1.11,0,0,1-.72-.29,1.36,1.36,0,0,1-.36-.68,4.81,4.81,0,0,1-1.83,1,1.86,1.86,0,0,1-1.85-1.87,1.55,1.55,0,0,1,1.24-1.52,11.81,11.81,0,0,0,2.41-1v-.3c0-1.08-.55-1.7-1.34-1.7a.88.88,0,0,0-.72.35,3.46,3.46,0,0,0-.41,1,.41.41,0,0,1-.44.35.73.73,0,0,1-.67-.66c0-.22.2-.4.5-.61a6.67,6.67,0,0,1,2.19-1.07,2,2,0,0,1,2.06,2.18v2.93c0,.7.25.91.53.91a1.07,1.07,0,0,0,.54-.17l.16.43Zm-1.11-3.84-1.42.63c-.58.26-.93.55-.93,1.11a1.1,1.1,0,0,0,1.1,1.17,2.07,2.07,0,0,0,1.25-.54Z" transform="translate(-52.52 -19.87)"/><path d="M76.92,120.1a1.5,1.5,0,0,1-.65.2c-1,0-1.49-.59-1.49-1.81v-4.42h-1l-.06-.18.41-.44h.7v-1.28c.29-.31.73-.7,1-1l.22,0c0,.63,0,1.52,0,2.25h1.73a.47.47,0,0,1-.09.62H76V118c0,1.23.48,1.46.88,1.46a2.34,2.34,0,0,0,.93-.24l.13.39Z" transform="translate(-52.52 -19.87)"/><path d="M78.55,120.12v-.43c1-.09,1.06-.16,1.06-1.2v-3.13c0-.94,0-1-1-1.15v-.37a9.74,9.74,0,0,0,2.16-.61v5.26c0,1,.11,1.11,1.09,1.2v.43Zm1.58-8.38a.83.83,0,0,1-.81-.8.82.82,0,0,1,.82-.84.8.8,0,0,1,.78.84A.81.81,0,0,1,80.13,111.74Z" transform="translate(-52.52 -19.87)"/><path d="M86.07,113.26a3.27,3.27,0,0,1,3.31,3.41,3.4,3.4,0,0,1-3.31,3.63,3.34,3.34,0,0,1-3.38-3.39A3.48,3.48,0,0,1,86.07,113.26Zm-.18.52c-.93,0-1.77.9-1.77,2.66,0,1.93.85,3.33,2.1,3.33.94,0,1.73-.69,1.73-2.77C88,115.22,87.22,113.78,85.89,113.78Z" transform="translate(-52.52 -19.87)"/><path d="M94.73,120.12v-.43c.88-.09,1-.19,1-1.23V116c0-1.06-.38-1.77-1.38-1.77a2.64,2.64,0,0,0-1.69.79v3.55c0,1,.09,1.08,1,1.17v.43H90.34v-.43c1-.1,1.09-.16,1.09-1.17v-3.13c0-1-.1-1-.93-1.17v-.39a8.92,8.92,0,0,0,2.13-.61v1.2l1-.7a2.35,2.35,0,0,1,1.26-.46c1.21,0,2,.9,2,2.37v2.89c0,1,.09,1.08,1,1.17v.43Z" transform="translate(-52.52 -19.87)"/><path d="M62.36,134.47V134c.89-.09,1-.19,1-1.23V130.3c0-1.06-.38-1.77-1.39-1.77a2.62,2.62,0,0,0-1.68.79v3.55c0,1,.09,1.08,1,1.17v.43H59.06l1.09-6.85.12-.05v1.2l1-.7a2.38,2.38,0,0,1,1.26-.46c1.22,0,2,.9,2,2.38v2.88c0,1,.09,1.08,1,1.17v.43Z" transform="translate(-52.52 -19.87)"/><path d="M68.41,132.25a1.13,1.13,0,0,0-.5.76c0,.27.26.58.94.58l1.7,0c1,0,2.22.32,2.22,1.83s-1.87,3.07-3.89,3.07c-1.72,0-2.64-1-2.67-1.9a1.17,1.17,0,0,1,.38-.87,12.89,12.89,0,0,1,1.24-1.09,2.09,2.09,0,0,1-1.14-.82,1.49,1.49,0,0,1-.18-.66,3.17,3.17,0,0,0,1.4-1Zm.73.15a2.35,2.35,0,0,1-2.58-2.29,2.61,2.61,0,0,1,2.73-2.54,3.14,3.14,0,0,1,1.46.38,10,10,0,0,0,2-.23l.09.14a1.82,1.82,0,0,1-.56.8c-.23,0-.73-.06-.94-.07a2.39,2.39,0,0,1,.44,1.38A2.46,2.46,0,0,1,69.14,132.4Zm.35,2.25a1.91,1.91,0,0,0-1.35.32,1.75,1.75,0,0,0-.73,1.25c0,.83.86,1.46,2,1.46,1.44,0,2.26-.75,2.26-1.72a1.13,1.13,0,0,0-.67-1.11A4,4,0,0,0,69.49,134.65Zm-.35-6.59c-.68,0-1.29.62-1.29,1.82s.61,2,1.44,2c.67,0,1.26-.6,1.26-1.83S70,128.06,69.14,128.06Z" transform="translate(-52.52 -19.87)"/><path d="M87,128.21c-.77.12-.91.29-1.23,1.14-.44,1.17-1.17,3.28-1.82,5.29h-.47c-.61-1.63-1.23-3.21-1.83-4.78-.56,1.4-1.24,3.09-1.85,4.78h-.46c-.54-1.81-1.12-3.61-1.75-5.43-.27-.82-.41-.91-1.15-1v-.41h3.16v.41c-.91.15-1,.23-.76.92.35,1.17.76,2.42,1.13,3.56.6-1.55,1.21-3.13,1.8-4.82h.41c.57,1.58,1.19,3.23,1.83,4.87.33-.93.82-2.42,1.11-3.53.2-.79.07-.87-1-1v-.41H87Z" transform="translate(-52.52 -19.87)"/><path d="M92.38,134.65a1.11,1.11,0,0,1-.72-.29,1.32,1.32,0,0,1-.36-.68,4.81,4.81,0,0,1-1.83,1,1.86,1.86,0,0,1-1.85-1.87,1.55,1.55,0,0,1,1.24-1.52,11.81,11.81,0,0,0,2.41-1V130c0-1.08-.55-1.7-1.34-1.7a.91.91,0,0,0-.72.35,3.54,3.54,0,0,0-.41,1,.42.42,0,0,1-.44.35.74.74,0,0,1-.67-.67c0-.22.2-.4.51-.61a6.51,6.51,0,0,1,2.18-1.07,2,2,0,0,1,2.06,2.18v2.93c0,.7.25.91.53.91a1.24,1.24,0,0,0,.55-.16l.15.42Zm-1.11-3.84-1.42.63c-.58.26-.93.55-.93,1.11a1.1,1.1,0,0,0,1.1,1.17,2.07,2.07,0,0,0,1.25-.54Z" transform="translate(-52.52 -19.87)"/><path d="M98.15,129.61c-.27-.89-.67-1.49-1.6-1.49a.92.92,0,0,0-.94,1c0,.66.44,1,1.29,1.36,1.31.62,2,1.08,2,2.08a2.25,2.25,0,0,1-2.47,2.11,4,4,0,0,1-1.81-.42c-.08-.44-.22-1.28-.28-1.78l.44-.08c.28,1,.81,1.77,1.87,1.77a1,1,0,0,0,1.07-1c0-.68-.41-1-1.22-1.43-1.06-.51-1.93-1-1.93-2.09a2.11,2.11,0,0,1,2.37-2,8.22,8.22,0,0,1,1.46.2c0,.37.15,1.32.23,1.69Z" transform="translate(-52.52 -19.87)"/><path d="M68.93,163.17c-.82,0-1.72,0-2,0-.09-.1-2.47-2.93-2.57-3-.21-.24-.3-.32-.44-.32a.93.93,0,0,0-.27,0v1.69c0,1,.08,1.08,1.06,1.17v.42H61.31v-.42c1-.09,1.1-.2,1.1-1.17v-7.27c0-1-.11-1-1-1.15v-.4a9.33,9.33,0,0,0,2.25-.52v7.25a1.72,1.72,0,0,0,1-.53,12.67,12.67,0,0,0,1.17-1.41c.32-.44.2-.56-.53-.62v-.43l3.13-.14v.41a2.71,2.71,0,0,0-2,1c-.29.3-1,1.08-1.29,1.47.3.43,1.85,2.19,2.35,2.72.73.73,1,.78,1.54.81Z" transform="translate(-52.52 -19.87)"/><path d="M74.63,161.88a3.45,3.45,0,0,1-2.53,1.47,3,3,0,0,1-3-3.26,3.91,3.91,0,0,1,1-2.66,3.11,3.11,0,0,1,2.27-1.11,2.37,2.37,0,0,1,2.32,2.35c0,.31-.06.44-.3.5s-2.25.2-4.06.26c0,2,1.2,2.88,2.28,2.88a2.56,2.56,0,0,0,1.76-.78Zm-2.62-5c-.7,0-1.38.65-1.59,1.88.85,0,1.7,0,2.6-.05.27,0,.36-.07.36-.3A1.41,1.41,0,0,0,72,156.9Z" transform="translate(-52.52 -19.87)"/><path d="M78.68,163.16a1.61,1.61,0,0,1-.65.19c-1,0-1.49-.59-1.49-1.8v-4.43H75.49l-.06-.18.41-.44h.7v-1.28c.29-.3.73-.7,1-1l.23,0c0,.64-.05,1.52-.05,2.25h1.73a.47.47,0,0,1-.09.62H77.74V161c0,1.24.49,1.46.88,1.46a2.11,2.11,0,0,0,.93-.24l.14.4Z" transform="translate(-52.52 -19.87)"/><path d="M90.38,163.16a1.61,1.61,0,0,1-.65.19c-1,0-1.49-.59-1.49-1.8v-4.43h-1l-.06-.18.41-.44h.7v-1.28c.29-.3.73-.7,1-1l.23,0c0,.64,0,1.52,0,2.25h1.73a.46.46,0,0,1-.09.62H89.44V161c0,1.24.49,1.46.88,1.46a2.11,2.11,0,0,0,.93-.24l.14.4Z" transform="translate(-52.52 -19.87)"/><path d="M95.22,156.32a3.26,3.26,0,0,1,3.31,3.4,3.41,3.41,0,0,1-3.31,3.63A3.33,3.33,0,0,1,91.84,160,3.48,3.48,0,0,1,95.22,156.32Zm-.19.51c-.92,0-1.76.9-1.76,2.66,0,1.93.85,3.33,2.1,3.33.94,0,1.73-.68,1.73-2.76C97.1,158.28,96.37,156.83,95,156.83Z" transform="translate(-52.52 -19.87)"/><path d="M63.58,176.23a3.46,3.46,0,0,1-2.52,1.48A2.84,2.84,0,0,1,58.4,176l2.93-5.32A2.38,2.38,0,0,1,63.66,173c0,.31-.06.45-.31.51s-1.92.18-3.73.24l-.31.57a2.34,2.34,0,0,0,2.26,2.32,2.58,2.58,0,0,0,1.77-.78Zm-3.6-3.1c.65,0,1.31,0,2,0,.27,0,.36-.08.36-.31A1.4,1.4,0,0,0,61,171.25S60,173.13,60,173.13Z" transform="translate(-52.52 -19.87)"/><path d="M64.92,178.89c.68-.32,1.21-.73,1.21-1.31s-.44-.68-1-.82c-.09,0-.24-.19-.24-.47a.77.77,0,0,1,.85-.76,1.45,1.45,0,0,1,1.29,1.61,2.46,2.46,0,0,1-2,2.19Z" transform="translate(-52.52 -19.87)"/><path d="M80.54,177.71a1.18,1.18,0,0,1-.72-.29,1.43,1.43,0,0,1-.36-.69,4.79,4.79,0,0,1-1.83,1,1.87,1.87,0,0,1-1.85-1.87A1.54,1.54,0,0,1,77,174.32a12.55,12.55,0,0,0,2.4-1V173c0-1.07-.55-1.7-1.34-1.7a.88.88,0,0,0-.71.35,3,3,0,0,0-.41,1,.44.44,0,0,1-.45.35.73.73,0,0,1-.66-.67c0-.21.19-.39.5-.61a6.29,6.29,0,0,1,2.19-1.06,2.12,2.12,0,0,1,1.27.41,2.07,2.07,0,0,1,.78,1.76v2.94c0,.7.26.91.53.91a1.26,1.26,0,0,0,.55-.17l.15.43Zm-1.11-3.85c-.34.17-1.07.49-1.42.64-.57.26-.92.55-.92,1.11a1.11,1.11,0,0,0,1.09,1.17,2,2,0,0,0,1.25-.55Z" transform="translate(-52.52 -19.87)"/><path d="M86.83,177.52v-.42c.88-.09,1-.2,1-1.23v-2.51c0-1.06-.38-1.78-1.38-1.78a2.7,2.7,0,0,0-1.69.79v3.56c0,1,.09,1.08,1,1.17v.42H82.44v-.42c1-.11,1.09-.17,1.09-1.17V172.8c0-1-.11-1-.93-1.17v-.4a8.48,8.48,0,0,0,2.13-.61v1.2l1-.7a2.39,2.39,0,0,1,1.27-.45c1.21,0,2,.9,2,2.37v2.89c0,1,.09,1.08,1,1.17v.42Z" transform="translate(-52.52 -19.87)"/><path d="M98.21,177.14a16.25,16.25,0,0,0-2.36.57v-1c-.27.17-.66.38-.94.55a2.77,2.77,0,0,1-1.2.44,3.18,3.18,0,0,1-2.83-3.35,3.83,3.83,0,0,1,3.94-3.69,3,3,0,0,1,1,.17V168.6c0-1-.1-1-1.18-1.09v-.4a15.58,15.58,0,0,0,2.39-.51v9.16c0,.79.1.9.66.93l.49,0ZM95.85,172a1.87,1.87,0,0,0-1.59-.78c-.73,0-2,.49-2,2.68,0,1.84,1.14,2.81,2.11,2.82a2.72,2.72,0,0,0,1.5-.54Z" transform="translate(-52.52 -19.87)"/><line class="cls-2" x1="56.03" y1="16" x2="56.03" y2="252.08"/></svg>