<svg id="Layer_4" data-name="Layer 4" xmlns="http://www.w3.org/2000/svg" viewBox="0 0 311.96 281.55"><defs><style>.cls-1{fill:#fff;}.cls-2{fill:none;stroke:#000;stroke-miterlimit:10;stroke-width:0.5px;}</style></defs><polygon class="cls-1" points="10.75 16.99 10.75 28.29 10.75 36.98 6.69 43.36 1.48 66.54 6.11 79.87 1.48 90.3 1.48 108.85 1.48 116.38 1.48 130.87 1.48 148.83 3.94 162.1 3.28 176.54 3.5 187.48 0 199.73 3.06 212.2 0 225.76 1.09 249.83 0 260.76 0 266.67 3.72 272.8 8.09 270.17 13.35 274.77 19.25 272.14 23.84 274.77 23.84 272.8 29.53 273.67 36.1 269.3 39.29 271.16 39.4 271.14 41.54 271.11 51.19 253.11 59.5 260.55 69.57 264.05 76.57 270.61 81.6 268.2 88.38 266.67 90.35 267.98 99.76 262.51 102.82 261.86 105.88 263.17 108.29 266.01 117.91 260.76 123.38 260.76 129.07 264.05 134.94 263.83 144.16 258.14 150.51 255.95 153.13 259.89 153.13 265.36 160.13 270.17 164.29 266.23 169.54 269.51 176.76 268.86 185.29 261.42 190.32 254.86 193.82 256.83 196.45 261.2 196.45 264.7 202.14 262.51 206.73 267.55 212.2 262.73 217.01 260.33 223.57 252.89 231.67 256.39 237.79 260.11 243.7 264.7 249.39 266.01 258.58 257.92 264.7 255.3 272.14 259.23 274.98 264.26 279.36 265.14 281.55 269.3 283.59 271.6 287.14 271.6 292.6 270.99 295.33 277.17 299.92 281.55 306.92 281.55 311.95 274.98 305.39 263.61 308.24 250.05 311.95 231.67 308.45 218.72 303.42 206.07 303.64 194.92 299.92 181.13 299.7 170.85 294.45 151.16 294.45 136.51 292.49 117.26 289.64 100.19 295.33 86.85 294.02 12.91 291.61 3.06 275.2 3.06 271.05 5.69 259.89 3.06 252.67 4.81 247.42 4.81 242.61 3.06 237.79 3.06 233.64 5.25 226.42 5.69 221.39 9.19 213.51 10.28 211.54 8.97 208.92 6.78 203.67 6.78 198.2 3.06 190.1 0 183.98 2.63 181.13 7.22 177.2 8.09 173.04 11.16 166.48 11.16 163.2 7.88 155.98 8.97 149.41 11.38 148.32 13.56 144.6 12.47 139.79 15.31 137.16 20.34 132.57 20.56 129.51 19.69 126.01 19.91 117.26 20.56 113.54 19.03 111.57 13.78 107.85 11.59 103.47 13.13 96.25 16.84 94.07 13.56 87.94 18.16 86.85 25.81 81.38 18.81 78.97 13.35 75.25 16.19 67.82 12.25 62.13 9.63 55.13 16.19 49.88 13.78 45.5 14 37.18 13.47 36.21 13.48 36.1 12.03 33.69 10.5 31.06 11.16 27.78 12.03 23.63 9.41 21.44 13.56 16.41 17.94 10.75 16.99"/><path d="M248.84,23.06v-.38c.8-.08.89-.14.89-1.09V20.41l-2.63.38v.88c0,.86.12.93.87,1v.38h-2.91v-.38c.84-.08,1-.14,1-1V21l-2.65.42v.28c0,.89.1,1,.87,1v.38h-2.92v-.38c.88-.08,1-.14,1-1l.76-.28c1.87-.33,7.22-1.1,7.22-1.1l.51.5v.83c0,.91.08,1,.85,1v.38Z" transform="translate(-87.11 -12.45)"/><path d="M262.08,23a1.28,1.28,0,0,1-.58.18,1.45,1.45,0,0,1-.65-.13l.91-.71a.65.65,0,0,0,.27.05,2.06,2.06,0,0,0,.83-.21l.12.35Z" transform="translate(-87.11 -12.45)"/><path d="M268.3,21.9A3.09,3.09,0,0,1,266,23.22a2.59,2.59,0,0,1-2.56-2.11l.82-.57.23-.05a2,2,0,0,0,2,1.79,2.3,2.3,0,0,0,1.57-.69Z" transform="translate(-87.11 -12.45)"/><path d="M276.7,23.22a1,1,0,0,1-.64-.26,1.13,1.13,0,0,1-.32-.61,4.28,4.28,0,0,1-1.63.87,1.66,1.66,0,0,1-1.66-1.67,1.39,1.39,0,0,1,1.11-1.36,10.73,10.73,0,0,0,2.15-.88V19c0-1-.49-1.52-1.2-1.52a.77.77,0,0,0-.63.31,2.86,2.86,0,0,0-.37.88.38.38,0,0,1-.39.32.66.66,0,0,1-.6-.6c0-.19.17-.35.45-.54a5.71,5.71,0,0,1,1.95-1,1.9,1.9,0,0,1,1.14.37,1.87,1.87,0,0,1,.69,1.58V21.5c0,.62.23.81.48.81a1.12,1.12,0,0,0,.49-.15l.13.38Zm-1-3.43c-.3.15-.95.43-1.26.57-.52.23-.83.48-.83,1a1,1,0,0,0,1,1,1.76,1.76,0,0,0,1.12-.49Z" transform="translate(-87.11 -12.45)"/><path d="M286.72,21.84a3.26,3.26,0,0,1-2.33,1.38,2.74,2.74,0,0,1-2.74-2.85A3.22,3.22,0,0,1,283,17.71a3.6,3.6,0,0,1,2.07-.78,2,2,0,0,1,1.26.37.44.44,0,0,1,.22.39.69.69,0,0,1-.49.62c-.07,0-.12,0-.26-.14a2,2,0,0,0-1.37-.57c-.9,0-1.69.76-1.69,2.17a2.22,2.22,0,0,0,2.07,2.51,2.17,2.17,0,0,0,1.65-.74Z" transform="translate(-87.11 -12.45)"/><path d="M291.75,23.22a1,1,0,0,1-.64-.26,1.2,1.2,0,0,1-.32-.61,4.28,4.28,0,0,1-1.63.87,1.66,1.66,0,0,1-1.66-1.67,1.39,1.39,0,0,1,1.11-1.36,10.73,10.73,0,0,0,2.15-.88v-.08l-1.9-1.3a3.87,3.87,0,0,0-.3.78.38.38,0,0,1-.39.32.66.66,0,0,1-.6-.6c0-.19.18-.35.45-.54a3.69,3.69,0,0,1,.39-.27l2.35,1.61h1V21.5c0,.62.24.81.48.81a1.12,1.12,0,0,0,.49-.15l.13.38Zm-1-3.43c-.3.15-.95.43-1.26.57-.52.23-.83.48-.83,1a1,1,0,0,0,1,1,1.75,1.75,0,0,0,1.11-.49Z" transform="translate(-87.11 -12.45)"/><path d="M297.37,23.06v-.38c.79-.08.87-.18.87-1.1v-.51L296,19.23h-.53v2.4c0,.94.08,1,.88,1.05v.38h-2.93v-.38c.89-.1,1-.15,1-1.05v-2.4H296l2.21,1.84,1.07.79c0,.7.15.74.87.82v.38Z" transform="translate(-87.11 -12.45)"/><path d="M307.54,22.72a14.25,14.25,0,0,0-2.11.5v-.88l-.84.49a2.47,2.47,0,0,1-1.07.39,2.37,2.37,0,0,1-1.57-.68l4.58-.63c.05.32.19.38.57.4l.44,0Zm-3.87-.41a1.54,1.54,0,0,0,.42.07,2.33,2.33,0,0,0,1-.27Z" transform="translate(-87.11 -12.45)"/><path d="M308.17,23.06v-.38c.86-.08.95-.15.95-1.08v-.4l1.07-.75V21.6c0,.93.1,1,1,1.08v.38Z" transform="translate(-87.11 -12.45)"/><path d="M318.42,22.72a14.19,14.19,0,0,0-2.1.5v-.88l-.85.49a2.47,2.47,0,0,1-1.07.39,2.83,2.83,0,0,1-2.52-3,3.18,3.18,0,0,1,.19-1.08l1.46-1,3.86-.23v3.58c0,.71.09.8.6.83l.43,0ZM316.32,18l-2.77.18a2.78,2.78,0,0,0-.47,1.7c0,1.65,1,2.52,1.89,2.53a2.5,2.5,0,0,0,1.35-.49Z" transform="translate(-87.11 -12.45)"/><path d="M323.36,23.22a1,1,0,0,1-.64-.26,1.13,1.13,0,0,1-.32-.61,4.28,4.28,0,0,1-1.63.87,1.66,1.66,0,0,1-1.66-1.67,1.39,1.39,0,0,1,1.11-1.36,10.73,10.73,0,0,0,2.15-.88V19c0-1-.49-1.52-1.2-1.52h-.1l-.32.18h-.09l-.12.13a2.86,2.86,0,0,0-.37.88.38.38,0,0,1-.39.32.66.66,0,0,1-.6-.6c0-.19.17-.35.45-.54a1.56,1.56,0,0,1,.19-.14l.84-.05h.09l1.33-.7a1.64,1.64,0,0,1,.64.3,1.87,1.87,0,0,1,.69,1.58V21.5c0,.62.23.81.48.81a1.12,1.12,0,0,0,.49-.15l.13.38Zm-1-3.43c-.3.15-.95.43-1.26.57-.52.23-.83.48-.83,1a1,1,0,0,0,1,1,1.75,1.75,0,0,0,1.11-.49Z" transform="translate(-87.11 -12.45)"/><path d="M327.61,23a1.28,1.28,0,0,1-.59.18c-.87,0-1.33-.53-1.33-1.62v-4h-.93l-.06-.16.37-.39h.62V16c.13-.14.29-.29.46-.45h.64c0,.5,0,1.08,0,1.59h1.54a.41.41,0,0,1-.08.55h-1.46v3.48c0,1.1.43,1.3.78,1.3a2,2,0,0,0,.83-.21l.12.35Z" transform="translate(-87.11 -12.45)"/><path d="M333.82,21.9a3.09,3.09,0,0,1-2.25,1.32,2.71,2.71,0,0,1-2.66-2.92,3.45,3.45,0,0,1,.88-2.37,2.79,2.79,0,0,1,2-1A2.12,2.12,0,0,1,333.89,19c0,.27-.05.39-.27.45s-2,.17-3.62.23c-.05,1.82,1.07,2.56,2,2.56a2.32,2.32,0,0,0,1.58-.69Zm-2.33-4.45c-.63,0-1.24.58-1.43,1.68.76,0,1.52,0,2.32,0,.25,0,.33-.06.33-.27A1.26,1.26,0,0,0,331.49,17.45Z" transform="translate(-87.11 -12.45)"/><path d="M340.44,17.1h.87a.49.49,0,0,1-.13.55h-1.3v3.93c0,1,.15,1,1.16,1.1v.38h-3.19v-.38c.86-.08.95-.14.95-1v-4h-1l0-.15.18-.24h1.81Z" transform="translate(-87.11 -12.45)"/><path d="M344.86,16.93a2.93,2.93,0,0,1,3,3.05,3,3,0,0,1-3,3.24,3,3,0,0,1-3-3A3.12,3.12,0,0,1,344.86,16.93Zm-.17.47c-.82,0-1.57.8-1.57,2.37,0,1.73.76,3,1.87,3,.84,0,1.55-.62,1.55-2.48C346.54,18.69,345.89,17.4,344.69,17.4Z" transform="translate(-87.11 -12.45)"/><path d="M351.82,23.06H348.7v-.38c.85-.08.93-.15.93-1V18.82c0-.89-.05-.93-.84-1v-.34a7.39,7.39,0,0,0,1.92-.56v1.5c.47-.71,1-1.46,1.72-1.46a.71.71,0,0,1,.79.66.9.9,0,0,1-.46.74.28.28,0,0,1-.36,0,.82.82,0,0,0-.61-.34c-.28,0-.79.42-1.08,1.11v2.55c0,.9.06,1,1.11,1.05Z" transform="translate(-87.11 -12.45)"/><path d="M171.73,35.41a2.92,2.92,0,0,1-1.27.63,1.66,1.66,0,0,1-1.66-1.67A1.36,1.36,0,0,1,169.87,33Zm-1.48-1.9a.84.84,0,0,0-.28.66,1,1,0,0,0,1,1,1.35,1.35,0,0,0,.53-.12Z" transform="translate(-87.11 -12.45)"/><path d="M182.23,35.88V35.5c.8-.09.89-.14.89-1.09V32.14c0-1-.32-1.57-1.17-1.57a2.46,2.46,0,0,0-1.5.7c0,.17,0,.33,0,.59v2.63c0,.86.12.92.87,1v.38h-2.91V35.5c.84-.09,1-.14,1-1V32.13c0-1-.32-1.56-1.14-1.56a2.58,2.58,0,0,0-1.5.7v3.19c0,.9.1.95.87,1v.38h-2.92V35.5c.9-.09,1-.14,1-1V31.65a1.11,1.11,0,0,0-.66-1l0,0,.66-.5a7.43,7.43,0,0,0,1-.37v1.1a8.23,8.23,0,0,1,1-.7,1.81,1.81,0,0,1,1.07-.36,1.59,1.59,0,0,1,1.48,1.12c.38-.3.73-.53,1.07-.76a2.07,2.07,0,0,1,1.07-.36c1.06,0,1.71.76,1.71,2.09v2.62c0,.91.09.95.86,1v.38Z" transform="translate(-87.11 -12.45)"/><path d="M188.63,29.89a1.55,1.55,0,0,1,.6-.14,2.78,2.78,0,0,1,2.67,2.88A3.46,3.46,0,0,1,188.55,36a5.11,5.11,0,0,1-2.09-.49V27.7l1.07-.56v3.22Zm-1.1,4.41a1.11,1.11,0,0,0,.07.48,1.53,1.53,0,0,0,1.34.73c1.17,0,1.75-1,1.75-2.54a2.18,2.18,0,0,0-2.06-2.46,2.74,2.74,0,0,0-1.1.26Z" transform="translate(-87.11 -12.45)"/><path d="M197.15,36a1,1,0,0,1-.63-.26,1.3,1.3,0,0,1-.33-.61,4.21,4.21,0,0,1-1.63.87,1.66,1.66,0,0,1-1.65-1.67A1.38,1.38,0,0,1,194,33a10.59,10.59,0,0,0,2.14-.88v-.27c0-1-.49-1.52-1.19-1.52a.81.81,0,0,0-.64.31,3.12,3.12,0,0,0-.37.88.37.37,0,0,1-.39.31.65.65,0,0,1-.6-.59c0-.19.18-.36.45-.55a5.86,5.86,0,0,1,2-.95,1.87,1.87,0,0,1,1.14.37,1.89,1.89,0,0,1,.69,1.57v2.62c0,.63.23.82.47.82a1.08,1.08,0,0,0,.49-.15l.14.38Zm-1-3.44c-.3.15-.95.44-1.26.57-.52.23-.83.49-.83,1a1,1,0,0,0,1,1,1.81,1.81,0,0,0,1.11-.49Z" transform="translate(-87.11 -12.45)"/><path d="M200.29,30.44a.89.89,0,0,0-.25.64c0,.59.4.86,1.16,1.21,1.17.56,1.75,1,1.75,1.86A2,2,0,0,1,200.74,36a3.61,3.61,0,0,1-1.62-.38c-.07-.4-.19-1.14-.24-1.59l.39-.07c.25.87.72,1.58,1.67,1.58a.91.91,0,0,0,.95-.93c0-.61-.37-.92-1.09-1.27-1-.46-1.72-.9-1.72-1.88a1.65,1.65,0,0,1,1-1.51Z" transform="translate(-87.11 -12.45)"/><path d="M207.2,32.8a1.51,1.51,0,0,1,.81,1.35A2,2,0,0,1,205.8,36a3.61,3.61,0,0,1-1.62-.38c-.06-.4-.19-1.14-.24-1.59l.39-.07c.25.87.72,1.58,1.67,1.58a.91.91,0,0,0,.95-.93c0-.61-.36-.92-1.08-1.27-.29-.14-.55-.28-.79-.42Z" transform="translate(-87.11 -12.45)"/><path d="M213.32,36a1,1,0,0,1-.64-.26,1.3,1.3,0,0,1-.33-.61,4.18,4.18,0,0,1-1.62.87,1.66,1.66,0,0,1-1.66-1.67A1.39,1.39,0,0,1,210.18,33c.5-.17,1.07-.37,1.51-.55l1.68-.12v2c0,.63.23.82.48.82a1.12,1.12,0,0,0,.49-.15l.13.38Zm-1-3.44c-.3.15-1,.44-1.27.57-.51.23-.82.49-.82,1a1,1,0,0,0,1,1,1.81,1.81,0,0,0,1.12-.49Z" transform="translate(-87.11 -12.45)"/><path d="M221.58,35.54a13.24,13.24,0,0,0-2.1.5v-.88c-.24.15-.6.34-.84.48a2.4,2.4,0,0,1-1.07.4,2.83,2.83,0,0,1-2.53-3,3.12,3.12,0,0,1,.11-.82l1.13-.07.33,0,3.07.88.87,0V34.3c0,.71.1.8.6.83l.43,0Zm-5.3-3.38a1.69,1.69,0,0,0,0,.51c0,1.64,1,2.51,1.89,2.53a2.47,2.47,0,0,0,1.34-.49V33l-2.87-.82Z" transform="translate(-87.11 -12.45)"/><path d="M225.83,29.8a2.93,2.93,0,0,1,2.39,3,3,3,0,0,1-3,3.25,3,3,0,0,1-3-3v-.12l1.28-.06.74,0Zm-2.3,3h0c.06,1.6.81,2.73,1.87,2.73.84,0,1.54-.61,1.54-2.47,0-1.36-.47-2.5-1.36-2.8l-1.31,2.5Z" transform="translate(-87.11 -12.45)"/><path d="M232.22,35.88H229.1V35.5c.86-.09.94-.15.94-1V31.64c0-.9-.06-.94-.84-1v-.34a7.44,7.44,0,0,0,1.91-.56v1.5c.48-.71,1-1.46,1.73-1.46a.7.7,0,0,1,.78.65.88.88,0,0,1-.46.75.26.26,0,0,1-.35,0,.89.89,0,0,0-.61-.34c-.29,0-.79.43-1.09,1.12v2.55c0,.9.07,1,1.11,1Z" transform="translate(-87.11 -12.45)"/><path d="M93.45,148.64A3.1,3.1,0,0,1,91.2,150,2.71,2.71,0,0,1,88.53,147a3.48,3.48,0,0,1,.89-2.38,2.76,2.76,0,0,1,2-1,2.12,2.12,0,0,1,2.08,2.1c0,.27-.06.4-.27.45s-2,.18-3.63.23c0,1.82,1.07,2.57,2,2.57a2.27,2.27,0,0,0,1.57-.7Zm-2.34-4.46c-.62,0-1.23.59-1.42,1.69.76,0,1.52,0,2.32,0,.24,0,.33-.07.33-.27A1.28,1.28,0,0,0,91.11,144.18Z" transform="translate(-87.11 -12.45)"/><path d="M101.06,149.45a16,16,0,0,0-2.1.5v-.88l-.84.49A2.49,2.49,0,0,1,97,150a2.82,2.82,0,0,1-2.52-3,3.42,3.42,0,0,1,3.52-3.3,2.82,2.82,0,0,1,.92.15v-2c0-.87-.1-.89-1.06-1v-.35A12.55,12.55,0,0,0,100,140v8.19c0,.7.1.8.6.82l.43,0ZM99,144.89a1.69,1.69,0,0,0-1.43-.69c-.65,0-1.8.43-1.8,2.39,0,1.64,1,2.51,1.88,2.52a2.43,2.43,0,0,0,1.35-.49Z" transform="translate(-87.11 -12.45)"/><path d="M95.08,175.09a14.25,14.25,0,0,0-2.11.5v-.88c-.24.15-.59.34-.84.49a2.47,2.47,0,0,1-1.07.39H91l.05-1-.87-4.73a3.45,3.45,0,0,1,1.88-.52,2.78,2.78,0,0,1,.92.15v-2c0-.87-.09-.9-1.06-1v-.35a15.31,15.31,0,0,0,2.14-.46v8.18c0,.71.09.8.59.83l.44,0ZM93,170.53a1.68,1.68,0,0,0-1.42-.7c-.23,0-1.13.22-1.27.55l.76,4.23a1.45,1.45,0,0,0,.59.14,2.44,2.44,0,0,0,1.34-.49Z" transform="translate(-87.11 -12.45)"/><path d="M103.25,175.59a1,1,0,0,1-.64-.26,1.21,1.21,0,0,1-.33-.61,4.15,4.15,0,0,1-1.63.87A1.66,1.66,0,0,1,99,173.92a1.38,1.38,0,0,1,1.11-1.36,10.73,10.73,0,0,0,2.15-.88v-.27c0-1-.49-1.52-1.2-1.52a.81.81,0,0,0-.64.31,2.88,2.88,0,0,0-.36.88.39.39,0,0,1-.4.32.66.66,0,0,1-.59-.6c0-.19.17-.35.44-.54a5.87,5.87,0,0,1,2-1,1.79,1.79,0,0,1,1.83,1.95v2.62c0,.62.23.81.48.81a1.12,1.12,0,0,0,.49-.15l.13.38Zm-1-3.43c-.3.15-1,.43-1.27.57-.51.23-.82.48-.82,1a1,1,0,0,0,1,1,1.83,1.83,0,0,0,1.12-.49Z" transform="translate(-87.11 -12.45)"/><path d="M108.09,175.43H105v-.38c.86-.08.94-.15.94-1v-2.83c0-.89-.06-.93-.85-1v-.34a7.39,7.39,0,0,0,1.92-.56v1.5c.47-.71,1-1.46,1.72-1.46a.7.7,0,0,1,.79.66.9.9,0,0,1-.46.74.27.27,0,0,1-.35,0,.85.85,0,0,0-.61-.34c-.29,0-.79.42-1.09,1.11V174c0,.9.07,1,1.11,1.05Z" transform="translate(-87.11 -12.45)"/><path d="M114.88,174.27a3.09,3.09,0,0,1-2.25,1.32,2.72,2.72,0,0,1-2.67-2.92,3.45,3.45,0,0,1,.89-2.37,2.78,2.78,0,0,1,2-1,2.12,2.12,0,0,1,2.08,2.11c0,.27-.06.39-.27.45s-2,.17-3.63.23c0,1.82,1.07,2.56,2,2.56a2.3,2.3,0,0,0,1.57-.69Zm-2.34-4.45c-.62,0-1.23.58-1.42,1.68.76,0,1.52,0,2.32,0,.24,0,.33-.06.33-.27A1.27,1.27,0,0,0,112.54,169.82Z" transform="translate(-87.11 -12.45)"/><path d="M91.71,181.32c.62-.27,1.06-.68,1.06-1.14s-.46-.64-.9-.72c-.09,0-.19-.2-.19-.38a.63.63,0,0,1,.7-.61,1.26,1.26,0,0,1,1.19,1.39,2.08,2.08,0,0,1-1.7,1.84Z" transform="translate(-87.11 -12.45)"/><path d="M97.17,188.23a1.42,1.42,0,0,1-.59.18c-.87,0-1.33-.53-1.33-1.62v-3.95h-.93l-.06-.16.37-.39h.62v-1.14c.26-.28.65-.63.91-.9l.21,0c0,.57-.05,1.35-.05,2h1.55a.41.41,0,0,1-.08.55H96.32v3.48c0,1.1.44,1.3.79,1.3a1.86,1.86,0,0,0,.83-.22l.12.36Z" transform="translate(-87.11 -12.45)"/><path d="M93.45,199.91a3.09,3.09,0,0,1-2.25,1.32,2.69,2.69,0,0,1-.92-.16l.33-1.14,0-2.24,0-2.55a2.4,2.4,0,0,1,.93-.2,2.12,2.12,0,0,1,2.08,2.11c0,.27-.06.39-.27.44s-1.4.13-2.69.2l0,2.24a1.92,1.92,0,0,0,1,.36,2.3,2.3,0,0,0,1.57-.69Zm-2.34-4.45a1.1,1.1,0,0,0-.59.18l0,1.5,1.46,0c.24,0,.33-.07.33-.27A1.27,1.27,0,0,0,91.11,195.46Z" transform="translate(-87.11 -12.45)"/><path d="M94.42,201.06v-.38c.86-.08,1-.15,1-1.07v-2.8c0-.84,0-.89-.85-1v-.32a9.07,9.07,0,0,0,1.93-.55v4.7c0,.92.09,1,1,1.07v.38Zm1.42-7.48a.74.74,0,0,1-.72-.72.73.73,0,0,1,.73-.74.7.7,0,0,1,.69.74A.72.72,0,0,1,95.84,193.58Z" transform="translate(-87.11 -12.45)"/><path d="M101.24,201.06H98.12v-.38c.85-.08.93-.15.93-1v-2.82c0-.9,0-.94-.84-1v-.34a7.39,7.39,0,0,0,1.92-.56v1.49c.47-.7,1-1.45,1.72-1.45a.7.7,0,0,1,.79.65.93.93,0,0,1-.46.75.27.27,0,0,1-.36,0,.85.85,0,0,0-.61-.34c-.28,0-.79.42-1.08,1.12v2.55c0,.89.06,1,1.11,1Z" transform="translate(-87.11 -12.45)"/><path d="M95.17,222.36c-.24-.79-.6-1.33-1.42-1.33a.82.82,0,0,0-.85.88c0,.58.4.85,1.16,1.21,1.17.55,1.75,1,1.75,1.86a2,2,0,0,1-2.21,1.88,3.48,3.48,0,0,1-1.62-.38c-.07-.39-.19-1.14-.24-1.59l.39-.06c.25.87.72,1.57,1.67,1.57a.9.9,0,0,0,1-.92c0-.61-.37-.93-1.09-1.28-1-.46-1.72-.89-1.72-1.87a1.88,1.88,0,0,1,2.12-1.75,7.1,7.1,0,0,1,1.3.17c0,.33.14,1.18.21,1.51Z" transform="translate(-87.11 -12.45)"/><path d="M100.42,226.7v-.38c.79-.08.9-.15.9-1v-2.22c0-1.13-.43-1.7-1.34-1.69a1.93,1.93,0,0,0-1.44.71v3.2c0,.89.11,1,.92,1v.38h-3v-.38c.79-.07,1-.14,1-1v-6.54c0-.72,0-.9-.95-1v-.35a8.59,8.59,0,0,0,2-.46v4.63a3,3,0,0,1,2-1c1.11,0,1.88.69,1.88,2.32v2.39c0,.89.11,1,.9,1v.38Z" transform="translate(-87.11 -12.45)"/><path d="M109,225.55a3.1,3.1,0,0,1-2.26,1.31,2.71,2.71,0,0,1-2.66-2.92,3.47,3.47,0,0,1,.89-2.37,2.76,2.76,0,0,1,2-1,2.12,2.12,0,0,1,2.08,2.1c0,.27-.06.39-.28.45s-2,.18-3.62.23c0,1.82,1.07,2.57,2,2.57a2.27,2.27,0,0,0,1.57-.7Zm-2.34-4.46c-.62,0-1.23.59-1.42,1.69.76,0,1.52,0,2.32,0,.24,0,.33-.07.33-.28A1.27,1.27,0,0,0,106.65,221.09Z" transform="translate(-87.11 -12.45)"/><path d="M91.13,265.14a1.42,1.42,0,0,1-.59.18c-.87,0-1.33-.53-1.33-1.62v-3.95h-.93l-.06-.16.37-.4h.62v-1.14c.26-.27.65-.62.91-.89l.21,0c0,.58,0,1.36,0,2h1.54a.42.42,0,0,1-.08.56H90.29v3.48c0,1.1.43,1.3.78,1.3a1.86,1.86,0,0,0,.83-.22l.12.36Z" transform="translate(-87.11 -12.45)"/><path d="M96.33,265.15v-.38c.78-.08.89-.14.89-1V261.5c0-1.12-.43-1.69-1.34-1.68a2,2,0,0,0-1.44.7v3.21c0,.88.11,1,.92,1v.38h-3v-.38c.79-.06,1-.13,1-1v-6.55c0-.71,0-.89-1-1v-.36a8,8,0,0,0,2-.46V260a3,3,0,0,1,2-1c1.11,0,1.88.69,1.88,2.32v2.39c0,.9.11,1,.9,1v.38Z" transform="translate(-87.11 -12.45)"/><path d="M104.32,265.32a1,1,0,0,1-.64-.26,1.29,1.29,0,0,1-.32-.61,4.28,4.28,0,0,1-1.63.87,1.66,1.66,0,0,1-1.66-1.67,1.39,1.39,0,0,1,1.11-1.36,11.36,11.36,0,0,0,2.15-.88v-.27c0-1-.49-1.52-1.2-1.52a.75.75,0,0,0-.63.31,2.86,2.86,0,0,0-.37.88.37.37,0,0,1-.39.31.65.65,0,0,1-.6-.6c0-.19.17-.35.45-.54a5.71,5.71,0,0,1,2-1,1.83,1.83,0,0,1,1.14.37,1.87,1.87,0,0,1,.69,1.57v2.62c0,.63.23.82.48.82a1.12,1.12,0,0,0,.49-.15l.13.38Zm-1-3.44c-.3.15-1,.44-1.26.57-.52.23-.83.49-.83,1a1,1,0,0,0,1,1.05,1.81,1.81,0,0,0,1.11-.49Z" transform="translate(-87.11 -12.45)"/><path d="M108.57,265.14a1.42,1.42,0,0,1-.59.18c-.87,0-1.33-.53-1.33-1.62v-3.95h-.93l-.06-.16.37-.4h.62v-1.14c.26-.27.65-.62.91-.89l.21,0c0,.58,0,1.36,0,2h1.54a.42.42,0,0,1-.08.56h-1.46v3.48c0,1.1.43,1.3.78,1.3a1.86,1.86,0,0,0,.83-.22l.12.36Z" transform="translate(-87.11 -12.45)"/><path d="M93.45,276.82a3.09,3.09,0,0,1-2.25,1.32,2.72,2.72,0,0,1-2.67-2.92,3.48,3.48,0,0,1,.89-2.38,2.76,2.76,0,0,1,2-1,2.12,2.12,0,0,1,2.08,2.1c0,.28-.06.4-.27.45s-2,.18-3.63.23c0,1.82,1.07,2.57,2,2.57a2.3,2.3,0,0,0,1.57-.69Zm-2.34-4.45c-.62,0-1.23.58-1.42,1.68.76,0,1.52,0,2.32,0,.24,0,.33-.07.33-.27A1.27,1.27,0,0,0,91.11,272.37Z" transform="translate(-87.11 -12.45)"/><path d="M97.87,273.63c-.24-.79-.59-1.33-1.42-1.33a.82.82,0,0,0-.84.88c0,.58.39.86,1.15,1.21,1.17.55,1.75,1,1.75,1.86a2,2,0,0,1-2.21,1.89,3.61,3.61,0,0,1-1.62-.38c-.07-.4-.19-1.15-.24-1.59l.39-.07c.25.87.72,1.57,1.67,1.57a.9.9,0,0,0,1-.92c0-.61-.36-.92-1.08-1.27-1-.47-1.73-.9-1.73-1.88a1.88,1.88,0,0,1,2.12-1.75,6.93,6.93,0,0,1,1.3.18c0,.32.14,1.18.21,1.5Z" transform="translate(-87.11 -12.45)"/><path d="M105.21,278a1.38,1.38,0,0,1-.58.18c-.87,0-1.33-.53-1.33-1.62v-3.95h-.94l0-.16.37-.4h.62v-1.14c.26-.27.65-.62.91-.89l.2,0c0,.57,0,1.36,0,2h1.55a.43.43,0,0,1-.08.56h-1.47v3.48c0,1.09.44,1.3.79,1.3a1.86,1.86,0,0,0,.83-.22l.12.35Z" transform="translate(-87.11 -12.45)"/><path d="M109.53,271.85a2.92,2.92,0,0,1,3,3,3,3,0,0,1-3,3.25,3,3,0,0,1-3-3A3.11,3.11,0,0,1,109.53,271.85Zm-.16.46c-.83,0-1.58.8-1.58,2.38s.76,3,1.88,3c.84,0,1.54-.61,1.54-2.47C111.21,273.6,110.56,272.31,109.37,272.31Z" transform="translate(-87.11 -12.45)"/><line class="cls-2" x1="36.61" y1="13.48" x2="39.78" y2="271.14"/><line class="cls-2" x1="36.95" y1="41.05" x2="275.01" y2="41.05"/><line class="cls-2" x1="283.97" y1="3.06" x2="283.97" y2="271.6"/></svg>