<svg id="Layer_5" data-name="Layer 5" xmlns="http://www.w3.org/2000/svg" viewBox="0 0 167.74 267.51"><defs><style>.cls-1{fill:#fff;}.cls-2,.cls-3{fill:none;stroke:#000;stroke-miterlimit:10;}.cls-3{stroke-width:0.5px;}</style></defs><polygon class="cls-1" points="15.52 4.57 15.52 13.6 13.39 18.68 14.46 30.45 15.52 41.57 14.46 48.55 14.46 54.01 14.46 62.73 11.87 66.22 9.9 73.19 9.9 78.21 9.9 83.01 7.07 85.84 7.07 89.11 5.76 92.17 6.85 102.42 4.23 116.37 0.96 122.92 0.96 153.01 0 197.12 2.28 220.12 2.91 238.03 5.99 254.09 15.52 253.04 23.55 255.72 34.81 255.72 40.7 260.54 45.53 259.47 51.42 261.61 58.39 258.93 69.11 257.86 74.74 261.61 79.3 262.95 85.46 267.51 89.48 267.51 92.97 264.56 97.79 264.56 97.79 261.88 101.01 264.83 105.56 261.61 109.58 262.69 121.11 258.93 125.93 259.74 130.22 258.93 136.38 253.57 142.28 255.18 147.1 253.04 152.73 256.52 159.16 256.79 160.77 260.81 167.74 260.01 165.6 178.53 163.47 0.98 158.61 2.29 155.93 0.98 153.51 2.42 149.68 0.98 146.11 2.17 142.29 0.98 139.1 1.66 136.43 0.98 135.28 0.98 134.26 2.55 132.47 2.04 130.31 3.06 126.86 1.66 121.25 2.29 119.47 0.98 117.81 0.98 114.63 0 113.99 1.15 110.8 2.55 109.53 1.02 106.85 1.66 102.13 0.64 99.33 3.95 96.14 2.29 90.02 3.19 88.62 2.42 87.22 3.06 83.9 2.55 80.33 4.59 76.38 3.31 72.3 1.66 66.44 2.55 62.74 0.89 54.32 2.68 51.14 0.64 49.35 2.04 44.89 2.04 42.21 1.53 38.39 2.55 34.56 0.64 29.72 1.78 28.57 1.4 27.42 3.06 24.24 1.78 20.67 1.78 19.65 3.19 16.71 1.53 13.78 2.17 15.52 4.57"/><line class="cls-2" x1="13.91" y1="24.02" x2="133.82" y2="24.02"/><line class="cls-3" x1="14.8" y1="33.94" x2="134.71" y2="33.94"/><line class="cls-2" x1="2.46" y1="224.54" x2="132.96" y2="224.54"/></svg>