<svg id="Layer_6" data-name="Layer 6" xmlns="http://www.w3.org/2000/svg" viewBox="0 0 302.71 257.08"><defs><style>.cls-1{fill:#fff;}.cls-2,.cls-3{fill:none;stroke:#000;stroke-miterlimit:10;}.cls-3{stroke-width:0.5px;}</style></defs><polygon class="cls-1" points="293.57 18.82 293.57 6.16 285.57 3.5 272.24 11.16 260.91 3.5 257.08 8.16 247.43 8.16 244.47 3.5 236.68 3.5 228.51 5.93 224.06 3.5 217.01 5.56 214.42 0 208.11 0 205.14 5.19 194.76 3.71 188.82 12.61 181.77 15.95 174.72 15.95 171.39 12.61 164.34 7.42 157.29 12.98 148.01 6.31 141.71 7.05 132.81 4.82 128.72 6.31 121.31 9.41 115.37 9.41 109.81 9.41 109.81 14.1 99.79 18.82 94.6 15.21 84.21 14.1 78.64 11.13 68.63 13.36 64.55 5.93 58.61 12.24 52.68 12.24 46.74 9.41 35.24 9.41 19.66 23.37 14.4 25.97 14.4 32.27 10.39 35.24 5.19 44.52 5.19 50.45 3.34 56.39 3.34 68.26 0 79.02 2.97 90.89 5.19 109.81 4.45 122.05 6.31 194.76 5.93 206.26 5.56 216.27 8.53 222.21 14.4 224.81 20.03 232.97 26.34 244.47 34.87 244.47 41.55 248.92 48.97 246.69 57.87 251.14 66.03 251.14 70.11 257.08 74.56 252.26 76.79 245.58 83.84 241.87 84.21 238.16 95.34 232.22 96.82 224.81 105.72 219.98 113.52 218.87 116.48 223.32 126.13 228.89 131.32 226.29 135.77 228.89 138.74 234.45 146.78 234.08 152.47 241.5 160.26 237.05 164.34 229.26 168.05 230.37 175.84 225.18 180.29 230.37 187.34 229.26 195.87 224.06 200.32 230 208.85 230 213.31 236.31 220.35 241.5 222.21 237.42 225.92 231.48 235.93 234.82 245.58 230 257.08 231.48 263.76 222.95 269.69 225.55 277.48 223.32 286.01 223.32 288.61 228.89 300.85 231.48 302.71 227.77 300.85 219.61 298.26 205.14 298.26 188.08 291.21 171.39 278.6 154.69 277.48 138 277.85 122.42 279.71 117.97 279.34 105.35 283.05 100.9 283.05 88.29 286.76 83.84 293.57 18.82"/><line class="cls-2" x1="5.19" y1="44.52" x2="291.1" y2="44.52"/><line class="cls-2" x1="5.56" y1="216.27" x2="300.25" y2="216.27"/><line class="cls-3" x1="5.94" y1="206.26" x2="298.26" y2="206.26"/></svg>