<svg id="Layer_7" data-name="Layer 7" xmlns="http://www.w3.org/2000/svg" viewBox="0 0 357.13 209"><defs><style>.cls-1{fill:#fff;}.cls-2{fill:none;stroke:#000;stroke-miterlimit:10;stroke-width:0.5px;}</style></defs><polygon class="cls-1" points="13.21 8.01 13.21 18.34 6.89 24.09 6.89 30.4 6.89 37.87 4.59 46.48 13.21 53.95 13.21 72.89 13.21 84.38 8.9 98.74 8.9 106.27 1.9 109.46 0 115.96 9.76 128.02 6.6 142.95 13.21 149.27 9.45 154.3 11.22 165.77 11.22 176.8 13.21 190.48 13.21 206.36 24.01 209 39.89 209 58.42 206.8 71.21 205.91 78.71 209 114.44 209 121.94 205.91 163.85 206.36 168.46 201.26 182.13 204.41 184.5 203.36 218.41 203.63 218.41 206.52 234.18 206.52 237.33 209 263.62 207.83 295.87 209 327.68 204.69 344.71 201.11 347.39 193.05 342.47 189.46 341.12 176.02 347.39 166.16 345.15 153.62 350.53 152.28 350.53 144.21 352.77 138.39 357.13 130.32 351.43 124.95 350.53 119.12 347.84 111.51 346.05 93.59 350.08 90 353.22 82.39 348.74 79.25 348.74 75.22 343.81 67.6 346.95 62.23 340.67 53.71 341.12 46.99 344.71 35.34 342.47 26.83 342.91 18.77 341.57 13.84 347.39 0 300.8 1.74 207.61 3.09 83.96 6.67 18.1 3.54 13.21 8.01"/><line class="cls-2" x1="42.52" y1="4.7" x2="42.52" y2="209"/></svg>