<svg id="Layer_8" data-name="Layer 8" xmlns="http://www.w3.org/2000/svg" viewBox="0 0 161 234.44"><defs><style>.cls-1{fill:#fff;}.cls-2,.cls-3{fill:none;stroke:#000;stroke-miterlimit:10;}.cls-3{stroke-width:0.5px;}</style></defs><polygon class="cls-1" points="143.33 7.84 137.98 9.34 133.31 8.59 129.68 9.34 126.04 4.67 121.11 4.67 114.89 0 109.44 4.67 107.56 1.41 104.12 4.67 99.02 1.83 93.52 8.16 89.93 5.96 86.9 8.71 84.7 7.89 81.81 10.64 78.36 13.12 75.47 11.61 72.17 13.12 68.86 11.33 64.59 10.92 62.39 7.61 59.36 11.74 54.95 12.29 48.2 13.67 45.86 11.19 42.01 13.67 39.25 12.43 35.26 15.46 31.54 14.22 28.78 15.46 21.62 15.46 18.73 13.95 14.87 17.66 11.71 16.7 7.58 18.9 2.89 20.14 0.83 24.55 3.44 29.65 3.17 34.74 3.58 41.08 4.96 47.96 2.89 51.55 4.27 54.44 0.83 60.5 2.48 63.39 2.38 64.4 2.07 70.28 4.13 71.38 3.17 76.33 4.41 86.66 2.2 90.11 4.13 94.38 2.48 97.41 1.93 104.71 4.13 108.15 2.48 112.83 5.51 117.1 3.72 121.65 3.99 131.7 4.41 137.76 3.03 145.47 3.86 149.88 2.75 155.94 4.41 163.24 3.86 166.13 1.38 169.44 3.99 174.53 1.79 177.84 3.03 181.69 2.62 188.03 3.86 192.57 2.2 197.81 2.34 200.29 2.34 205.38 0 209.65 1.65 211.31 1.38 217.23 0.83 218.74 1.93 221.5 2.48 226.73 8.4 226.73 9.37 224.94 12.26 226.73 16.94 226.18 19.14 223.97 20.93 226.73 24.52 224.8 26.17 227.69 30.3 227.69 36.5 225.77 38.84 227.69 42.01 226.18 45.17 228.38 49.72 227.56 51.51 224.66 54.26 226.87 58.67 226.18 62.39 227.69 65.69 227.56 71.66 233.34 76.71 231 79.47 231.28 86.08 230.31 91.72 228.11 97.37 228.11 101.78 230.45 105.36 232.51 109.22 231.14 111.97 233.34 118.03 233.34 126.98 234.44 137.86 229.35 143.33 224.8 149.57 228.52 157.14 229.76 161 224.94 161 219.29 158.8 211.03 159.21 204.14 157 194.78 158.25 185.28 157 180.59 157.42 174.95 155.9 154.29 157.97 142.86 156.87 122.06 156.04 95.2 161 86.39 158.66 81.16 159.62 77.3 158.11 26.2 161 17.53 158.52 7.89 154.76 7.68 150.62 6.37 143.33 7.84"/><line class="cls-2" x1="3.39" y1="30.43" x2="143.18" y2="30.43"/><line class="cls-3" x1="3.67" y1="41.41" x2="143.18" y2="41.41"/><line class="cls-2" x1="2.38" y1="64.65" x2="143.18" y2="64.65"/></svg>