<?xml version="1.0" standalone="no"?>
<!DOCTYPE svg PUBLIC "-//W3C//DTD SVG 20010904//EN"
 "http://www.w3.org/TR/2001/REC-SVG-20010904/DTD/svg10.dtd">
<svg version="1.0" xmlns="http://www.w3.org/2000/svg"
 width="207.000000pt" height="207.000000pt" viewBox="0 0 207.000000 207.000000"
 preserveAspectRatio="xMidYMid meet">
<metadata>
Created by potrace 1.14, written by Peter Selinger 2001-2017
</metadata>
<g transform="translate(0.000000,207.000000) scale(0.100000,-0.100000)"
fill="#000000" stroke="none">
<path d="M953 1889 c-6 -6 -44 -20 -85 -31 -73 -19 -132 -48 -178 -87 l-25
-21 40 19 c22 10 51 22 63 26 22 6 23 5 12 -15 -7 -12 -10 -30 -7 -41 3 -10 0
-20 -7 -22 -6 -3 10 -2 36 1 28 3 53 0 61 -7 11 -8 17 -5 26 13 7 13 30 33 51
45 24 13 42 33 49 52 l11 32 -26 -27 c-16 -16 -38 -26 -55 -26 -15 0 -32 -6
-36 -13 -4 -8 -21 -22 -38 -33 l-30 -18 18 20 c9 11 14 24 10 29 -5 4 -3 5 4
1 7 -4 21 6 34 23 23 31 82 61 122 61 21 1 22 1 3 15 -24 18 -38 19 -53 4z"/>
<path d="M780 1703 c-8 -2 -23 -21 -33 -41 l-19 -37 41 40 c50 48 51 50 11 38z"/>
<path d="M1032 1688 c-53 -16 -182 -89 -182 -103 0 -4 5 -3 10 0 6 3 10 1 10
-5 0 -6 4 -9 8 -6 5 3 20 7 35 10 31 5 37 -10 7 -19 -14 -5 -19 -12 -15 -24 3
-10 -4 -30 -17 -46 -19 -25 -20 -28 -4 -22 10 4 27 7 38 7 14 0 19 6 17 23 -7
55 64 106 151 107 58 2 27 17 -40 21 -40 2 -42 3 -11 6 19 3 49 15 66 29 18
13 39 24 48 24 10 0 17 5 17 10 0 15 -70 9 -138 -12z m-97 -78 c-22 -10 -44
-18 -50 -18 -5 0 8 8 30 19 22 10 45 18 50 18 6 0 -8 -9 -30 -19z"/>
<path d="M1225 1674 c-27 -7 -66 -16 -85 -20 -19 -3 -36 -7 -38 -9 -2 -2 16
-12 41 -23 41 -18 47 -19 103 -4 90 23 170 -2 194 -62 l9 -21 0 21 c1 29 -38
85 -74 105 -43 24 -93 28 -150 13z"/>
<path d="M795 1643 c-22 -14 -51 -39 -64 -56 l-24 -29 31 16 c18 9 34 16 37
16 3 0 9 0 13 0 5 0 20 18 35 40 30 47 26 49 -28 13z"/>
<path d="M1200 1578 c0 -4 6 -8 13 -8 20 0 90 -41 111 -64 10 -11 27 -39 37
-61 17 -36 19 -37 19 -14 0 15 7 32 15 39 13 11 21 9 45 -9 37 -27 38 -18 4
27 -15 19 -50 45 -81 59 -55 26 -163 46 -163 31z"/>
<path d="M769 1559 c-24 -24 -49 -80 -49 -106 1 -13 5 -10 16 10 9 16 26 30
42 33 24 5 27 10 27 45 0 44 -6 48 -36 18z"/>
<path d="M781 1434 c-11 -31 -21 -74 -21 -95 0 -45 -24 -64 -45 -35 -23 30
-25 -1 -10 -116 6 -53 35 -151 48 -163 7 -7 8 -6 3 2 -11 19 -17 194 -8 228
l8 30 10 -30 c6 -17 7 -43 3 -60 -4 -16 -7 -50 -7 -75 l0 -45 13 47 c14 51 51
118 66 118 5 0 7 10 5 23 -4 28 18 73 58 116 l31 33 -30 -16 c-55 -29 -99 -80
-115 -134 -7 -22 -8 -23 -9 -6 -2 34 28 120 46 137 10 8 34 17 53 19 24 2 36
9 38 21 3 16 -1 17 -32 12 -30 -6 -39 -3 -59 19 l-24 26 -22 -56z"/>
<path d="M924 1472 l-22 -3 23 -24 c22 -21 23 -27 13 -62 -5 -21 -20 -51 -32
-68 -39 -53 -40 -60 -7 -35 18 12 45 43 60 68 40 68 49 75 90 67 l35 -7 -24
22 c-23 19 -23 20 -3 10 12 -5 26 -16 30 -24 4 -8 17 -16 28 -19 19 -4 18 -5
-2 -6 -31 -1 -37 -18 -9 -25 15 -4 33 -24 52 -60 30 -58 66 -86 109 -86 30 0
66 -17 78 -36 4 -8 13 -14 19 -14 12 0 -18 49 -41 67 -9 7 -39 24 -67 38 -32
16 -62 42 -82 70 l-31 44 27 -10 c15 -6 44 -27 65 -47 46 -45 48 -33 3 22 -38
46 -125 94 -183 101 -37 4 -91 14 -102 19 -3 1 -16 0 -27 -2z"/>
<path d="M1480 1395 c-4 -61 -25 -110 -53 -123 l-22 -11 23 0 24 -1 -22 -37
c-12 -21 -23 -55 -24 -75 l-1 -37 23 22 c39 37 73 120 73 179 0 54 -18 125
-21 83z"/>
<path d="M1054 1297 c-12 -6 -39 -22 -60 -33 -22 -12 -41 -23 -44 -25 -3 -1
-14 3 -25 9 -17 8 -28 6 -53 -10 -18 -11 -31 -22 -29 -25 13 -13 98 -3 135 16
l42 22 -4 -28 c-3 -15 -1 -35 4 -43 9 -13 10 -13 11 0 2 45 12 68 39 92 19 18
36 25 47 21 11 -4 14 -3 9 5 -9 15 -45 15 -72 -1z"/>
<path d="M1263 1203 c-8 -3 -5 -11 8 -24 10 -10 19 -32 19 -47 0 -16 9 -58 21
-93 12 -35 23 -74 25 -85 5 -27 -21 -90 -40 -97 -8 -3 -16 -18 -19 -34 -2 -18
-5 -10 -6 22 -1 28 -6 59 -10 70 -6 14 -1 29 17 53 31 40 19 57 -13 20 -13
-16 -27 -23 -30 -18 -3 5 9 23 27 40 l33 30 -30 -7 c-16 -4 -43 -7 -60 -6 -43
2 -123 50 -141 84 -20 39 -28 37 -20 -6 7 -35 7 -35 -29 -35 -77 0 -171 -68
-201 -146 -19 -49 -19 -49 14 -58 17 -6 22 -3 22 9 0 32 42 92 83 118 49 32
70 34 108 7 15 -12 51 -24 79 -27 40 -5 55 -12 68 -31 15 -23 15 -25 -3 -38
-10 -8 -14 -14 -8 -14 7 0 15 5 19 11 12 19 24 -13 24 -64 0 -62 -19 -105 -64
-144 -36 -32 -48 -73 -22 -73 8 0 40 24 72 53 83 75 99 91 100 102 1 6 2 15 3
22 1 14 42 8 81 -12 33 -17 80 -71 80 -91 0 -14 48 -39 57 -30 3 3 0 20 -6 39
-16 48 -72 110 -119 131 l-40 18 20 47 c35 83 94 124 178 124 164 0 245 -199
131 -320 -85 -90 -244 -65 -301 46 -18 35 -54 59 -64 42 -7 -11 33 -93 57
-119 40 -43 111 -72 174 -72 256 1 328 348 95 452 -77 35 -168 23 -247 -31
-16 -12 -37 -21 -45 -20 -8 0 -3 5 13 11 22 8 27 16 26 41 0 18 -4 41 -9 52
-8 18 -9 17 -9 -7 -2 -59 -37 -25 -71 69 -12 32 -26 43 -47 36z"/>
<path d="M473 1069 c-228 -41 -270 -357 -59 -449 65 -29 113 -30 113 -2 0 21
-15 32 -47 32 -31 0 -87 33 -114 68 -92 115 -17 292 130 305 181 16 277 -223
134 -335 -32 -25 -48 -68 -26 -68 26 0 81 47 110 93 105 170 -44 391 -241 356z"/>
<path d="M760 835 c0 -20 5 -25 27 -25 50 0 114 -40 146 -91 27 -44 60 -69 74
-56 10 11 -36 96 -68 127 -40 38 -108 70 -150 70 -24 0 -29 -4 -29 -25z"/>
<path d="M629 807 c-179 -136 -81 -420 144 -420 112 0 206 71 230 174 6 23 3
27 -17 31 -20 4 -26 -1 -35 -31 -35 -112 -181 -163 -279 -98 -106 70 -114 227
-15 305 20 16 33 36 33 50 0 30 -11 28 -61 -11z"/>
<path d="M1153 811 c-55 -40 -93 -118 -93 -190 1 -133 101 -234 235 -234 113
-1 204 69 231 178 5 22 3 25 -19 25 -20 0 -27 -6 -32 -31 -10 -43 -72 -102
-124 -117 -92 -28 -191 17 -227 104 -32 77 -4 186 61 228 15 10 25 26 25 41 0
32 -8 31 -57 -4z"/>
<path d="M806 771 c18 -79 111 -161 194 -169 50 -5 52 -4 48 19 -2 17 -10 24
-28 26 -61 4 -137 58 -160 112 -7 18 -21 31 -36 34 -21 4 -23 1 -18 -22z"/>
<path d="M622 241 c-10 -6 -11 -34 -3 -80 1 -2 8 2 16 9 16 13 21 65 7 74 -4
2 -13 1 -20 -3z"/>
<path d="M369 238 c-1 -2 -2 -39 -3 -82 -2 -88 9 -109 52 -104 35 4 39 24 7
32 -25 6 -26 10 -25 64 2 85 1 92 -15 92 -8 0 -16 -1 -16 -2z"/>
<path d="M480 186 c0 -8 14 -17 30 -21 33 -7 41 -25 11 -25 -39 0 -51 -11 -51
-46 0 -31 4 -35 33 -41 51 -11 72 -9 72 7 0 9 -11 15 -29 17 -38 3 -56 20 -31
29 11 5 20 3 23 -4 2 -7 10 -12 18 -12 10 0 14 13 14 49 0 42 -3 49 -22 55
-39 10 -68 7 -68 -8z"/>
<path d="M690 188 c0 -9 13 -18 30 -21 33 -7 41 -27 11 -27 -38 0 -51 -11 -51
-45 0 -35 5 -39 67 -50 18 -3 35 0 39 6 8 14 -14 29 -43 29 -28 0 -39 18 -17
27 10 4 19 2 22 -5 7 -21 32 -13 33 11 2 28 -2 71 -6 75 -2 2 -22 6 -44 9 -32
4 -41 2 -41 -9z"/>
<path d="M833 193 c-9 -3 -13 -27 -13 -74 0 -55 3 -69 15 -69 8 0 16 6 16 13
1 10 5 46 8 85 1 6 8 12 16 12 16 0 17 -4 19 -65 1 -30 6 -41 19 -43 16 -3 18
4 15 69 -3 63 -6 73 -23 75 -10 2 -25 -2 -33 -8 -9 -8 -16 -8 -20 -1 -4 5 -13
8 -19 6z"/>
<path d="M983 192 c-7 -5 -11 -33 -10 -75 1 -55 4 -67 17 -65 10 2 17 19 20
53 4 37 9 51 23 53 14 3 17 -5 17 -52 0 -43 3 -56 15 -56 8 0 15 8 16 18 5 89
5 109 -3 119 -9 11 -44 10 -56 -2 -3 -2 -10 -1 -16 5 -7 5 -17 6 -23 2z"/>
<path d="M1200 190 c0 -5 0 -13 0 -17 0 -8 4 -9 35 -12 24 -2 17 -19 -15 -36
-21 -11 -30 -23 -30 -40 0 -29 3 -31 58 -40 38 -6 42 -5 42 14 0 16 -8 20 -37
23 l-38 3 38 17 c31 14 37 22 37 48 0 24 -6 33 -26 40 -33 13 -64 13 -64 0z"/>
<path d="M1345 183 c-14 -13 -16 -28 -11 -67 7 -59 13 -67 55 -68 40 -1 48 7
53 57 2 31 -1 40 -14 43 -14 3 -18 -4 -19 -25 -1 -15 -1 -31 0 -35 0 -5 -8 -8
-19 -8 -17 0 -20 7 -20 40 0 25 5 41 13 42 6 0 17 2 22 3 6 2 18 3 28 4 9 0
17 8 17 16 0 22 -83 20 -105 -2z"/>
<path d="M1495 191 c-3 -2 -5 -24 -5 -48 0 -35 3 -43 19 -43 10 0 24 -7 31
-15 10 -12 6 -17 -24 -32 -39 -18 -40 -21 -27 -42 7 -11 15 -10 45 8 43 27 54
45 48 76 -3 17 -13 26 -34 30 -39 9 -35 40 5 39 20 -1 27 4 27 18 0 16 -7 18
-40 16 -22 -1 -43 -4 -45 -7z"/>
<path d="M1628 174 c-11 -23 -3 -110 11 -118 19 -12 61 -13 74 -3 9 7 17 31
20 55 4 36 2 42 -14 42 -17 0 -26 -27 -20 -62 0 -5 -8 -8 -19 -8 -17 0 -20 7
-20 40 0 22 5 41 10 41 6 1 19 3 30 4 11 1 24 3 28 4 5 0 9 8 9 16 0 13 -11
15 -50 14 -40 -2 -51 -7 -59 -25z"/>
</g>
</svg>
