<?xml version="1.0" standalone="no"?>
<!DOCTYPE svg PUBLIC "-//W3C//DTD SVG 20010904//EN"
 "http://www.w3.org/TR/2001/REC-SVG-20010904/DTD/svg10.dtd">
<svg version="1.0" xmlns="http://www.w3.org/2000/svg"
 width="1042.000000pt" height="1042.000000pt" viewBox="0 0 1042.000000 1042.000000"
 preserveAspectRatio="xMidYMid meet">

<g transform="translate(0.000000,1042.000000) scale(0.100000,-0.100000)"
fill="#131CA4" stroke="none">
<path d="M0 5210 l0 -5210 5210 0 5210 0 0 5210 0 5210 -5210 0 -5210 0 0
-5210z m5269 2584 l31 -26 0 -333 c0 -332 0 -334 -22 -360 -14 -15 -38 -28
-60 -32 -33 -5 -41 -2 -73 30 l-35 35 0 321 0 320 31 36 c39 44 83 47 128 9z
m-1520 -776 c75 -72 182 -177 239 -234 94 -95 102 -106 102 -141 0 -21 -7 -48
-15 -60 -19 -27 -75 -46 -104 -35 -27 10 -424 393 -463 446 -36 50 -35 77 3
121 24 27 39 35 66 35 31 0 49 -14 172 -132z m3152 103 c22 -22 29 -39 29 -68
0 -37 -10 -48 -227 -265 -126 -125 -240 -231 -254 -237 -50 -18 -93 3 -116 57
-11 27 -11 37 1 65 14 31 422 444 461 465 36 20 75 14 106 -17z m-1476 -276
c287 -47 540 -176 751 -383 459 -451 535 -1165 181 -1704 -30 -46 -81 -115
-114 -154 -181 -215 -325 -503 -381 -764 -22 -102 -42 -269 -42 -354 0 -65
-38 -146 -86 -184 l-34 -27 0 -192 c0 -106 -5 -216 -11 -245 -20 -96 -72 -162
-169 -214 -32 -17 -60 -19 -310 -19 -268 0 -276 1 -322 23 -26 13 -67 45 -92
72 -68 72 -76 112 -76 362 l0 208 -41 37 c-68 62 -80 97 -90 264 -21 383 -155
712 -429 1051 -225 279 -320 539 -320 878 0 375 132 693 400 960 200 201 462
339 720 380 41 6 82 13 90 15 48 9 298 3 375 -10z m-1864 -1344 c37 -38 39
-88 5 -128 l-24 -28 -337 -3 -336 -3 -29 30 c-41 41 -41 91 -1 132 l29 29 332
0 332 0 29 -29z m3993 23 c9 -3 25 -21 37 -40 28 -46 20 -95 -20 -124 -28 -19
-43 -20 -356 -20 l-327 0 -29 29 c-42 42 -41 99 2 135 l31 26 323 0 c178 0
330 -3 339 -6z m-3514 -1209 c36 -19 50 -43 50 -88 0 -32 -19 -53 -230 -263
-252 -251 -275 -267 -328 -227 -40 29 -56 64 -48 99 9 34 422 454 471 478 38
20 49 20 85 1z m2413 4 c12 -6 124 -113 250 -237 224 -223 227 -227 227 -269
0 -34 -5 -46 -31 -67 -32 -27 -67 -33 -100 -15 -38 20 -458 444 -469 473 -27
73 54 150 123 115z"/>
<path d="M4996 6654 c-220 -40 -440 -152 -604 -308 -328 -314 -446 -788 -302
-1218 51 -152 104 -244 239 -413 282 -353 421 -696 451 -1113 7 -102 14 -139
26 -153 16 -18 40 -19 401 -19 370 0 384 1 403 20 15 15 20 33 20 73 1 226 72
527 176 747 87 184 128 247 339 520 163 212 239 437 239 710 0 211 -36 361
-130 539 -172 328 -470 544 -843 615 -103 20 -306 20 -415 0z"/>
<path d="M4910 3059 c0 -212 8 -242 69 -260 22 -6 118 -9 254 -7 l219 3 24 28
c24 28 24 31 24 223 l0 194 -295 0 -295 0 0 -181z"/>
</g>
</svg>
