<svg width="970" height="858" viewBox="0 0 970 858" fill="none" xmlns="http://www.w3.org/2000/svg">
<g filter="url(#filter0_d)">
<path d="M200 10H940V808H200V10Z" fill="white"/>
<path d="M200 63H940V808H200V63Z" fill="#F2F2F2"/>
<rect x="200" y="62" width="740" height="1" fill="black" fill-opacity="0.05"/>
</g>
<mask id="mask0" mask-type="alpha" maskUnits="userSpaceOnUse" x="0" y="10" width="940" height="792">
<rect y="10" width="940" height="791.814" rx="10" fill="white"/>
</mask>
<g mask="url(#mask0)">
<path d="M235.756 45.0704V44.3144L229.512 41.4304L235.756 38.5464V37.7764L228.644 41.0524V41.8084L235.756 45.0704ZM254.972 41.4304L248.728 44.3144V45.0704L255.84 41.8084V41.0524L248.728 37.7764V38.5464L254.972 41.4304Z" fill="#979797"/>
</g>
<path d="M843.82 42.556H854.18V41.744H843.82V42.556Z" fill="#979797"/>
<path d="M904.042 36.004L907.43 40.848L903.846 46H904.91L907.99 41.59L911.028 46H912.176L908.564 40.876L911.98 36.004H910.916L907.99 40.19L905.162 36.004H904.042Z" fill="#979797"/>
<rect x="875.4" y="36.4" width="9.2" height="9.2" stroke="#979797" stroke-width="0.8"/>
<defs>
<filter id="filter0_d" x="-30" y="0" width="1000" height="858" filterUnits="userSpaceOnUse" color-interpolation-filters="sRGB">
<feFlood flood-opacity="0" result="BackgroundImageFix"/>
<feColorMatrix in="SourceAlpha" type="matrix" values="0 0 0 0 0 0 0 0 0 0 0 0 0 0 0 0 0 0 127 0" result="hardAlpha"/>
<feOffset dy="20"/>
<feGaussianBlur stdDeviation="15"/>
<feColorMatrix type="matrix" values="0 0 0 0 0 0 0 0 0 0 0 0 0 0 0 0 0 0 0.2 0"/>
<feBlend mode="normal" in2="BackgroundImageFix" result="effect1_dropShadow"/>
<feBlend mode="normal" in="SourceGraphic" in2="effect1_dropShadow" result="shape"/>
</filter>
</defs>
</svg>
